<svg width="996" height="569" viewBox="0 0 996 569" fill="none" xmlns="http://www.w3.org/2000/svg">
<path d="M995 556.919C909.244 585.008 807.284 552.763 753.2 480.54C731.261 451.241 716.688 416.313 690.909 390.328C665.129 364.342 621.41 349.824 592 371.601" stroke="white" stroke-miterlimit="10" stroke-linecap="round" stroke-dasharray="5 5"/>
<path d="M3.96595 43C-4.90596 86.825 6.40816 134.285 34.1204 169.346C61.8327 204.406 105.445 226.418 150.153 227.912C197.703 229.505 243.109 209.286 285.126 187.025C327.193 164.764 368.811 139.714 415.463 130.202C462.066 120.69 516.095 130.202 546 167.204" stroke="white" stroke-miterlimit="10" stroke-linecap="round" stroke-dasharray="5 5"/>
<g clip-path="url(#clip0_563_7858)">
<rect x="109" y="1" width="266.243" height="266.243" rx="133.121" fill="#1F0F3B"/>
<g clip-path="url(#clip1_563_7858)">
<rect width="461" height="997.074" transform="translate(10 -778)" fill="#3B206C"/>
<mask id="mask0_563_7858" style="mask-type:luminance" maskUnits="userSpaceOnUse" x="10" y="-229" width="461" height="551">
<path d="M471 -228.125H10V321.751H471V-228.125Z" fill="white"/>
</mask>
<g mask="url(#mask0_563_7858)">
<path d="M366.635 91.5857C366.635 91.9676 366.378 92.2922 366.042 92.2922C365.706 92.2922 365.45 91.9867 365.45 91.5857C365.45 91.1847 365.706 90.8793 366.042 90.8793C366.378 90.8793 366.635 91.1847 366.635 91.5857Z" fill="#6C46B0"/>
<path d="M358.744 186.878C358.744 187.26 358.488 187.565 358.168 187.565C357.848 187.565 357.591 187.26 357.591 186.878C357.591 186.496 357.848 186.191 358.168 186.191C358.488 186.191 358.744 186.496 358.744 186.878Z" fill="#6C46B0"/>
<path d="M352.501 185.084C352.501 185.275 352.373 185.428 352.213 185.428C352.053 185.428 351.925 185.275 351.925 185.084C351.925 184.893 352.053 184.74 352.213 184.74C352.373 184.74 352.501 184.893 352.501 185.084Z" fill="#6C46B0"/>
<path d="M344.545 178.668C344.545 179.069 344.273 179.394 343.937 179.394C343.601 179.394 343.329 179.069 343.329 178.668C343.329 178.267 343.601 177.943 343.937 177.943C344.273 177.943 344.545 178.267 344.545 178.668Z" fill="#6C46B0"/>
<path d="M336.766 189.246C336.766 189.685 336.462 190.048 336.093 190.048C335.725 190.048 335.421 189.685 335.421 189.246C335.421 188.807 335.725 188.444 336.093 188.444C336.462 188.444 336.766 188.807 336.766 189.246Z" fill="#6C46B0"/>
<path d="M329.499 33.6003C329.499 34.2686 329.051 34.8032 328.491 34.8032C327.931 34.8032 327.482 34.2686 327.482 33.6003C327.482 32.9321 327.931 32.3975 328.491 32.3975C329.051 32.3975 329.499 32.9321 329.499 33.6003Z" fill="#6C46B0"/>
<path d="M320.983 174.448C321.54 174.448 321.992 173.91 321.992 173.245C321.992 172.581 321.54 172.043 320.983 172.043C320.426 172.043 319.975 172.581 319.975 173.245C319.975 173.91 320.426 174.448 320.983 174.448Z" fill="#6C46B0"/>
<path d="M307.121 79.5381C307.121 79.5381 307.105 79.5959 307.073 79.5959C307.041 79.5959 307.025 79.5766 307.025 79.5381C307.025 79.4996 307.041 79.4803 307.073 79.4803C307.105 79.4803 307.121 79.4996 307.121 79.5381Z" fill="#6C46B0"/>
<path d="M286.616 13.0759C286.616 13.7251 286.168 14.2597 285.624 14.2597C285.08 14.2597 284.632 13.7251 284.632 13.0759C284.632 12.4267 285.08 11.8922 285.624 11.8922C286.168 11.8922 286.616 12.4267 286.616 13.0759Z" fill="#6C46B0"/>
<path d="M279.828 68.1013C279.828 68.2156 279.748 68.2918 279.668 68.2918C279.589 68.2918 279.509 68.1966 279.509 68.1013C279.509 68.0061 279.589 67.9108 279.668 67.9108C279.748 67.9108 279.828 68.0061 279.828 68.1013Z" fill="#6C46B0"/>
<path d="M271.842 187.909C271.842 188.158 271.666 188.368 271.457 188.368C271.249 188.368 271.073 188.158 271.073 187.909C271.073 187.661 271.249 187.451 271.457 187.451C271.666 187.451 271.842 187.661 271.842 187.909Z" fill="#6C46B0"/>
<path d="M258.46 130.726C258.46 130.878 258.348 131.012 258.22 131.012C258.092 131.012 257.98 130.878 257.98 130.726C257.98 130.574 258.092 130.44 258.22 130.44C258.348 130.44 258.46 130.574 258.46 130.726Z" fill="#6C46B0"/>
<path d="M236.898 22.2016C236.898 22.6789 236.578 23.0799 236.162 23.0799C235.746 23.0799 235.426 22.698 235.426 22.2016C235.426 21.7052 235.746 21.3234 236.162 21.3234C236.578 21.3234 236.898 21.7052 236.898 22.2016Z" fill="#6C46B0"/>
<path d="M228.367 129.58C228.88 129.58 229.295 129.085 229.295 128.473C229.295 127.861 228.88 127.366 228.367 127.366C227.854 127.366 227.439 127.861 227.439 128.473C227.439 129.085 227.854 129.58 228.367 129.58Z" fill="#6C46B0"/>
<path d="M223.853 149.628C223.853 149.952 223.629 150.22 223.356 150.22C223.084 150.22 222.86 149.952 222.86 149.628C222.86 149.303 223.084 149.036 223.356 149.036C223.629 149.036 223.853 149.303 223.853 149.628Z" fill="#6C46B0"/>
<path d="M193.856 11.3384C193.856 11.873 193.488 12.3121 193.04 12.3121C192.592 12.3121 192.224 11.873 192.224 11.3384C192.224 10.8038 192.592 10.3646 193.04 10.3646C193.488 10.3646 193.856 10.8038 193.856 11.3384Z" fill="#6C46B0"/>
<path d="M186.716 150.01C186.716 150.507 186.38 150.927 185.948 150.927C185.516 150.927 185.18 150.526 185.18 150.01C185.18 149.495 185.516 149.094 185.948 149.094C186.38 149.094 186.716 149.495 186.716 150.01Z" fill="#6C46B0"/>
<path d="M171.67 29.534C171.67 29.935 171.398 30.2596 171.062 30.2596C170.726 30.2596 170.454 29.935 170.454 29.534C170.454 29.1331 170.726 28.8085 171.062 28.8085C171.398 28.8085 171.67 29.1331 171.67 29.534Z" fill="#6C46B0"/>
<path d="M150.797 194.019C150.797 194.553 150.429 194.992 149.98 194.992C149.532 194.992 149.164 194.553 149.164 194.019C149.164 193.484 149.532 193.045 149.98 193.045C150.429 193.045 150.797 193.484 150.797 194.019Z" fill="#6C46B0"/>
<path d="M123.121 83.5092C123.121 83.9674 122.817 84.3302 122.433 84.3302C122.049 84.3302 121.745 83.9674 121.745 83.5092C121.745 83.051 122.049 82.6882 122.433 82.6882C122.817 82.6882 123.121 83.051 123.121 83.5092Z" fill="#6C46B0"/>
<path d="M111.324 114.096C111.324 114.459 111.068 114.765 110.764 114.765C110.46 114.765 110.204 114.459 110.204 114.096C110.204 113.734 110.46 113.428 110.764 113.428C111.068 113.428 111.324 113.734 111.324 114.096Z" fill="#6C46B0"/>
<path d="M118.255 101.514C118.255 101.686 118.143 101.838 117.983 101.838C117.823 101.838 117.711 101.705 117.711 101.514C117.711 101.323 117.823 101.189 117.983 101.189C118.143 101.189 118.255 101.323 118.255 101.514Z" fill="#6C46B0"/>
<path d="M125.234 203.164C125.234 203.546 124.978 203.833 124.674 203.833C124.37 203.833 124.114 203.527 124.114 203.164C124.114 202.802 124.37 202.496 124.674 202.496C124.978 202.496 125.234 202.802 125.234 203.164Z" fill="#6C46B0"/>
<path d="M139.976 95.8048C139.976 96.3585 139.592 96.8167 139.128 96.8167C138.664 96.8167 138.28 96.3585 138.28 95.8048C138.28 95.2511 138.664 94.7928 139.128 94.7928C139.592 94.7928 139.976 95.2511 139.976 95.8048Z" fill="#6C46B0"/>
<path d="M145.53 34.4587C145.627 34.4587 145.706 34.3649 145.706 34.2492C145.706 34.1334 145.627 34.0396 145.53 34.0396C145.433 34.0396 145.354 34.1334 145.354 34.2492C145.354 34.3649 145.433 34.4587 145.53 34.4587Z" fill="#6C46B0"/>
<path d="M168.245 98.0388C168.245 98.4016 168.005 98.7071 167.684 98.7071C167.364 98.7071 167.124 98.4207 167.124 98.0388C167.124 97.6569 167.364 97.3705 167.684 97.3705C168.005 97.3705 168.245 97.6569 168.245 98.0388Z" fill="#6C46B0"/>
<path d="M189.262 211.871C189.262 212.329 188.958 212.692 188.574 212.692C188.19 212.692 187.886 212.329 187.886 211.871C187.886 211.412 188.19 211.05 188.574 211.05C188.958 211.05 189.262 211.412 189.262 211.871Z" fill="#6C46B0"/>
<path d="M195.793 184.912C196.208 184.912 196.545 184.51 196.545 184.015C196.545 183.519 196.208 183.117 195.793 183.117C195.377 183.117 195.04 183.519 195.04 184.015C195.04 184.51 195.377 184.912 195.793 184.912Z" fill="#6C46B0"/>
<path d="M204.229 178.783C204.229 179.069 204.037 179.317 203.78 179.317C203.524 179.317 203.332 179.088 203.332 178.783C203.332 178.477 203.524 178.248 203.78 178.248C204.037 178.248 204.229 178.477 204.229 178.783Z" fill="#6C46B0"/>
<path d="M211.368 215.461C211.368 215.995 211 216.435 210.551 216.435C210.103 216.435 209.735 215.995 209.735 215.461C209.735 214.926 210.103 214.487 210.551 214.487C211 214.487 211.368 214.926 211.368 215.461Z" fill="#6C46B0"/>
<path d="M219.275 209.542C219.275 210.172 218.858 210.668 218.33 210.668C217.802 210.668 217.386 210.172 217.386 209.542C217.386 208.912 217.802 208.415 218.33 208.415C218.858 208.415 219.275 208.912 219.275 209.542Z" fill="#6C46B0"/>
<path d="M225.118 59.1089C225.675 59.1089 226.126 58.5703 226.126 57.906C226.126 57.2417 225.675 56.7032 225.118 56.7032C224.561 56.7032 224.109 57.2417 224.109 57.906C224.109 58.5703 224.561 59.1089 225.118 59.1089Z" fill="#6C46B0"/>
<path d="M239.123 0.589093C239.123 0.951858 238.883 1.23826 238.579 1.23826C238.275 1.23826 238.034 0.951858 238.034 0.589093C238.034 0.226328 238.275 -0.0600586 238.579 -0.0600586C238.883 -0.0600586 239.123 0.226328 239.123 0.589093Z" fill="#6C46B0"/>
<path d="M253.402 189.38C253.402 189.628 253.226 189.838 253.017 189.838C252.809 189.838 252.633 189.628 252.633 189.38C252.633 189.131 252.809 188.921 253.017 188.921C253.226 188.921 253.402 189.131 253.402 189.38Z" fill="#6C46B0"/>
<path d="M273.618 104.129C273.742 104.129 273.842 104.009 273.842 103.862C273.842 103.715 273.742 103.595 273.618 103.595C273.495 103.595 273.395 103.715 273.395 103.862C273.395 104.009 273.495 104.129 273.618 104.129Z" fill="#6C46B0"/>
<path d="M281.27 148.502C281.27 148.826 281.045 149.094 280.773 149.094C280.501 149.094 280.277 148.826 280.277 148.502C280.277 148.177 280.501 147.91 280.773 147.91C281.045 147.91 281.27 148.177 281.27 148.502Z" fill="#6C46B0"/>
<path d="M288.217 21.1898C288.217 21.7053 287.864 22.1254 287.432 22.1254C287 22.1254 286.648 21.7053 286.648 21.1898C286.648 20.6743 287 20.2543 287.432 20.2543C287.864 20.2543 288.217 20.6743 288.217 21.1898Z" fill="#6C46B0"/>
<path d="M314.612 44.2735C314.975 44.2735 315.269 43.923 315.269 43.4907C315.269 43.0583 314.975 42.7079 314.612 42.7079C314.25 42.7079 313.956 43.0583 313.956 43.4907C313.956 43.923 314.25 44.2735 314.612 44.2735Z" fill="#6C46B0"/>
<path d="M343.409 110.946C343.409 111.614 342.961 112.148 342.401 112.148C341.84 112.148 341.392 111.614 341.392 110.946C341.392 110.277 341.84 109.743 342.401 109.743C342.961 109.743 343.409 110.277 343.409 110.946Z" fill="#6C46B0"/>
<path d="M362.809 132.081C362.809 132.31 362.649 132.501 362.457 132.501C362.265 132.501 362.105 132.31 362.105 132.081C362.105 131.852 362.265 131.661 362.457 131.661C362.649 131.661 362.809 131.852 362.809 132.081Z" fill="#6C46B0"/>
<path d="M370.412 7.67188C370.412 8.05374 370.14 8.37831 369.82 8.37831C369.5 8.37831 369.228 8.07283 369.228 7.67188C369.228 7.27093 369.484 6.96545 369.82 6.96545C370.156 6.96545 370.412 7.29002 370.412 7.67188Z" fill="#6C46B0"/>
<path d="M372.301 191.69C372.301 192.053 372.045 192.358 371.741 192.358C371.437 192.358 371.181 192.053 371.181 191.69C371.181 191.327 371.437 191.022 371.741 191.022C372.045 191.022 372.301 191.327 372.301 191.69Z" fill="#6C46B0"/>
<path d="M357.111 67.6813C357.411 67.6813 357.655 67.3906 357.655 67.0321C357.655 66.6736 357.411 66.3829 357.111 66.3829C356.81 66.3829 356.566 66.6736 356.566 67.0321C356.566 67.3906 356.81 67.6813 357.111 67.6813Z" fill="#6C46B0"/>
<path d="M344.53 138.65C344.53 138.841 344.402 138.974 344.258 138.974C344.114 138.974 343.986 138.822 343.986 138.65C343.986 138.478 344.114 138.325 344.258 138.325C344.402 138.325 344.53 138.478 344.53 138.65Z" fill="#6C46B0"/>
<path d="M332.508 164.692C332.508 165.36 332.06 165.895 331.5 165.895C330.94 165.895 330.491 165.36 330.491 164.692C330.491 164.024 330.94 163.489 331.5 163.489C332.06 163.489 332.508 164.024 332.508 164.692Z" fill="#6C46B0"/>
<path d="M325.08 16.3789C325.08 16.8181 324.776 17.1808 324.408 17.1808C324.04 17.1808 323.736 16.8181 323.736 16.3789C323.736 15.9398 324.04 15.577 324.408 15.577C324.776 15.577 325.08 15.9398 325.08 16.3789Z" fill="#6C46B0"/>
<path d="M317.205 128.951C317.205 129.428 316.885 129.81 316.485 129.81C316.085 129.81 315.765 129.428 315.765 128.951C315.765 128.474 316.085 128.092 316.485 128.092C316.885 128.092 317.205 128.474 317.205 128.951Z" fill="#6C46B0"/>
<path d="M310.675 14.0307C310.675 14.6035 310.29 15.0426 309.826 15.0426C309.362 15.0426 308.978 14.5844 308.978 14.0307C308.978 13.477 309.362 13.0188 309.826 13.0188C310.29 13.0188 310.675 13.477 310.675 14.0307Z" fill="#6C46B0"/>
<path d="M288.391 132.329C288.391 132.329 288.36 132.405 288.328 132.405C288.297 132.405 288.265 132.367 288.265 132.329C288.265 132.291 288.297 132.253 288.328 132.253C288.36 132.253 288.391 132.291 288.391 132.329Z" fill="#6C46B0"/>
<path d="M274.531 82.2107C274.531 82.8599 274.082 83.3944 273.538 83.3944C272.994 83.3944 272.546 82.8599 272.546 82.2107C272.546 81.5615 272.994 81.0269 273.538 81.0269C274.082 81.0269 274.531 81.5615 274.531 82.2107Z" fill="#6C46B0"/>
<path d="M267.631 24.4355C267.631 24.5498 267.551 24.6641 267.439 24.6641C267.327 24.6641 267.248 24.5688 267.248 24.4355C267.248 24.3021 267.327 24.2069 267.439 24.2069C267.551 24.2069 267.631 24.3021 267.631 24.4355Z" fill="#6C46B0"/>
<path d="M247.607 177.637C247.607 178.286 247.175 178.802 246.63 178.802C246.086 178.802 245.654 178.286 245.654 177.637C245.654 176.988 246.086 176.473 246.63 176.473C247.175 176.473 247.607 176.988 247.607 177.637Z" fill="#6C46B0"/>
<path d="M224.157 26.4408C224.581 26.4408 224.925 26.0305 224.925 25.5244C224.925 25.0182 224.581 24.6079 224.157 24.6079C223.733 24.6079 223.389 25.0182 223.389 25.5244C223.389 26.0305 223.733 26.4408 224.157 26.4408Z" fill="#6C46B0"/>
<path d="M217.29 61.5531C217.369 61.5531 217.433 61.476 217.433 61.381C217.433 61.2859 217.369 61.2089 217.29 61.2089C217.21 61.2089 217.146 61.2859 217.146 61.381C217.146 61.476 217.21 61.5531 217.29 61.5531Z" fill="#6C46B0"/>
<path d="M211.847 146.611C211.847 147.203 211.447 147.68 210.951 147.68C210.455 147.68 210.055 147.203 210.055 146.611C210.055 146.019 210.455 145.542 210.951 145.542C211.447 145.542 211.847 146.019 211.847 146.611Z" fill="#6C46B0"/>
<path d="M203.829 13.4961C203.829 13.7634 203.652 13.9734 203.428 13.9734C203.204 13.9734 203.028 13.7634 203.028 13.4961C203.028 13.2288 203.204 13.0188 203.428 13.0188C203.652 13.0188 203.829 13.2288 203.829 13.4961Z" fill="#6C46B0"/>
<path d="M191.215 160.492C191.215 160.912 190.927 161.256 190.574 161.256C190.222 161.256 189.934 160.912 189.934 160.492C189.934 160.072 190.222 159.728 190.574 159.728C190.927 159.728 191.215 160.072 191.215 160.492Z" fill="#6C46B0"/>
<path d="M175.223 194.458C175.692 194.458 176.072 194.005 176.072 193.446C176.072 192.887 175.692 192.434 175.223 192.434C174.755 192.434 174.375 192.887 174.375 193.446C174.375 194.005 174.755 194.458 175.223 194.458Z" fill="#6C46B0"/>
<path d="M154.943 14.8131C155.217 14.8131 155.439 14.5481 155.439 14.2212C155.439 13.8944 155.217 13.6293 154.943 13.6293C154.669 13.6293 154.447 13.8944 154.447 14.2212C154.447 14.5481 154.669 14.8131 154.943 14.8131Z" fill="#6C46B0"/>
<path d="M143.098 9.06583C143.098 9.4095 142.858 9.6959 142.57 9.6959C142.282 9.6959 142.042 9.4095 142.042 9.06583C142.042 8.72216 142.282 8.43579 142.57 8.43579C142.858 8.43579 143.098 8.72216 143.098 9.06583Z" fill="#6C46B0"/>
<path d="M121.472 120.588C121.472 120.912 121.248 121.18 120.976 121.18C120.704 121.18 120.48 120.912 120.48 120.588C120.48 120.263 120.704 119.996 120.976 119.996C121.248 119.996 121.472 120.263 121.472 120.588Z" fill="#6C46B0"/>
</g>
<g filter="url(#filter0_d_563_7858)">
<path d="M242.26 176.842C266.764 176.842 287.28 159.766 292.556 136.863C294.011 130.55 299.125 125.229 305.603 125.229H459.27C465.748 125.229 471 130.481 471 136.959V207.341C471 213.819 465.748 219.071 459.27 219.071H21.7303C15.2518 219.071 10 213.819 10 207.341V136.959C10 130.481 15.2518 125.229 21.7303 125.229H178.916C185.394 125.229 190.509 130.55 191.963 136.863C197.239 159.766 217.755 176.842 242.26 176.842Z" fill="#432376"/>
</g>
<path d="M148.3 184.831C147.491 184.831 146.728 184.42 146.189 183.705L144.429 181.358C144.394 181.312 144.253 181.253 144.195 181.241H143.608C138.716 181.241 135.69 179.916 135.69 173.323V167.458C135.69 162.273 138.423 159.54 143.608 159.54H152.992C158.177 159.54 160.91 162.273 160.91 167.458V173.323C160.91 178.508 158.177 181.241 152.992 181.241H152.406C152.312 181.241 152.23 181.288 152.171 181.358L150.412 183.705C149.872 184.42 149.11 184.831 148.3 184.831ZM143.608 161.3C139.409 161.3 137.45 163.259 137.45 167.458V173.323C137.45 178.625 139.268 179.482 143.608 179.482H144.195C144.793 179.482 145.473 179.822 145.837 180.303L147.596 182.649C148.007 183.188 148.593 183.188 149.004 182.649L150.763 180.303C151.151 179.787 151.761 179.482 152.406 179.482H152.992C157.192 179.482 159.151 177.523 159.151 173.323V167.458C159.151 163.259 157.192 161.3 152.992 161.3H143.608Z" fill="#A881D9"/>
<path d="M154.165 168.338H142.435C141.954 168.338 141.555 167.939 141.555 167.458C141.555 166.977 141.954 166.578 142.435 166.578H154.165C154.646 166.578 155.045 166.977 155.045 167.458C155.045 167.939 154.646 168.338 154.165 168.338Z" fill="#A881D9"/>
<path d="M149.473 174.203H142.435C141.954 174.203 141.555 173.804 141.555 173.323C141.555 172.842 141.954 172.443 142.435 172.443H149.473C149.954 172.443 150.353 172.842 150.353 173.323C150.353 173.804 149.954 174.203 149.473 174.203Z" fill="#A881D9"/>
<g clip-path="url(#clip2_563_7858)">
<path d="M337.663 161.964C337.302 162.692 336.462 164.63 334.656 167.066C333.559 168.547 332.31 169.926 330.944 171.165C330.752 171.339 330.737 171.636 330.912 171.828C331.086 172.02 331.383 172.035 331.575 171.86C334.329 169.362 336.614 166.331 338.268 162.884C338.973 163.418 339.629 164.052 340.217 164.8C337.161 168.867 330.857 175.24 326.451 178.803C323.924 180.847 323.117 181.09 322.945 181.118C322.765 181.013 322.531 181.038 322.377 181.192C322.193 181.375 322.193 181.673 322.377 181.856C322.824 182.303 323.584 181.928 324.142 181.612C328.32 179.245 339.636 168.053 342.164 163.593C342.523 162.959 342.833 162.253 342.408 161.828C342.225 161.645 341.927 161.645 341.744 161.828C341.59 161.982 341.565 162.216 341.67 162.396C341.65 162.514 341.529 162.935 340.787 164.011C340.073 163.144 339.247 162.396 338.346 161.785C338.115 161.628 337.792 161.706 337.663 161.965L337.663 161.964Z" fill="#A881D9"/>
<path d="M323.159 178.598C323.543 178.598 323.772 178.151 323.528 177.839C322.642 176.706 322.023 175.441 321.664 174.123C325.234 171.934 328.356 169.159 330.969 165.886C331.131 165.684 331.098 165.388 330.896 165.226C330.693 165.065 330.397 165.098 330.236 165.3C327.78 168.374 324.843 171.026 321.449 173.151C320.877 169.852 321.883 166.352 324.394 163.842C327.377 160.859 331.842 159.931 335.769 161.477C336.01 161.573 336.282 161.454 336.378 161.213C336.473 160.972 336.354 160.699 336.113 160.604C331.838 158.921 326.978 159.932 323.73 163.179C319.616 167.291 319.212 173.842 322.788 178.417C322.88 178.536 323.019 178.598 323.158 178.598H323.159Z" fill="#A881D9"/>
<path d="M346.373 158.484C345.462 157.572 343.357 158.182 340.119 160.295C339.902 160.437 339.841 160.728 339.983 160.945C340.125 161.162 340.416 161.223 340.632 161.082C343.981 158.896 345.399 158.838 345.71 159.148C346.028 159.467 345.956 160.928 343.668 164.388C339.555 170.609 331.164 179 324.938 183.115C321.477 185.402 320.016 185.474 319.698 185.156C319.489 184.948 319.512 184.397 319.76 183.645C320.055 182.748 320.647 181.607 321.519 180.253C321.659 180.036 321.596 179.745 321.378 179.605C321.16 179.464 320.869 179.527 320.729 179.745C318.71 182.882 318.14 184.926 319.033 185.82C320.7 187.486 326.011 183.593 327.904 182.152C332.103 183.693 336.842 182.671 340.033 179.481C342.664 176.85 343.867 173.087 343.25 169.412C343.207 169.157 342.965 168.984 342.709 169.027C342.453 169.07 342.281 169.312 342.324 169.567C342.89 172.943 341.786 176.4 339.369 178.817C336.594 181.591 332.525 182.595 328.794 181.46C337.784 174.338 349.059 161.17 346.373 158.484Z" fill="#A881D9"/>
<path d="M327.168 175.781C327.276 175.781 327.384 175.744 327.473 175.668C328.124 175.11 328.78 174.538 329.421 173.967C329.614 173.795 329.632 173.498 329.459 173.304C329.287 173.111 328.99 173.093 328.797 173.266C328.16 173.833 327.509 174.401 326.862 174.956C326.53 175.24 326.735 175.781 327.168 175.781Z" fill="#A881D9"/>
<path d="M337.352 176.815C336.118 178.107 334.792 179.335 333.411 180.466C333.21 180.63 333.181 180.926 333.345 181.126C333.51 181.327 333.805 181.356 334.006 181.192C335.417 180.037 336.771 178.783 338.031 177.463C338.211 177.275 338.203 176.978 338.016 176.799C337.828 176.62 337.531 176.627 337.352 176.815Z" fill="#A881D9"/>
<path d="M339.259 174.907L339.004 175.163C338.821 175.346 338.821 175.643 339.004 175.827C339.187 176.01 339.484 176.01 339.667 175.827L339.923 175.571C340.106 175.388 340.106 175.09 339.923 174.907C339.74 174.724 339.443 174.724 339.259 174.907Z" fill="#A881D9"/>
</g>
<g filter="url(#filter1_d_563_7858)">
<path d="M242.259 124.134C252.356 124.134 260.562 115.878 260.48 105.761C260.397 95.6159 251.834 87.5483 241.689 87.6935C231.307 87.8432 221.586 92.0562 214.349 99.5763C207.304 106.898 203.426 116.741 203.553 126.902C203.68 137.055 207.694 146.581 214.887 153.775C216.351 155.239 217.91 156.569 219.552 157.764C220.623 158.543 222.032 157.398 221.491 156.191C220.214 153.352 219.504 150.203 219.504 146.891C219.504 134.342 229.712 124.133 242.261 124.133L242.259 124.134ZM241.706 97.4562C246.814 97.1296 251.043 101.359 250.717 106.467C250.446 110.689 247.036 114.099 242.814 114.37C237.707 114.697 233.477 110.467 233.804 105.359C234.074 101.137 237.484 97.7269 241.706 97.4562Z" fill="url(#paint0_linear_563_7858)"/>
</g>
<g filter="url(#filter2_d_563_7858)">
<path d="M269.632 99.0291C268.168 97.5653 266.609 96.2346 264.967 95.0399C263.896 94.2612 262.487 95.4059 263.028 96.6126C264.304 99.4525 265.015 102.601 265.015 105.913C265.015 118.462 254.807 128.671 242.258 128.671C232.162 128.671 223.955 136.928 224.037 147.044C224.119 157.161 232.683 165.256 242.827 165.111C253.209 164.962 262.93 160.749 270.167 153.228C277.212 145.906 281.092 136.063 280.963 125.902C280.835 115.742 276.822 106.223 269.629 99.0291H269.632ZM242.259 155.367C237.453 155.367 233.568 151.343 233.795 146.488C233.997 142.151 237.518 138.63 241.854 138.428C246.71 138.201 250.733 142.086 250.733 146.893C250.733 151.7 246.932 155.367 242.259 155.367Z" fill="url(#paint1_linear_563_7858)"/>
</g>
<g filter="url(#filter3_d_563_7858)">
<path d="M242.26 109.85C244.434 109.85 246.197 108.087 246.197 105.913C246.197 103.738 244.434 101.975 242.26 101.975C240.085 101.975 238.322 103.738 238.322 105.913C238.322 108.087 240.085 109.85 242.26 109.85Z" fill="url(#paint2_linear_563_7858)"/>
</g>
<g filter="url(#filter4_d_563_7858)">
<path d="M242.26 150.831C244.434 150.831 246.197 149.068 246.197 146.893C246.197 144.718 244.434 142.955 242.26 142.955C240.085 142.955 238.322 144.718 238.322 146.893C238.322 149.068 240.085 150.831 242.26 150.831Z" fill="url(#paint3_linear_563_7858)"/>
</g>
</g>
</g>
<rect x="109" y="1" width="266.243" height="266.243" rx="133.121" stroke="url(#paint4_linear_563_7858)" stroke-width="1.25907"/>
<rect x="389.316" y="51.4052" width="515.684" height="515.684" rx="257.842" fill="#A67DFF" fill-opacity="0.1"/>
<rect x="389.316" y="51.4052" width="515.684" height="515.684" rx="257.842" stroke="url(#paint5_linear_563_7858)" stroke-width="2.43868"/>
<defs>
<filter id="filter0_d_563_7858" x="-11.1145" y="87.6922" width="503.229" height="136.071" filterUnits="userSpaceOnUse" color-interpolation-filters="sRGB">
<feFlood flood-opacity="0" result="BackgroundImageFix"/>
<feColorMatrix in="SourceAlpha" type="matrix" values="0 0 0 0 0 0 0 0 0 0 0 0 0 0 0 0 0 0 127 0" result="hardAlpha"/>
<feOffset dy="-16.4224"/>
<feGaussianBlur stdDeviation="10.5573"/>
<feComposite in2="hardAlpha" operator="out"/>
<feColorMatrix type="matrix" values="0 0 0 0 0 0 0 0 0 0 0 0 0 0 0 0 0 0 0.22 0"/>
<feBlend mode="normal" in2="BackgroundImageFix" result="effect1_dropShadow_563_7858"/>
<feBlend mode="normal" in="SourceGraphic" in2="effect1_dropShadow_563_7858" result="shape"/>
</filter>
<filter id="filter1_d_563_7858" x="193.227" y="82.0611" width="77.5767" height="90.9726" filterUnits="userSpaceOnUse" color-interpolation-filters="sRGB">
<feFlood flood-opacity="0" result="BackgroundImageFix"/>
<feColorMatrix in="SourceAlpha" type="matrix" values="0 0 0 0 0 0 0 0 0 0 0 0 0 0 0 0 0 0 127 0" result="hardAlpha"/>
<feOffset dy="4.69211"/>
<feGaussianBlur stdDeviation="5.16132"/>
<feComposite in2="hardAlpha" operator="out"/>
<feColorMatrix type="matrix" values="0 0 0 0 0 0 0 0 0 0 0 0 0 0 0 0 0 0 0.24 0"/>
<feBlend mode="normal" in2="BackgroundImageFix" result="effect1_dropShadow_563_7858"/>
<feBlend mode="normal" in="SourceGraphic" in2="effect1_dropShadow_563_7858" result="shape"/>
</filter>
<filter id="filter2_d_563_7858" x="213.714" y="89.1546" width="77.5752" height="90.9726" filterUnits="userSpaceOnUse" color-interpolation-filters="sRGB">
<feFlood flood-opacity="0" result="BackgroundImageFix"/>
<feColorMatrix in="SourceAlpha" type="matrix" values="0 0 0 0 0 0 0 0 0 0 0 0 0 0 0 0 0 0 127 0" result="hardAlpha"/>
<feOffset dy="4.69211"/>
<feGaussianBlur stdDeviation="5.16132"/>
<feComposite in2="hardAlpha" operator="out"/>
<feColorMatrix type="matrix" values="0 0 0 0 0 0 0 0 0 0 0 0 0 0 0 0 0 0 0.24 0"/>
<feBlend mode="normal" in2="BackgroundImageFix" result="effect1_dropShadow_563_7858"/>
<feBlend mode="normal" in="SourceGraphic" in2="effect1_dropShadow_563_7858" result="shape"/>
</filter>
<filter id="filter3_d_563_7858" x="227.999" y="96.3443" width="28.5203" height="28.5208" filterUnits="userSpaceOnUse" color-interpolation-filters="sRGB">
<feFlood flood-opacity="0" result="BackgroundImageFix"/>
<feColorMatrix in="SourceAlpha" type="matrix" values="0 0 0 0 0 0 0 0 0 0 0 0 0 0 0 0 0 0 127 0" result="hardAlpha"/>
<feOffset dy="4.69211"/>
<feGaussianBlur stdDeviation="5.16132"/>
<feComposite in2="hardAlpha" operator="out"/>
<feColorMatrix type="matrix" values="0 0 0 0 0 0 0 0 0 0 0 0 0 0 0 0 0 0 0.24 0"/>
<feBlend mode="normal" in2="BackgroundImageFix" result="effect1_dropShadow_563_7858"/>
<feBlend mode="normal" in="SourceGraphic" in2="effect1_dropShadow_563_7858" result="shape"/>
</filter>
<filter id="filter4_d_563_7858" x="227.999" y="137.325" width="28.5203" height="28.5208" filterUnits="userSpaceOnUse" color-interpolation-filters="sRGB">
<feFlood flood-opacity="0" result="BackgroundImageFix"/>
<feColorMatrix in="SourceAlpha" type="matrix" values="0 0 0 0 0 0 0 0 0 0 0 0 0 0 0 0 0 0 127 0" result="hardAlpha"/>
<feOffset dy="4.69211"/>
<feGaussianBlur stdDeviation="5.16132"/>
<feComposite in2="hardAlpha" operator="out"/>
<feColorMatrix type="matrix" values="0 0 0 0 0 0 0 0 0 0 0 0 0 0 0 0 0 0 0.24 0"/>
<feBlend mode="normal" in2="BackgroundImageFix" result="effect1_dropShadow_563_7858"/>
<feBlend mode="normal" in="SourceGraphic" in2="effect1_dropShadow_563_7858" result="shape"/>
</filter>
<linearGradient id="paint0_linear_563_7858" x1="203.55" y1="87.6357" x2="266.574" y2="121.053" gradientUnits="userSpaceOnUse">
<stop stop-color="#FEE3FF"/>
<stop offset="1" stop-color="#FD98FF"/>
</linearGradient>
<linearGradient id="paint1_linear_563_7858" x1="225.23" y1="98.8621" x2="288.654" y2="107.296" gradientUnits="userSpaceOnUse">
<stop stop-color="#A881D9"/>
<stop offset="1" stop-color="#772DD6"/>
</linearGradient>
<linearGradient id="paint2_linear_563_7858" x1="238.487" y1="102.431" x2="247.181" y2="103.859" gradientUnits="userSpaceOnUse">
<stop stop-color="#A881D9"/>
<stop offset="1" stop-color="#772DD6"/>
</linearGradient>
<linearGradient id="paint3_linear_563_7858" x1="238.322" y1="142.949" x2="246.138" y2="148.068" gradientUnits="userSpaceOnUse">
<stop stop-color="#FEE3FF"/>
<stop offset="1" stop-color="#FD98FF"/>
</linearGradient>
<linearGradient id="paint4_linear_563_7858" x1="112.773" y1="0.999977" x2="405.776" y2="40.4593" gradientUnits="userSpaceOnUse">
<stop stop-color="#4D14A0"/>
<stop offset="0.166667" stop-color="#6F2ABB"/>
<stop offset="0.317699" stop-color="#8A33D8"/>
<stop offset="0.708333" stop-color="#7D1CC3"/>
<stop offset="1" stop-color="#680F9B"/>
</linearGradient>
<linearGradient id="paint5_linear_563_7858" x1="396.623" y1="51.4052" x2="964.14" y2="127.834" gradientUnits="userSpaceOnUse">
<stop stop-color="#4D14A0"/>
<stop offset="0.166667" stop-color="#6F2ABB"/>
<stop offset="0.317699" stop-color="#8A33D8"/>
<stop offset="0.708333" stop-color="#7D1CC3"/>
<stop offset="1" stop-color="#680F9B"/>
</linearGradient>
<clipPath id="clip0_563_7858">
<rect x="109" y="1" width="266.243" height="266.243" rx="133.121" fill="white"/>
</clipPath>
<clipPath id="clip1_563_7858">
<rect width="461" height="997.074" fill="white" transform="translate(10 -778)"/>
</clipPath>
<clipPath id="clip2_563_7858">
<rect width="28.1527" height="28.1527" fill="white" transform="translate(318.624 158.074)"/>
</clipPath>
</defs>
</svg>
