<svg width="24" height="24" viewBox="0 0 24 24" fill="none" xmlns="http://www.w3.org/2000/svg">
<path d="M20.5231 12.8909C20.7106 12.7034 20.8159 12.4491 20.8159 12.1839C20.8159 11.9187 20.7106 11.6644 20.5231 11.4769L14.8661 5.81989C14.7739 5.72438 14.6635 5.6482 14.5415 5.59579C14.4195 5.54338 14.2883 5.51579 14.1555 5.51464C14.0228 5.51349 13.8911 5.53879 13.7682 5.58907C13.6453 5.63935 13.5336 5.7136 13.4397 5.8075C13.3458 5.90139 13.2716 6.01304 13.2213 6.13594C13.171 6.25883 13.1457 6.39051 13.1469 6.52329C13.148 6.65607 13.1756 6.78729 13.228 6.90929C13.2804 7.0313 13.3566 7.14164 13.4521 7.23389L17.4021 11.1839L4.15913 11.1839C3.89391 11.1839 3.63956 11.2892 3.45202 11.4768C3.26449 11.6643 3.15913 11.9187 3.15913 12.1839C3.15913 12.4491 3.26449 12.7035 3.45202 12.891C3.63956 13.0785 3.89391 13.1839 4.15913 13.1839L17.4021 13.1839L13.4521 17.1339C13.27 17.3225 13.1692 17.5751 13.1715 17.8373C13.1737 18.0995 13.2789 18.3503 13.4643 18.5357C13.6497 18.7211 13.9005 18.8263 14.1627 18.8286C14.4249 18.8308 14.6775 18.73 14.8661 18.5479L20.5231 12.8909Z" fill="white"/>
</svg>