<svg width="24" height="24" viewBox="0 0 24 24" fill="none" xmlns="http://www.w3.org/2000/svg">
<path d="M3.45197 11.4523C3.2645 11.6399 3.15918 11.8942 3.15918 12.1593C3.15918 12.4245 3.2645 12.6788 3.45197 12.8663L9.10897 18.5233C9.20121 18.6188 9.31156 18.695 9.43356 18.7474C9.55557 18.7998 9.68679 18.8274 9.81957 18.8286C9.95234 18.8297 10.084 18.8044 10.2069 18.7541C10.3298 18.7039 10.4415 18.6296 10.5354 18.5357C10.6293 18.4418 10.7035 18.3302 10.7538 18.2073C10.8041 18.0844 10.8294 17.9527 10.8282 17.8199C10.8271 17.6871 10.7995 17.5559 10.7471 17.4339C10.6947 17.3119 10.6185 17.2016 10.523 17.1093L6.57297 13.1593L19.816 13.1593C20.0812 13.1593 20.3355 13.054 20.5231 12.8664C20.7106 12.6789 20.816 12.4245 20.816 12.1593C20.816 11.8941 20.7106 11.6398 20.5231 11.4522C20.3355 11.2647 20.0812 11.1593 19.816 11.1593L6.57297 11.1593L10.523 7.20932C10.7051 7.02072 10.8059 6.76812 10.8036 6.50593C10.8014 6.24373 10.6962 5.99292 10.5108 5.80751C10.3254 5.6221 10.0746 5.51693 9.81237 5.51465C9.55017 5.51237 9.29757 5.61317 9.10897 5.79533L3.45197 11.4523Z" fill="white"/>
</svg>