<svg width="42" height="42" viewBox="0 0 42 42" fill="none" xmlns="http://www.w3.org/2000/svg">
<g clip-path="url(#clip0_347_721)">
<path d="M32.7619 22.1955C32.7418 18.7529 34.289 16.1583 37.4135 14.2451C35.666 11.7212 33.0222 10.333 29.5373 10.0655C26.2375 9.80298 22.6274 12.0039 21.3055 12.0039C19.9085 12.0039 16.7139 10.1563 14.2003 10.1563C9.01294 10.2371 3.50006 14.3259 3.50006 22.6448C3.50006 25.1031 3.9457 27.6422 4.83697 30.257C6.02867 33.6996 10.3248 42.1347 14.8062 41.9984C17.1496 41.9428 18.8069 40.3225 21.8563 40.3225C24.8155 40.3225 26.3477 41.9984 28.9614 41.9984C33.4829 41.9327 37.3684 34.265 38.5001 30.8123C32.4364 27.9299 32.7619 22.3722 32.7619 22.1955ZM27.4993 6.79949C30.038 3.76067 29.8076 0.994433 29.7325 0C27.4893 0.131245 24.8956 1.5396 23.4185 3.27103C21.7912 5.12865 20.8348 7.42543 21.0401 10.015C23.4636 10.2018 25.6767 8.94484 27.4993 6.79949Z" fill="white"/>
</g>
<defs>
<clipPath id="clip0_347_721">
<rect width="42" height="42" fill="white"/>
</clipPath>
</defs>
</svg>
