<svg width="432" height="148" viewBox="0 0 432 148" fill="none" xmlns="http://www.w3.org/2000/svg">
<path d="M0 34.707C0 15.5389 15.5389 0 34.707 0H354.389C369.515 0 381.777 12.2623 381.777 27.3886C381.777 42.5149 369.515 54.7772 354.389 54.7772H1.89937C0.850368 54.7772 0 53.9268 0 52.8778V34.707Z" fill="url(#paint0_linear_658_7797)"/>
<path d="M24.5585 25.4637C24.2885 24.9437 23.9135 24.5537 23.4336 24.2937C22.9536 24.0237 22.3986 23.8887 21.7686 23.8887C21.0786 23.8887 20.4636 24.0437 19.9236 24.3537C19.3835 24.6637 18.9585 25.1037 18.6486 25.6737C18.3486 26.2437 18.1986 26.9037 18.1986 27.6537C18.1986 28.4037 18.3486 29.0687 18.6486 29.6487C18.9585 30.2187 19.3835 30.6587 19.9236 30.9687C20.4636 31.2787 21.0786 31.4337 21.7686 31.4337C22.6986 31.4337 23.4536 31.1737 24.0336 30.6537C24.6136 30.1337 24.9686 29.4287 25.0986 28.5387H21.1836V27.1737H26.9286V28.5087C26.8186 29.3187 26.5286 30.0637 26.0586 30.7437C25.5986 31.4237 24.9936 31.9687 24.2436 32.3787C23.5036 32.7787 22.6786 32.9787 21.7686 32.9787C20.7885 32.9787 19.8935 32.7537 19.0836 32.3037C18.2735 31.8437 17.6285 31.2087 17.1485 30.3987C16.6785 29.5887 16.4435 28.6737 16.4435 27.6537C16.4435 26.6337 16.6785 25.7187 17.1485 24.9087C17.6285 24.0987 18.2735 23.4687 19.0836 23.0187C19.9036 22.5587 20.7986 22.3287 21.7686 22.3287C22.8786 22.3287 23.8636 22.6037 24.7236 23.1537C25.5936 23.6937 26.2236 24.4637 26.6136 25.4637H24.5585ZM32.2001 33.0237C31.4201 33.0237 30.7151 32.8487 30.0851 32.4987C29.4551 32.1387 28.9601 31.6387 28.6001 30.9987C28.2401 30.3487 28.0601 29.5987 28.0601 28.7487C28.0601 27.9087 28.2451 27.1637 28.6151 26.5137C28.9851 25.8637 29.4901 25.3637 30.1301 25.0137C30.7701 24.6637 31.4851 24.4887 32.2751 24.4887C33.0651 24.4887 33.7801 24.6637 34.4201 25.0137C35.0601 25.3637 35.5651 25.8637 35.9351 26.5137C36.3051 27.1637 36.4901 27.9087 36.4901 28.7487C36.4901 29.5887 36.3001 30.3337 35.9201 30.9837C35.5401 31.6337 35.0201 32.1387 34.3601 32.4987C33.7101 32.8487 32.9901 33.0237 32.2001 33.0237ZM32.2001 31.5387C32.6401 31.5387 33.0501 31.4337 33.4301 31.2237C33.8201 31.0137 34.1351 30.6987 34.3751 30.2787C34.6151 29.8587 34.7351 29.3487 34.7351 28.7487C34.7351 28.1487 34.6201 27.6437 34.3901 27.2337C34.1601 26.8137 33.8551 26.4987 33.4751 26.2887C33.0951 26.0787 32.6851 25.9737 32.2451 25.9737C31.8051 25.9737 31.3951 26.0787 31.0151 26.2887C30.6451 26.4987 30.3501 26.8137 30.1301 27.2337C29.9101 27.6437 29.8001 28.1487 29.8001 28.7487C29.8001 29.6387 30.0251 30.3287 30.4751 30.8187C30.9351 31.2987 31.5101 31.5387 32.2001 31.5387ZM41.7655 33.0237C40.9855 33.0237 40.2805 32.8487 39.6505 32.4987C39.0205 32.1387 38.5255 31.6387 38.1655 30.9987C37.8055 30.3487 37.6255 29.5987 37.6255 28.7487C37.6255 27.9087 37.8105 27.1637 38.1805 26.5137C38.5505 25.8637 39.0555 25.3637 39.6955 25.0137C40.3355 24.6637 41.0505 24.4887 41.8405 24.4887C42.6305 24.4887 43.3455 24.6637 43.9855 25.0137C44.6255 25.3637 45.1305 25.8637 45.5005 26.5137C45.8705 27.1637 46.0555 27.9087 46.0555 28.7487C46.0555 29.5887 45.8655 30.3337 45.4855 30.9837C45.1055 31.6337 44.5855 32.1387 43.9255 32.4987C43.2755 32.8487 42.5555 33.0237 41.7655 33.0237ZM41.7655 31.5387C42.2055 31.5387 42.6155 31.4337 42.9955 31.2237C43.3855 31.0137 43.7005 30.6987 43.9405 30.2787C44.1805 29.8587 44.3005 29.3487 44.3005 28.7487C44.3005 28.1487 44.1855 27.6437 43.9555 27.2337C43.7255 26.8137 43.4205 26.4987 43.0405 26.2887C42.6605 26.0787 42.2505 25.9737 41.8105 25.9737C41.3705 25.9737 40.9605 26.0787 40.5805 26.2887C40.2105 26.4987 39.9155 26.8137 39.6955 27.2337C39.4755 27.6437 39.3655 28.1487 39.3655 28.7487C39.3655 29.6387 39.5905 30.3287 40.0405 30.8187C40.5005 31.2987 41.0755 31.5387 41.7655 31.5387ZM47.176 28.7187C47.176 27.8887 47.346 27.1537 47.686 26.5137C48.036 25.8737 48.506 25.3787 49.096 25.0287C49.696 24.6687 50.361 24.4887 51.091 24.4887C51.631 24.4887 52.161 24.6087 52.681 24.8487C53.211 25.0787 53.631 25.3887 53.941 25.7787V21.7887H55.666V32.8887H53.941V31.6437C53.661 32.0437 53.271 32.3737 52.771 32.6337C52.281 32.8937 51.716 33.0237 51.076 33.0237C50.356 33.0237 49.696 32.8437 49.096 32.4837C48.506 32.1137 48.036 31.6037 47.686 30.9537C47.346 30.2937 47.176 29.5487 47.176 28.7187ZM53.941 28.7487C53.941 28.1787 53.821 27.6837 53.581 27.2637C53.351 26.8437 53.046 26.5237 52.666 26.3037C52.286 26.0837 51.876 25.9737 51.436 25.9737C50.996 25.9737 50.586 26.0837 50.206 26.3037C49.826 26.5137 49.516 26.8287 49.276 27.2487C49.046 27.6587 48.931 28.1487 48.931 28.7187C48.931 29.2887 49.046 29.7887 49.276 30.2187C49.516 30.6487 49.826 30.9787 50.206 31.2087C50.596 31.4287 51.006 31.5387 51.436 31.5387C51.876 31.5387 52.286 31.4287 52.666 31.2087C53.046 30.9887 53.351 30.6687 53.581 30.2487C53.821 29.8187 53.941 29.3187 53.941 28.7487ZM59.787 30.8337L57.972 34.9737H56.862L57.927 30.8337H59.787ZM66.8876 25.8537C67.1776 25.4537 67.5726 25.1287 68.0726 24.8787C68.5826 24.6187 69.1476 24.4887 69.7676 24.4887C70.4976 24.4887 71.1576 24.6637 71.7476 25.0137C72.3376 25.3637 72.8026 25.8637 73.1426 26.5137C73.4826 27.1537 73.6526 27.8887 73.6526 28.7187C73.6526 29.5487 73.4826 30.2937 73.1426 30.9537C72.8026 31.6037 72.3326 32.1137 71.7326 32.4837C71.1426 32.8437 70.4876 33.0237 69.7676 33.0237C69.1276 33.0237 68.5576 32.8987 68.0576 32.6487C67.5676 32.3987 67.1776 32.0787 66.8876 31.6887V32.8887H65.1776V21.7887H66.8876V25.8537ZM71.9126 28.7187C71.9126 28.1487 71.7926 27.6587 71.5526 27.2487C71.3226 26.8287 71.0126 26.5137 70.6226 26.3037C70.2426 26.0837 69.8326 25.9737 69.3926 25.9737C68.9626 25.9737 68.5526 26.0837 68.1626 26.3037C67.7826 26.5237 67.4726 26.8437 67.2326 27.2637C67.0026 27.6837 66.8876 28.1787 66.8876 28.7487C66.8876 29.3187 67.0026 29.8187 67.2326 30.2487C67.4726 30.6687 67.7826 30.9887 68.1626 31.2087C68.5526 31.4287 68.9626 31.5387 69.3926 31.5387C69.8326 31.5387 70.2426 31.4287 70.6226 31.2087C71.0126 30.9787 71.3226 30.6487 71.5526 30.2187C71.7926 29.7887 71.9126 29.2887 71.9126 28.7187ZM82.9186 28.5537C82.9186 28.8637 82.8986 29.1437 82.8586 29.3937H76.5436C76.5936 30.0537 76.8386 30.5837 77.2786 30.9837C77.7186 31.3837 78.2586 31.5837 78.8986 31.5837C79.8186 31.5837 80.4686 31.1987 80.8486 30.4287H82.6936C82.4436 31.1887 81.9886 31.8137 81.3286 32.3037C80.6786 32.7837 79.8686 33.0237 78.8986 33.0237C78.1086 33.0237 77.3986 32.8487 76.7686 32.4987C76.1486 32.1387 75.6586 31.6387 75.2986 30.9987C74.9486 30.3487 74.7736 29.5987 74.7736 28.7487C74.7736 27.8987 74.9436 27.1537 75.2836 26.5137C75.6336 25.8637 76.1186 25.3637 76.7386 25.0137C77.3686 24.6637 78.0886 24.4887 78.8986 24.4887C79.6786 24.4887 80.3736 24.6587 80.9836 24.9987C81.5936 25.3387 82.0686 25.8187 82.4086 26.4387C82.7486 27.0487 82.9186 27.7537 82.9186 28.5537ZM81.1336 28.0137C81.1236 27.3837 80.8986 26.8787 80.4586 26.4987C80.0186 26.1187 79.4736 25.9287 78.8236 25.9287C78.2336 25.9287 77.7286 26.1187 77.3086 26.4987C76.8886 26.8687 76.6386 27.3737 76.5586 28.0137H81.1336ZM84.0314 28.7487C84.0314 27.8987 84.2014 27.1537 84.5414 26.5137C84.8914 25.8637 85.3714 25.3637 85.9814 25.0137C86.5914 24.6637 87.2914 24.4887 88.0814 24.4887C89.0814 24.4887 89.9064 24.7287 90.5564 25.2087C91.2164 25.6787 91.6614 26.3537 91.8914 27.2337H90.0464C89.8964 26.8237 89.6564 26.5037 89.3264 26.2737C88.9964 26.0437 88.5814 25.9287 88.0814 25.9287C87.3814 25.9287 86.8214 26.1787 86.4014 26.6787C85.9914 27.1687 85.7864 27.8587 85.7864 28.7487C85.7864 29.6387 85.9914 30.3337 86.4014 30.8337C86.8214 31.3337 87.3814 31.5837 88.0814 31.5837C89.0714 31.5837 89.7264 31.1487 90.0464 30.2787H91.8914C91.6514 31.1187 91.2014 31.7887 90.5414 32.2887C89.8814 32.7787 89.0614 33.0237 88.0814 33.0237C87.2914 33.0237 86.5914 32.8487 85.9814 32.4987C85.3714 32.1387 84.8914 31.6387 84.5414 30.9987C84.2014 30.3487 84.0314 29.5987 84.0314 28.7487ZM93.0256 28.7187C93.0256 27.8887 93.1956 27.1537 93.5356 26.5137C93.8856 25.8737 94.3556 25.3787 94.9456 25.0287C95.5456 24.6687 96.2056 24.4887 96.9256 24.4887C97.5756 24.4887 98.1406 24.6187 98.6206 24.8787C99.1106 25.1287 99.5006 25.4437 99.7906 25.8237V24.6237H101.516V32.8887H99.7906V31.6587C99.5006 32.0487 99.1056 32.3737 98.6056 32.6337C98.1056 32.8937 97.5356 33.0237 96.8956 33.0237C96.1856 33.0237 95.5356 32.8437 94.9456 32.4837C94.3556 32.1137 93.8856 31.6037 93.5356 30.9537C93.1956 30.2937 93.0256 29.5487 93.0256 28.7187ZM99.7906 28.7487C99.7906 28.1787 99.6706 27.6837 99.4306 27.2637C99.2006 26.8437 98.8956 26.5237 98.5156 26.3037C98.1356 26.0837 97.7256 25.9737 97.2856 25.9737C96.8456 25.9737 96.4356 26.0837 96.0556 26.3037C95.6756 26.5137 95.3656 26.8287 95.1256 27.2487C94.8956 27.6587 94.7806 28.1487 94.7806 28.7187C94.7806 29.2887 94.8956 29.7887 95.1256 30.2187C95.3656 30.6487 95.6756 30.9787 96.0556 31.2087C96.4456 31.4287 96.8556 31.5387 97.2856 31.5387C97.7256 31.5387 98.1356 31.4287 98.5156 31.2087C98.8956 30.9887 99.2006 30.6687 99.4306 30.2487C99.6706 29.8187 99.7906 29.3187 99.7906 28.7487ZM111.247 24.6237V32.8887H109.537V31.9137C109.267 32.2537 108.912 32.5237 108.472 32.7237C108.042 32.9137 107.582 33.0087 107.092 33.0087C106.442 33.0087 105.857 32.8737 105.337 32.6037C104.827 32.3337 104.422 31.9337 104.122 31.4037C103.832 30.8737 103.687 30.2337 103.687 29.4837V24.6237H105.382V29.2287C105.382 29.9687 105.567 30.5387 105.937 30.9387C106.307 31.3287 106.812 31.5237 107.452 31.5237C108.092 31.5237 108.597 31.3287 108.967 30.9387C109.347 30.5387 109.537 29.9687 109.537 29.2287V24.6237H111.247ZM116.503 33.0237C115.853 33.0237 115.268 32.9087 114.748 32.6787C114.238 32.4387 113.833 32.1187 113.533 31.7187C113.233 31.3087 113.073 30.8537 113.053 30.3537H114.823C114.853 30.7037 115.018 30.9987 115.318 31.2387C115.628 31.4687 116.013 31.5837 116.473 31.5837C116.953 31.5837 117.323 31.4937 117.583 31.3137C117.853 31.1237 117.988 30.8837 117.988 30.5937C117.988 30.2837 117.838 30.0537 117.538 29.9037C117.248 29.7537 116.783 29.5887 116.143 29.4087C115.523 29.2387 115.018 29.0737 114.628 28.9137C114.238 28.7537 113.898 28.5087 113.608 28.1787C113.328 27.8487 113.188 27.4137 113.188 26.8737C113.188 26.4337 113.318 26.0337 113.578 25.6737C113.838 25.3037 114.208 25.0137 114.688 24.8037C115.178 24.5937 115.738 24.4887 116.368 24.4887C117.308 24.4887 118.063 24.7287 118.633 25.2087C119.213 25.6787 119.523 26.3237 119.563 27.1437H117.853C117.823 26.7737 117.673 26.4787 117.403 26.2587C117.133 26.0387 116.768 25.9287 116.308 25.9287C115.858 25.9287 115.513 26.0137 115.273 26.1837C115.033 26.3537 114.913 26.5787 114.913 26.8587C114.913 27.0787 114.993 27.2637 115.153 27.4137C115.313 27.5637 115.508 27.6837 115.738 27.7737C115.968 27.8537 116.308 27.9587 116.758 28.0887C117.358 28.2487 117.848 28.4137 118.228 28.5837C118.618 28.7437 118.953 28.9837 119.233 29.3037C119.513 29.6237 119.658 30.0487 119.668 30.5787C119.668 31.0487 119.538 31.4687 119.278 31.8387C119.018 32.2087 118.648 32.4987 118.168 32.7087C117.698 32.9187 117.143 33.0237 116.503 33.0237ZM129.091 28.5537C129.091 28.8637 129.071 29.1437 129.031 29.3937H122.716C122.766 30.0537 123.011 30.5837 123.451 30.9837C123.891 31.3837 124.431 31.5837 125.071 31.5837C125.991 31.5837 126.641 31.1987 127.021 30.4287H128.866C128.616 31.1887 128.161 31.8137 127.501 32.3037C126.851 32.7837 126.041 33.0237 125.071 33.0237C124.281 33.0237 123.571 32.8487 122.941 32.4987C122.321 32.1387 121.831 31.6387 121.471 30.9987C121.121 30.3487 120.946 29.5987 120.946 28.7487C120.946 27.8987 121.116 27.1537 121.456 26.5137C121.806 25.8637 122.291 25.3637 122.911 25.0137C123.541 24.6637 124.261 24.4887 125.071 24.4887C125.851 24.4887 126.546 24.6587 127.156 24.9987C127.766 25.3387 128.241 25.8187 128.581 26.4387C128.921 27.0487 129.091 27.7537 129.091 28.5537ZM127.306 28.0137C127.296 27.3837 127.071 26.8787 126.631 26.4987C126.191 26.1187 125.646 25.9287 124.996 25.9287C124.406 25.9287 123.901 26.1187 123.481 26.4987C123.061 26.8687 122.811 27.3737 122.731 28.0137H127.306ZM136.38 22.4637V32.8887H134.67V22.4637H136.38ZM141.951 28.7187C141.951 27.8887 142.121 27.1537 142.461 26.5137C142.811 25.8737 143.281 25.3787 143.871 25.0287C144.471 24.6687 145.136 24.4887 145.866 24.4887C146.406 24.4887 146.936 24.6087 147.456 24.8487C147.986 25.0787 148.406 25.3887 148.716 25.7787V21.7887H150.441V32.8887H148.716V31.6437C148.436 32.0437 148.046 32.3737 147.546 32.6337C147.056 32.8937 146.491 33.0237 145.851 33.0237C145.131 33.0237 144.471 32.8437 143.871 32.4837C143.281 32.1137 142.811 31.6037 142.461 30.9537C142.121 30.2937 141.951 29.5487 141.951 28.7187ZM148.716 28.7487C148.716 28.1787 148.596 27.6837 148.356 27.2637C148.126 26.8437 147.821 26.5237 147.441 26.3037C147.061 26.0837 146.651 25.9737 146.211 25.9737C145.771 25.9737 145.361 26.0837 144.981 26.3037C144.601 26.5137 144.291 26.8287 144.051 27.2487C143.821 27.6587 143.706 28.1487 143.706 28.7187C143.706 29.2887 143.821 29.7887 144.051 30.2187C144.291 30.6487 144.601 30.9787 144.981 31.2087C145.371 31.4287 145.781 31.5387 146.211 31.5387C146.651 31.5387 147.061 31.4287 147.441 31.2087C147.821 30.9887 148.126 30.6687 148.356 30.2487C148.596 29.8187 148.716 29.3187 148.716 28.7487ZM154.397 25.8237C154.647 25.4037 154.977 25.0787 155.387 24.8487C155.807 24.6087 156.302 24.4887 156.872 24.4887V26.2587H156.437C155.767 26.2587 155.257 26.4287 154.907 26.7687C154.567 27.1087 154.397 27.6987 154.397 28.5387V32.8887H152.687V24.6237H154.397V25.8237ZM166.019 28.5537C166.019 28.8637 165.999 29.1437 165.959 29.3937H159.644C159.694 30.0537 159.939 30.5837 160.379 30.9837C160.819 31.3837 161.359 31.5837 161.999 31.5837C162.919 31.5837 163.569 31.1987 163.949 30.4287H165.794C165.544 31.1887 165.089 31.8137 164.429 32.3037C163.779 32.7837 162.969 33.0237 161.999 33.0237C161.209 33.0237 160.499 32.8487 159.869 32.4987C159.249 32.1387 158.759 31.6387 158.399 30.9987C158.049 30.3487 157.874 29.5987 157.874 28.7487C157.874 27.8987 158.044 27.1537 158.384 26.5137C158.734 25.8637 159.219 25.3637 159.839 25.0137C160.469 24.6637 161.189 24.4887 161.999 24.4887C162.779 24.4887 163.474 24.6587 164.084 24.9987C164.694 25.3387 165.169 25.8187 165.509 26.4387C165.849 27.0487 166.019 27.7537 166.019 28.5537ZM164.234 28.0137C164.224 27.3837 163.999 26.8787 163.559 26.4987C163.119 26.1187 162.574 25.9287 161.924 25.9287C161.334 25.9287 160.829 26.1187 160.409 26.4987C159.989 26.8687 159.739 27.3737 159.659 28.0137H164.234ZM167.132 28.7187C167.132 27.8887 167.302 27.1537 167.642 26.5137C167.992 25.8737 168.462 25.3787 169.052 25.0287C169.652 24.6687 170.312 24.4887 171.032 24.4887C171.682 24.4887 172.247 24.6187 172.727 24.8787C173.217 25.1287 173.607 25.4437 173.897 25.8237V24.6237H175.622V32.8887H173.897V31.6587C173.607 32.0487 173.212 32.3737 172.712 32.6337C172.212 32.8937 171.642 33.0237 171.002 33.0237C170.292 33.0237 169.642 32.8437 169.052 32.4837C168.462 32.1137 167.992 31.6037 167.642 30.9537C167.302 30.2937 167.132 29.5487 167.132 28.7187ZM173.897 28.7487C173.897 28.1787 173.777 27.6837 173.537 27.2637C173.307 26.8437 173.002 26.5237 172.622 26.3037C172.242 26.0837 171.832 25.9737 171.392 25.9737C170.952 25.9737 170.542 26.0837 170.162 26.3037C169.782 26.5137 169.472 26.8287 169.232 27.2487C169.002 27.6587 168.887 28.1487 168.887 28.7187C168.887 29.2887 169.002 29.7887 169.232 30.2187C169.472 30.6487 169.782 30.9787 170.162 31.2087C170.552 31.4287 170.962 31.5387 171.392 31.5387C171.832 31.5387 172.242 31.4287 172.622 31.2087C173.002 30.9887 173.307 30.6687 173.537 30.2487C173.777 29.8187 173.897 29.3187 173.897 28.7487ZM187.873 24.4887C188.523 24.4887 189.103 24.6237 189.613 24.8937C190.133 25.1637 190.538 25.5637 190.828 26.0937C191.128 26.6237 191.278 27.2637 191.278 28.0137V32.8887H189.583V28.2687C189.583 27.5287 189.398 26.9637 189.028 26.5737C188.658 26.1737 188.153 25.9737 187.513 25.9737C186.873 25.9737 186.363 26.1737 185.983 26.5737C185.613 26.9637 185.428 27.5287 185.428 28.2687V32.8887H183.733V28.2687C183.733 27.5287 183.548 26.9637 183.178 26.5737C182.808 26.1737 182.303 25.9737 181.663 25.9737C181.023 25.9737 180.513 26.1737 180.133 26.5737C179.763 26.9637 179.578 27.5287 179.578 28.2687V32.8887H177.868V24.6237H179.578V25.5687C179.858 25.2287 180.213 24.9637 180.643 24.7737C181.073 24.5837 181.533 24.4887 182.023 24.4887C182.683 24.4887 183.273 24.6287 183.793 24.9087C184.313 25.1887 184.713 25.5937 184.993 26.1237C185.243 25.6237 185.633 25.2287 186.163 24.9387C186.693 24.6387 187.263 24.4887 187.873 24.4887ZM195.449 26.0187V30.5937C195.449 30.9037 195.519 31.1287 195.659 31.2687C195.809 31.3987 196.059 31.4637 196.409 31.4637H197.459V32.8887H196.109C195.339 32.8887 194.749 32.7087 194.339 32.3487C193.929 31.9887 193.724 31.4037 193.724 30.5937V26.0187H192.749V24.6237H193.724V22.5687H195.449V24.6237H197.459V26.0187H195.449ZM206.517 33.0237C205.737 33.0237 205.032 32.8487 204.402 32.4987C203.772 32.1387 203.277 31.6387 202.917 30.9987C202.557 30.3487 202.377 29.5987 202.377 28.7487C202.377 27.9087 202.562 27.1637 202.932 26.5137C203.302 25.8637 203.807 25.3637 204.447 25.0137C205.087 24.6637 205.802 24.4887 206.592 24.4887C207.382 24.4887 208.097 24.6637 208.737 25.0137C209.377 25.3637 209.882 25.8637 210.252 26.5137C210.622 27.1637 210.807 27.9087 210.807 28.7487C210.807 29.5887 210.617 30.3337 210.237 30.9837C209.857 31.6337 209.337 32.1387 208.677 32.4987C208.027 32.8487 207.307 33.0237 206.517 33.0237ZM206.517 31.5387C206.957 31.5387 207.367 31.4337 207.747 31.2237C208.137 31.0137 208.452 30.6987 208.692 30.2787C208.932 29.8587 209.052 29.3487 209.052 28.7487C209.052 28.1487 208.937 27.6437 208.707 27.2337C208.477 26.8137 208.172 26.4987 207.792 26.2887C207.412 26.0787 207.002 25.9737 206.562 25.9737C206.122 25.9737 205.712 26.0787 205.332 26.2887C204.962 26.4987 204.667 26.8137 204.447 27.2337C204.227 27.6437 204.117 28.1487 204.117 28.7487C204.117 29.6387 204.342 30.3287 204.792 30.8187C205.252 31.2987 205.827 31.5387 206.517 31.5387ZM215.962 26.0187H214.432V32.8887H212.707V26.0187H211.732V24.6237H212.707V24.0387C212.707 23.0887 212.957 22.3987 213.457 21.9687C213.967 21.5287 214.762 21.3087 215.842 21.3087V22.7337C215.322 22.7337 214.957 22.8337 214.747 23.0337C214.537 23.2237 214.432 23.5587 214.432 24.0387V24.6237H215.962V26.0187ZM223.084 25.8537C223.374 25.4537 223.769 25.1287 224.269 24.8787C224.779 24.6187 225.344 24.4887 225.964 24.4887C226.694 24.4887 227.354 24.6637 227.944 25.0137C228.534 25.3637 228.999 25.8637 229.339 26.5137C229.679 27.1537 229.849 27.8887 229.849 28.7187C229.849 29.5487 229.679 30.2937 229.339 30.9537C228.999 31.6037 228.529 32.1137 227.929 32.4837C227.339 32.8437 226.684 33.0237 225.964 33.0237C225.324 33.0237 224.754 32.8987 224.254 32.6487C223.764 32.3987 223.374 32.0787 223.084 31.6887V32.8887H221.374V21.7887H223.084V25.8537ZM228.109 28.7187C228.109 28.1487 227.989 27.6587 227.749 27.2487C227.519 26.8287 227.209 26.5137 226.819 26.3037C226.439 26.0837 226.029 25.9737 225.589 25.9737C225.159 25.9737 224.749 26.0837 224.359 26.3037C223.979 26.5237 223.669 26.8437 223.429 27.2637C223.199 27.6837 223.084 28.1787 223.084 28.7487C223.084 29.3187 223.199 29.8187 223.429 30.2487C223.669 30.6687 223.979 30.9887 224.359 31.2087C224.749 31.4287 225.159 31.5387 225.589 31.5387C226.029 31.5387 226.439 31.4287 226.819 31.2087C227.209 30.9787 227.519 30.6487 227.749 30.2187C227.989 29.7887 228.109 29.2887 228.109 28.7187ZM239.115 28.5537C239.115 28.8637 239.095 29.1437 239.055 29.3937H232.74C232.79 30.0537 233.035 30.5837 233.475 30.9837C233.915 31.3837 234.455 31.5837 235.095 31.5837C236.015 31.5837 236.665 31.1987 237.045 30.4287H238.89C238.64 31.1887 238.185 31.8137 237.525 32.3037C236.875 32.7837 236.065 33.0237 235.095 33.0237C234.305 33.0237 233.595 32.8487 232.965 32.4987C232.345 32.1387 231.855 31.6387 231.495 30.9987C231.145 30.3487 230.97 29.5987 230.97 28.7487C230.97 27.8987 231.14 27.1537 231.48 26.5137C231.83 25.8637 232.315 25.3637 232.935 25.0137C233.565 24.6637 234.285 24.4887 235.095 24.4887C235.875 24.4887 236.57 24.6587 237.18 24.9987C237.79 25.3387 238.265 25.8187 238.605 26.4387C238.945 27.0487 239.115 27.7537 239.115 28.5537ZM237.33 28.0137C237.32 27.3837 237.095 26.8787 236.655 26.4987C236.215 26.1187 235.67 25.9287 235.02 25.9287C234.43 25.9287 233.925 26.1187 233.505 26.4987C233.085 26.8687 232.835 27.3737 232.755 28.0137H237.33ZM241.668 23.5287C241.358 23.5287 241.098 23.4237 240.888 23.2137C240.678 23.0037 240.573 22.7437 240.573 22.4337C240.573 22.1237 240.678 21.8637 240.888 21.6537C241.098 21.4437 241.358 21.3387 241.668 21.3387C241.968 21.3387 242.223 21.4437 242.433 21.6537C242.643 21.8637 242.748 22.1237 242.748 22.4337C242.748 22.7437 242.643 23.0037 242.433 23.2137C242.223 23.4237 241.968 23.5287 241.668 23.5287ZM242.508 24.6237V32.8887H240.798V24.6237H242.508ZM248.923 24.4887C249.573 24.4887 250.153 24.6237 250.663 24.8937C251.183 25.1637 251.588 25.5637 251.878 26.0937C252.168 26.6237 252.313 27.2637 252.313 28.0137V32.8887H250.618V28.2687C250.618 27.5287 250.433 26.9637 250.063 26.5737C249.693 26.1737 249.188 25.9737 248.548 25.9737C247.908 25.9737 247.398 26.1737 247.018 26.5737C246.648 26.9637 246.463 27.5287 246.463 28.2687V32.8887H244.753V24.6237H246.463V25.5687C246.743 25.2287 247.098 24.9637 247.528 24.7737C247.968 24.5837 248.433 24.4887 248.923 24.4887ZM257.824 24.4887C258.464 24.4887 259.029 24.6187 259.519 24.8787C260.019 25.1287 260.409 25.4437 260.689 25.8237V24.6237H262.414V33.0237C262.414 33.7837 262.254 34.4587 261.934 35.0487C261.614 35.6487 261.149 36.1187 260.539 36.4587C259.939 36.7987 259.219 36.9687 258.379 36.9687C257.259 36.9687 256.329 36.7037 255.589 36.1737C254.849 35.6537 254.429 34.9437 254.329 34.0437H256.024C256.154 34.4737 256.429 34.8187 256.849 35.0787C257.279 35.3487 257.789 35.4837 258.379 35.4837C259.069 35.4837 259.624 35.2737 260.044 34.8537C260.474 34.4337 260.689 33.8237 260.689 33.0237V31.6437C260.399 32.0337 260.004 32.3637 259.504 32.6337C259.014 32.8937 258.454 33.0237 257.824 33.0237C257.104 33.0237 256.444 32.8437 255.844 32.4837C255.254 32.1137 254.784 31.6037 254.434 30.9537C254.094 30.2937 253.924 29.5487 253.924 28.7187C253.924 27.8887 254.094 27.1537 254.434 26.5137C254.784 25.8737 255.254 25.3787 255.844 25.0287C256.444 24.6687 257.104 24.4887 257.824 24.4887ZM260.689 28.7487C260.689 28.1787 260.569 27.6837 260.329 27.2637C260.099 26.8437 259.794 26.5237 259.414 26.3037C259.034 26.0837 258.624 25.9737 258.184 25.9737C257.744 25.9737 257.334 26.0837 256.954 26.3037C256.574 26.5137 256.264 26.8287 256.024 27.2487C255.794 27.6587 255.679 28.1487 255.679 28.7187C255.679 29.2887 255.794 29.7887 256.024 30.2187C256.264 30.6487 256.574 30.9787 256.954 31.2087C257.344 31.4287 257.754 31.5387 258.184 31.5387C258.624 31.5387 259.034 31.4287 259.414 31.2087C259.794 30.9887 260.099 30.6687 260.329 30.2487C260.569 29.8187 260.689 29.3187 260.689 28.7487ZM267.987 28.7187C267.987 27.8887 268.157 27.1537 268.497 26.5137C268.847 25.8737 269.317 25.3787 269.907 25.0287C270.507 24.6687 271.167 24.4887 271.887 24.4887C272.537 24.4887 273.102 24.6187 273.582 24.8787C274.072 25.1287 274.462 25.4437 274.752 25.8237V24.6237H276.477V32.8887H274.752V31.6587C274.462 32.0487 274.067 32.3737 273.567 32.6337C273.067 32.8937 272.497 33.0237 271.857 33.0237C271.147 33.0237 270.497 32.8437 269.907 32.4837C269.317 32.1137 268.847 31.6037 268.497 30.9537C268.157 30.2937 267.987 29.5487 267.987 28.7187ZM274.752 28.7487C274.752 28.1787 274.632 27.6837 274.392 27.2637C274.162 26.8437 273.857 26.5237 273.477 26.3037C273.097 26.0837 272.687 25.9737 272.247 25.9737C271.807 25.9737 271.397 26.0837 271.017 26.3037C270.637 26.5137 270.327 26.8287 270.087 27.2487C269.857 27.6587 269.742 28.1487 269.742 28.7187C269.742 29.2887 269.857 29.7887 270.087 30.2187C270.327 30.6487 270.637 30.9787 271.017 31.2087C271.407 31.4287 271.817 31.5387 272.247 31.5387C272.687 31.5387 273.097 31.4287 273.477 31.2087C273.857 30.9887 274.162 30.6687 274.392 30.2487C274.632 29.8187 274.752 29.3187 274.752 28.7487ZM292.624 24.4887C293.274 24.4887 293.854 24.6237 294.364 24.8937C294.884 25.1637 295.289 25.5637 295.579 26.0937C295.879 26.6237 296.029 27.2637 296.029 28.0137V32.8887H294.334V28.2687C294.334 27.5287 294.149 26.9637 293.779 26.5737C293.409 26.1737 292.904 25.9737 292.264 25.9737C291.624 25.9737 291.114 26.1737 290.734 26.5737C290.364 26.9637 290.179 27.5287 290.179 28.2687V32.8887H288.484V28.2687C288.484 27.5287 288.299 26.9637 287.929 26.5737C287.559 26.1737 287.054 25.9737 286.414 25.9737C285.774 25.9737 285.264 26.1737 284.884 26.5737C284.514 26.9637 284.329 27.5287 284.329 28.2687V32.8887H282.619V24.6237H284.329V25.5687C284.609 25.2287 284.964 24.9637 285.394 24.7737C285.824 24.5837 286.284 24.4887 286.774 24.4887C287.434 24.4887 288.024 24.6287 288.544 24.9087C289.064 25.1887 289.464 25.5937 289.744 26.1237C289.994 25.6237 290.384 25.2287 290.914 24.9387C291.444 24.6387 292.014 24.4887 292.624 24.4887ZM299.075 23.5287C298.765 23.5287 298.505 23.4237 298.295 23.2137C298.085 23.0037 297.98 22.7437 297.98 22.4337C297.98 22.1237 298.085 21.8637 298.295 21.6537C298.505 21.4437 298.765 21.3387 299.075 21.3387C299.375 21.3387 299.63 21.4437 299.84 21.6537C300.05 21.8637 300.155 22.1237 300.155 22.4337C300.155 22.7437 300.05 23.0037 299.84 23.2137C299.63 23.4237 299.375 23.5287 299.075 23.5287ZM299.915 24.6237V32.8887H298.205V24.6237H299.915ZM303.87 21.7887V32.8887H302.16V21.7887H303.87ZM307.825 21.7887V32.8887H306.115V21.7887H307.825ZM310.94 23.5287C310.63 23.5287 310.37 23.4237 310.16 23.2137C309.95 23.0037 309.845 22.7437 309.845 22.4337C309.845 22.1237 309.95 21.8637 310.16 21.6537C310.37 21.4437 310.63 21.3387 310.94 21.3387C311.24 21.3387 311.495 21.4437 311.705 21.6537C311.915 21.8637 312.02 22.1237 312.02 22.4337C312.02 22.7437 311.915 23.0037 311.705 23.2137C311.495 23.4237 311.24 23.5287 310.94 23.5287ZM311.78 24.6237V32.8887H310.07V24.6237H311.78ZM317.61 33.0237C316.83 33.0237 316.125 32.8487 315.495 32.4987C314.865 32.1387 314.37 31.6387 314.01 30.9987C313.65 30.3487 313.47 29.5987 313.47 28.7487C313.47 27.9087 313.655 27.1637 314.025 26.5137C314.395 25.8637 314.9 25.3637 315.54 25.0137C316.18 24.6637 316.895 24.4887 317.685 24.4887C318.475 24.4887 319.19 24.6637 319.83 25.0137C320.47 25.3637 320.975 25.8637 321.345 26.5137C321.715 27.1637 321.9 27.9087 321.9 28.7487C321.9 29.5887 321.71 30.3337 321.33 30.9837C320.95 31.6337 320.43 32.1387 319.77 32.4987C319.12 32.8487 318.4 33.0237 317.61 33.0237ZM317.61 31.5387C318.05 31.5387 318.46 31.4337 318.84 31.2237C319.23 31.0137 319.545 30.6987 319.785 30.2787C320.025 29.8587 320.145 29.3487 320.145 28.7487C320.145 28.1487 320.03 27.6437 319.8 27.2337C319.57 26.8137 319.265 26.4987 318.885 26.2887C318.505 26.0787 318.095 25.9737 317.655 25.9737C317.215 25.9737 316.805 26.0787 316.425 26.2887C316.055 26.4987 315.76 26.8137 315.54 27.2337C315.32 27.6437 315.21 28.1487 315.21 28.7487C315.21 29.6387 315.435 30.3287 315.885 30.8187C316.345 31.2987 316.92 31.5387 317.61 31.5387ZM327.761 24.4887C328.411 24.4887 328.991 24.6237 329.501 24.8937C330.021 25.1637 330.426 25.5637 330.716 26.0937C331.006 26.6237 331.151 27.2637 331.151 28.0137V32.8887H329.456V28.2687C329.456 27.5287 329.271 26.9637 328.901 26.5737C328.531 26.1737 328.026 25.9737 327.386 25.9737C326.746 25.9737 326.236 26.1737 325.856 26.5737C325.486 26.9637 325.301 27.5287 325.301 28.2687V32.8887H323.591V24.6237H325.301V25.5687C325.581 25.2287 325.936 24.9637 326.366 24.7737C326.806 24.5837 327.271 24.4887 327.761 24.4887ZM332.762 28.7187C332.762 27.8887 332.932 27.1537 333.272 26.5137C333.622 25.8737 334.092 25.3787 334.682 25.0287C335.282 24.6687 335.942 24.4887 336.662 24.4887C337.312 24.4887 337.877 24.6187 338.357 24.8787C338.847 25.1287 339.237 25.4437 339.527 25.8237V24.6237H341.252V32.8887H339.527V31.6587C339.237 32.0487 338.842 32.3737 338.342 32.6337C337.842 32.8937 337.272 33.0237 336.632 33.0237C335.922 33.0237 335.272 32.8437 334.682 32.4837C334.092 32.1137 333.622 31.6037 333.272 30.9537C332.932 30.2937 332.762 29.5487 332.762 28.7187ZM339.527 28.7487C339.527 28.1787 339.407 27.6837 339.167 27.2637C338.937 26.8437 338.632 26.5237 338.252 26.3037C337.872 26.0837 337.462 25.9737 337.022 25.9737C336.582 25.9737 336.172 26.0837 335.792 26.3037C335.412 26.5137 335.102 26.8287 334.862 27.2487C334.632 27.6587 334.517 28.1487 334.517 28.7187C334.517 29.2887 334.632 29.7887 334.862 30.2187C335.102 30.6487 335.412 30.9787 335.792 31.2087C336.182 31.4287 336.592 31.5387 337.022 31.5387C337.462 31.5387 337.872 31.4287 338.252 31.2087C338.632 30.9887 338.937 30.6687 339.167 30.2487C339.407 29.8187 339.527 29.3187 339.527 28.7487ZM344.368 23.5287C344.058 23.5287 343.798 23.4237 343.588 23.2137C343.378 23.0037 343.273 22.7437 343.273 22.4337C343.273 22.1237 343.378 21.8637 343.588 21.6537C343.798 21.4437 344.058 21.3387 344.368 21.3387C344.668 21.3387 344.923 21.4437 345.133 21.6537C345.343 21.8637 345.448 22.1237 345.448 22.4337C345.448 22.7437 345.343 23.0037 345.133 23.2137C344.923 23.4237 344.668 23.5287 344.368 23.5287ZM345.208 24.6237V32.8887H343.498V24.6237H345.208ZM349.163 25.8237C349.413 25.4037 349.743 25.0787 350.153 24.8487C350.573 24.6087 351.068 24.4887 351.638 24.4887V26.2587H351.203C350.533 26.2587 350.023 26.4287 349.673 26.7687C349.333 27.1087 349.163 27.6987 349.163 28.5387V32.8887H347.453V24.6237H349.163V25.8237ZM360.785 28.5537C360.785 28.8637 360.765 29.1437 360.725 29.3937H354.41C354.46 30.0537 354.705 30.5837 355.145 30.9837C355.585 31.3837 356.125 31.5837 356.765 31.5837C357.685 31.5837 358.335 31.1987 358.715 30.4287H360.56C360.31 31.1887 359.855 31.8137 359.195 32.3037C358.545 32.7837 357.735 33.0237 356.765 33.0237C355.975 33.0237 355.265 32.8487 354.635 32.4987C354.015 32.1387 353.525 31.6387 353.165 30.9987C352.815 30.3487 352.64 29.5987 352.64 28.7487C352.64 27.8987 352.81 27.1537 353.15 26.5137C353.5 25.8637 353.985 25.3637 354.605 25.0137C355.235 24.6637 355.955 24.4887 356.765 24.4887C357.545 24.4887 358.24 24.6587 358.85 24.9987C359.46 25.3387 359.935 25.8187 360.275 26.4387C360.615 27.0487 360.785 27.7537 360.785 28.5537ZM359 28.0137C358.99 27.3837 358.765 26.8787 358.325 26.4987C357.885 26.1187 357.34 25.9287 356.69 25.9287C356.1 25.9287 355.595 26.1187 355.175 26.4987C354.755 26.8687 354.505 27.3737 354.425 28.0137H359ZM363.158 32.9937C362.848 32.9937 362.588 32.8887 362.378 32.6787C362.168 32.4687 362.063 32.2087 362.063 31.8987C362.063 31.5887 362.168 31.3287 362.378 31.1187C362.588 30.9087 362.848 30.8037 363.158 30.8037C363.458 30.8037 363.713 30.9087 363.923 31.1187C364.133 31.3287 364.238 31.5887 364.238 31.8987C364.238 32.2087 364.133 32.4687 363.923 32.6787C363.713 32.8887 363.458 32.9937 363.158 32.9937Z" fill="white"/>
<path d="M166 114.086C166 95.5846 180.998 80.5862 199.5 80.5862H407.818C421.173 80.5862 432 91.4128 432 104.768V146.263C432 146.994 431.408 147.586 430.677 147.586H199.5C180.998 147.586 166 132.588 166 114.086Z" fill="url(#paint1_linear_658_7797)"/>
<path d="M183.439 103.713C183.439 102.764 183.658 101.912 184.095 101.158C184.542 100.404 185.143 99.8178 185.897 99.3989C186.66 98.9707 187.493 98.7566 188.396 98.7566C189.429 98.7566 190.346 99.0126 191.146 99.5246C191.956 100.027 192.543 100.744 192.906 101.675H190.993C190.741 101.163 190.392 100.781 189.946 100.53C189.499 100.279 188.982 100.153 188.396 100.153C187.754 100.153 187.181 100.297 186.678 100.586C186.176 100.874 185.78 101.288 185.492 101.828C185.212 102.368 185.073 102.997 185.073 103.713C185.073 104.43 185.212 105.058 185.492 105.598C185.78 106.138 186.176 106.557 186.678 106.855C187.181 107.143 187.754 107.288 188.396 107.288C188.982 107.288 189.499 107.162 189.946 106.911C190.392 106.659 190.741 106.278 190.993 105.766H192.906C192.543 106.697 191.956 107.413 191.146 107.916C190.346 108.419 189.429 108.67 188.396 108.67C187.484 108.67 186.651 108.461 185.897 108.042C185.143 107.613 184.542 107.022 184.095 106.268C183.658 105.514 183.439 104.663 183.439 103.713ZM198.341 100.767C198.928 100.767 199.449 100.893 199.905 101.144C200.37 101.396 200.733 101.768 200.994 102.261C201.264 102.755 201.399 103.35 201.399 104.048V108.586H199.821V104.286C199.821 103.597 199.649 103.071 199.305 102.708C198.96 102.336 198.49 102.149 197.894 102.149C197.299 102.149 196.824 102.336 196.47 102.708C196.126 103.071 195.954 103.597 195.954 104.286V108.586H194.362V98.254H195.954V101.786C196.224 101.461 196.563 101.209 196.973 101.033C197.392 100.856 197.848 100.767 198.341 100.767ZM210.073 104.551C210.073 104.84 210.055 105.1 210.018 105.333H204.139C204.186 105.947 204.414 106.441 204.824 106.813C205.233 107.185 205.736 107.371 206.331 107.371C207.188 107.371 207.793 107.013 208.147 106.296H209.864C209.631 107.004 209.208 107.586 208.593 108.042C207.988 108.488 207.234 108.712 206.331 108.712C205.596 108.712 204.935 108.549 204.349 108.223C203.772 107.888 203.316 107.423 202.98 106.827C202.655 106.222 202.492 105.524 202.492 104.733C202.492 103.941 202.65 103.248 202.967 102.652C203.292 102.047 203.744 101.582 204.321 101.256C204.907 100.93 205.578 100.767 206.331 100.767C207.058 100.767 207.704 100.925 208.272 101.242C208.84 101.558 209.282 102.005 209.599 102.582C209.915 103.15 210.073 103.806 210.073 104.551ZM208.412 104.048C208.403 103.462 208.193 102.992 207.784 102.638C207.374 102.284 206.867 102.108 206.262 102.108C205.712 102.108 205.242 102.284 204.851 102.638C204.461 102.983 204.228 103.453 204.153 104.048H208.412ZM210.702 104.733C210.702 103.941 210.861 103.248 211.177 102.652C211.503 102.047 211.95 101.582 212.517 101.256C213.085 100.93 213.737 100.767 214.472 100.767C215.403 100.767 216.171 100.991 216.776 101.437C217.39 101.875 217.805 102.503 218.019 103.322H216.301C216.162 102.941 215.938 102.643 215.631 102.429C215.324 102.215 214.938 102.108 214.472 102.108C213.821 102.108 213.299 102.34 212.908 102.806C212.527 103.262 212.336 103.904 212.336 104.733C212.336 105.561 212.527 106.208 212.908 106.673C213.299 107.139 213.821 107.371 214.472 107.371C215.394 107.371 216.003 106.967 216.301 106.157H218.019C217.795 106.939 217.376 107.562 216.762 108.028C216.148 108.484 215.384 108.712 214.472 108.712C213.737 108.712 213.085 108.549 212.517 108.223C211.95 107.888 211.503 107.423 211.177 106.827C210.861 106.222 210.702 105.524 210.702 104.733ZM222.242 104.747L225.788 108.586H223.638L220.79 105.277V108.586H219.198V98.254H220.79V104.258L223.582 100.893H225.788L222.242 104.747ZM231.599 102.191V106.45C231.599 106.738 231.664 106.948 231.795 107.078C231.934 107.199 232.167 107.26 232.493 107.26H233.47V108.586H232.214C231.497 108.586 230.948 108.419 230.566 108.084C230.184 107.748 229.994 107.204 229.994 106.45V102.191H229.086V100.893H229.994V98.98H231.599V100.893H233.47V102.191H231.599ZM238.51 100.767C239.096 100.767 239.617 100.893 240.074 101.144C240.539 101.396 240.902 101.768 241.163 102.261C241.433 102.755 241.567 103.35 241.567 104.048V108.586H239.99V104.286C239.99 103.597 239.818 103.071 239.473 102.708C239.129 102.336 238.659 102.149 238.063 102.149C237.467 102.149 236.992 102.336 236.639 102.708C236.294 103.071 236.122 103.597 236.122 104.286V108.586H234.53V98.254H236.122V101.786C236.392 101.461 236.732 101.209 237.141 101.033C237.56 100.856 238.016 100.767 238.51 100.767ZM250.242 104.551C250.242 104.84 250.223 105.1 250.186 105.333H244.308C244.354 105.947 244.583 106.441 244.992 106.813C245.402 107.185 245.904 107.371 246.5 107.371C247.356 107.371 247.961 107.013 248.315 106.296H250.033C249.8 107.004 249.376 107.586 248.762 108.042C248.157 108.488 247.403 108.712 246.5 108.712C245.765 108.712 245.104 108.549 244.517 108.223C243.94 107.888 243.484 107.423 243.149 106.827C242.823 106.222 242.66 105.524 242.66 104.733C242.66 103.941 242.819 103.248 243.135 102.652C243.461 102.047 243.912 101.582 244.489 101.256C245.076 100.93 245.746 100.767 246.5 100.767C247.226 100.767 247.873 100.925 248.441 101.242C249.009 101.558 249.451 102.005 249.767 102.582C250.084 103.15 250.242 103.806 250.242 104.551ZM248.58 104.048C248.571 103.462 248.362 102.992 247.952 102.638C247.543 102.284 247.035 102.108 246.43 102.108C245.881 102.108 245.411 102.284 245.02 102.638C244.629 102.983 244.396 103.453 244.322 104.048H248.58ZM257.414 108.712C256.809 108.712 256.264 108.605 255.78 108.391C255.306 108.167 254.929 107.869 254.649 107.497C254.37 107.115 254.221 106.692 254.203 106.227H255.85C255.878 106.552 256.032 106.827 256.311 107.05C256.6 107.264 256.958 107.371 257.386 107.371C257.833 107.371 258.177 107.288 258.419 107.12C258.671 106.943 258.796 106.72 258.796 106.45C258.796 106.161 258.657 105.947 258.377 105.808C258.107 105.668 257.675 105.514 257.079 105.347C256.502 105.189 256.032 105.035 255.669 104.886C255.306 104.737 254.989 104.509 254.719 104.202C254.459 103.895 254.328 103.49 254.328 102.987C254.328 102.578 254.449 102.205 254.691 101.87C254.933 101.526 255.278 101.256 255.725 101.06C256.181 100.865 256.702 100.767 257.288 100.767C258.163 100.767 258.866 100.991 259.397 101.437C259.937 101.875 260.225 102.475 260.262 103.239H258.671C258.643 102.894 258.503 102.62 258.252 102.415C258 102.21 257.661 102.108 257.232 102.108C256.814 102.108 256.492 102.187 256.269 102.345C256.046 102.503 255.934 102.713 255.934 102.973C255.934 103.178 256.008 103.35 256.157 103.49C256.306 103.63 256.488 103.741 256.702 103.825C256.916 103.899 257.232 103.997 257.651 104.118C258.21 104.267 258.666 104.421 259.02 104.579C259.383 104.728 259.695 104.951 259.955 105.249C260.216 105.547 260.351 105.943 260.36 106.436C260.36 106.873 260.239 107.264 259.997 107.609C259.755 107.953 259.411 108.223 258.964 108.419C258.526 108.614 258.01 108.712 257.414 108.712ZM263.53 102.191V106.45C263.53 106.738 263.595 106.948 263.726 107.078C263.865 107.199 264.098 107.26 264.424 107.26H265.401V108.586H264.144C263.428 108.586 262.878 108.419 262.497 108.084C262.115 107.748 261.924 107.204 261.924 106.45V102.191H261.017V100.893H261.924V98.98H263.53V100.893H265.401V102.191H263.53ZM265.931 104.705C265.931 103.932 266.089 103.248 266.405 102.652C266.731 102.056 267.169 101.596 267.718 101.27C268.276 100.935 268.891 100.767 269.561 100.767C270.166 100.767 270.692 100.888 271.139 101.13C271.595 101.363 271.958 101.656 272.228 102.01V100.893H273.833V108.586H272.228V107.441C271.958 107.804 271.59 108.107 271.125 108.349C270.659 108.591 270.129 108.712 269.533 108.712C268.872 108.712 268.267 108.544 267.718 108.209C267.169 107.865 266.731 107.39 266.405 106.785C266.089 106.171 265.931 105.477 265.931 104.705ZM272.228 104.733C272.228 104.202 272.116 103.741 271.893 103.35C271.678 102.959 271.395 102.661 271.041 102.457C270.687 102.252 270.305 102.149 269.896 102.149C269.486 102.149 269.105 102.252 268.751 102.457C268.397 102.652 268.109 102.945 267.885 103.336C267.671 103.718 267.564 104.174 267.564 104.705C267.564 105.235 267.671 105.701 267.885 106.101C268.109 106.501 268.397 106.808 268.751 107.022C269.114 107.227 269.496 107.33 269.896 107.33C270.305 107.33 270.687 107.227 271.041 107.022C271.395 106.818 271.678 106.52 271.893 106.129C272.116 105.729 272.228 105.263 272.228 104.733ZM277.109 102.01C277.342 101.619 277.649 101.316 278.03 101.102C278.421 100.879 278.882 100.767 279.413 100.767V102.415H279.008C278.384 102.415 277.909 102.573 277.584 102.89C277.267 103.206 277.109 103.755 277.109 104.537V108.586H275.517V100.893H277.109V102.01ZM283.261 108.712C282.656 108.712 282.112 108.605 281.628 108.391C281.153 108.167 280.776 107.869 280.497 107.497C280.217 107.115 280.069 106.692 280.05 106.227H281.698C281.725 106.552 281.879 106.827 282.158 107.05C282.447 107.264 282.805 107.371 283.233 107.371C283.68 107.371 284.025 107.288 284.267 107.12C284.518 106.943 284.644 106.72 284.644 106.45C284.644 106.161 284.504 105.947 284.225 105.808C283.955 105.668 283.522 105.514 282.926 105.347C282.349 105.189 281.879 105.035 281.516 104.886C281.153 104.737 280.836 104.509 280.567 104.202C280.306 103.895 280.176 103.49 280.176 102.987C280.176 102.578 280.297 102.205 280.539 101.87C280.781 101.526 281.125 101.256 281.572 101.06C282.028 100.865 282.549 100.767 283.136 100.767C284.011 100.767 284.713 100.991 285.244 101.437C285.784 101.875 286.072 102.475 286.11 103.239H284.518C284.49 102.894 284.35 102.62 284.099 102.415C283.848 102.21 283.508 102.108 283.08 102.108C282.661 102.108 282.34 102.187 282.116 102.345C281.893 102.503 281.781 102.713 281.781 102.973C281.781 103.178 281.856 103.35 282.005 103.49C282.154 103.63 282.335 103.741 282.549 103.825C282.763 103.899 283.08 103.997 283.499 104.118C284.057 104.267 284.513 104.421 284.867 104.579C285.23 104.728 285.542 104.951 285.802 105.249C286.063 105.547 286.198 105.943 286.207 106.436C286.207 106.873 286.086 107.264 285.844 107.609C285.602 107.953 285.258 108.223 284.811 108.419C284.374 108.614 283.857 108.712 283.261 108.712ZM293.966 102.191H292.542V108.586H290.936V102.191H290.028V100.893H290.936V100.348C290.936 99.4641 291.169 98.8218 291.634 98.4215C292.109 98.012 292.849 97.8072 293.854 97.8072V99.1336C293.37 99.1336 293.03 99.2267 292.835 99.4129C292.639 99.5897 292.542 99.9015 292.542 100.348V100.893H293.966V102.191ZM298.306 108.712C297.58 108.712 296.924 108.549 296.338 108.223C295.751 107.888 295.291 107.423 294.955 106.827C294.62 106.222 294.453 105.524 294.453 104.733C294.453 103.951 294.625 103.257 294.969 102.652C295.314 102.047 295.784 101.582 296.38 101.256C296.975 100.93 297.641 100.767 298.376 100.767C299.112 100.767 299.777 100.93 300.373 101.256C300.969 101.582 301.439 102.047 301.783 102.652C302.128 103.257 302.3 103.951 302.3 104.733C302.3 105.514 302.123 106.208 301.769 106.813C301.415 107.418 300.931 107.888 300.317 108.223C299.712 108.549 299.042 108.712 298.306 108.712ZM298.306 107.33C298.716 107.33 299.098 107.232 299.451 107.036C299.814 106.841 300.108 106.548 300.331 106.157C300.554 105.766 300.666 105.291 300.666 104.733C300.666 104.174 300.559 103.704 300.345 103.322C300.131 102.931 299.847 102.638 299.493 102.443C299.14 102.247 298.758 102.149 298.348 102.149C297.939 102.149 297.557 102.247 297.203 102.443C296.859 102.638 296.584 102.931 296.38 103.322C296.175 103.704 296.072 104.174 296.072 104.733C296.072 105.561 296.282 106.203 296.701 106.659C297.129 107.106 297.664 107.33 298.306 107.33ZM305.058 102.01C305.291 101.619 305.598 101.316 305.98 101.102C306.371 100.879 306.831 100.767 307.362 100.767V102.415H306.957C306.333 102.415 305.859 102.573 305.533 102.89C305.216 103.206 305.058 103.755 305.058 104.537V108.586H303.466V100.893H305.058V102.01ZM315.52 100.767C316.125 100.767 316.665 100.893 317.139 101.144C317.623 101.396 318 101.768 318.27 102.261C318.54 102.755 318.675 103.35 318.675 104.048V108.586H317.097V104.286C317.097 103.597 316.925 103.071 316.581 102.708C316.236 102.336 315.766 102.149 315.171 102.149C314.575 102.149 314.1 102.336 313.746 102.708C313.402 103.071 313.23 103.597 313.23 104.286V108.586H311.638V100.893H313.23V101.773C313.49 101.456 313.821 101.209 314.221 101.033C314.631 100.856 315.064 100.767 315.52 100.767ZM327.35 104.551C327.35 104.84 327.331 105.1 327.294 105.333H321.416C321.462 105.947 321.69 106.441 322.1 106.813C322.509 107.185 323.012 107.371 323.608 107.371C324.464 107.371 325.069 107.013 325.423 106.296H327.14C326.908 107.004 326.484 107.586 325.87 108.042C325.265 108.488 324.511 108.712 323.608 108.712C322.872 108.712 322.211 108.549 321.625 108.223C321.048 107.888 320.592 107.423 320.257 106.827C319.931 106.222 319.768 105.524 319.768 104.733C319.768 103.941 319.926 103.248 320.243 102.652C320.569 102.047 321.02 101.582 321.597 101.256C322.184 100.93 322.854 100.767 323.608 100.767C324.334 100.767 324.981 100.925 325.548 101.242C326.116 101.558 326.558 102.005 326.875 102.582C327.191 103.15 327.35 103.806 327.35 104.551ZM325.688 104.048C325.679 103.462 325.469 102.992 325.06 102.638C324.65 102.284 324.143 102.108 323.538 102.108C322.989 102.108 322.519 102.284 322.128 102.638C321.737 102.983 321.504 103.453 321.43 104.048H325.688ZM331.804 104.691L334.29 108.586H332.488L330.827 105.975L329.263 108.586H327.602L330.087 104.802L327.602 100.893H329.403L331.064 103.504L332.628 100.893H334.29L331.804 104.691ZM336.927 102.191V106.45C336.927 106.738 336.992 106.948 337.122 107.078C337.262 107.199 337.495 107.26 337.82 107.26H338.798V108.586H337.541C336.824 108.586 336.275 108.419 335.894 108.084C335.512 107.748 335.321 107.204 335.321 106.45V102.191H334.414V100.893H335.321V98.98H336.927V100.893H338.798V102.191H336.927ZM353.41 100.893L351.023 108.586H349.347L347.797 102.903L346.247 108.586H344.572L342.17 100.893H343.79L345.396 107.078L347.029 100.893H348.691L350.255 107.05L351.846 100.893H353.41ZM361.244 104.551C361.244 104.84 361.225 105.1 361.188 105.333H355.31C355.356 105.947 355.584 106.441 355.994 106.813C356.404 107.185 356.906 107.371 357.502 107.371C358.358 107.371 358.963 107.013 359.317 106.296H361.034C360.802 107.004 360.378 107.586 359.764 108.042C359.159 108.488 358.405 108.712 357.502 108.712C356.767 108.712 356.106 108.549 355.519 108.223C354.942 107.888 354.486 107.423 354.151 106.827C353.825 106.222 353.662 105.524 353.662 104.733C353.662 103.941 353.82 103.248 354.137 102.652C354.463 102.047 354.914 101.582 355.491 101.256C356.078 100.93 356.748 100.767 357.502 100.767C358.228 100.767 358.875 100.925 359.443 101.242C360.011 101.558 360.453 102.005 360.769 102.582C361.086 103.15 361.244 103.806 361.244 104.551ZM359.582 104.048C359.573 103.462 359.364 102.992 358.954 102.638C358.544 102.284 358.037 102.108 357.432 102.108C356.883 102.108 356.413 102.284 356.022 102.638C355.631 102.983 355.398 103.453 355.324 104.048H359.582ZM369.454 104.551C369.454 104.84 369.436 105.1 369.399 105.333H363.52C363.567 105.947 363.795 106.441 364.205 106.813C364.614 107.185 365.117 107.371 365.712 107.371C366.569 107.371 367.174 107.013 367.528 106.296H369.245C369.012 107.004 368.589 107.586 367.974 108.042C367.369 108.488 366.615 108.712 365.712 108.712C364.977 108.712 364.316 108.549 363.73 108.223C363.153 107.888 362.697 107.423 362.361 106.827C362.036 106.222 361.873 105.524 361.873 104.733C361.873 103.941 362.031 103.248 362.348 102.652C362.673 102.047 363.125 101.582 363.702 101.256C364.288 100.93 364.958 100.767 365.712 100.767C366.438 100.767 367.085 100.925 367.653 101.242C368.221 101.558 368.663 102.005 368.98 102.582C369.296 103.15 369.454 103.806 369.454 104.551ZM367.793 104.048C367.784 103.462 367.574 102.992 367.165 102.638C366.755 102.284 366.248 102.108 365.643 102.108C365.093 102.108 364.623 102.284 364.232 102.638C363.841 102.983 363.609 103.453 363.534 104.048H367.793ZM373.658 104.747L377.204 108.586H375.054L372.206 105.277V108.586H370.614V98.254H372.206V104.258L374.998 100.893H377.204L373.658 104.747ZM378.804 97.4581L378.636 100.32H377.547L377.366 97.4581H378.804ZM382.724 108.712C382.118 108.712 381.574 108.605 381.09 108.391C380.615 108.167 380.238 107.869 379.959 107.497C379.68 107.115 379.531 106.692 379.512 106.227H381.16C381.188 106.552 381.341 106.827 381.62 107.05C381.909 107.264 382.267 107.371 382.696 107.371C383.142 107.371 383.487 107.288 383.729 107.12C383.98 106.943 384.106 106.72 384.106 106.45C384.106 106.161 383.966 105.947 383.687 105.808C383.417 105.668 382.984 105.514 382.388 105.347C381.811 105.189 381.341 105.035 380.978 104.886C380.615 104.737 380.299 104.509 380.029 104.202C379.768 103.895 379.638 103.49 379.638 102.987C379.638 102.578 379.759 102.205 380.001 101.87C380.243 101.526 380.587 101.256 381.034 101.06C381.49 100.865 382.011 100.767 382.598 100.767C383.473 100.767 384.176 100.991 384.706 101.437C385.246 101.875 385.535 102.475 385.572 103.239H383.98C383.952 102.894 383.813 102.62 383.561 102.415C383.31 102.21 382.97 102.108 382.542 102.108C382.123 102.108 381.802 102.187 381.579 102.345C381.355 102.503 381.244 102.713 381.244 102.973C381.244 103.178 381.318 103.35 381.467 103.49C381.616 103.63 381.797 103.741 382.011 103.825C382.226 103.899 382.542 103.997 382.961 104.118C383.519 104.267 383.975 104.421 384.329 104.579C384.692 104.728 385.004 104.951 385.265 105.249C385.525 105.547 385.66 105.943 385.67 106.436C385.67 106.873 385.549 107.264 385.307 107.609C385.065 107.953 384.72 108.223 384.273 108.419C383.836 108.614 383.319 108.712 382.724 108.712ZM391.794 98.254V108.586H390.203V98.254H391.794ZM396.814 108.712C396.088 108.712 395.432 108.549 394.846 108.223C394.259 107.888 393.798 107.423 393.463 106.827C393.128 106.222 392.961 105.524 392.961 104.733C392.961 103.951 393.133 103.257 393.477 102.652C393.822 102.047 394.292 101.582 394.887 101.256C395.483 100.93 396.149 100.767 396.884 100.767C397.619 100.767 398.285 100.93 398.881 101.256C399.476 101.582 399.946 102.047 400.291 102.652C400.635 103.257 400.808 103.951 400.808 104.733C400.808 105.514 400.631 106.208 400.277 106.813C399.923 107.418 399.439 107.888 398.825 108.223C398.22 108.549 397.55 108.712 396.814 108.712ZM396.814 107.33C397.224 107.33 397.605 107.232 397.959 107.036C398.322 106.841 398.615 106.548 398.839 106.157C399.062 105.766 399.174 105.291 399.174 104.733C399.174 104.174 399.067 103.704 398.853 103.322C398.639 102.931 398.355 102.638 398.001 102.443C397.647 102.247 397.266 102.149 396.856 102.149C396.447 102.149 396.065 102.247 395.711 102.443C395.367 102.638 395.092 102.931 394.887 103.322C394.683 103.704 394.58 104.174 394.58 104.733C394.58 105.561 394.79 106.203 395.209 106.659C395.637 107.106 396.172 107.33 396.814 107.33ZM403.831 102.191V106.45C403.831 106.738 403.896 106.948 404.027 107.078C404.166 107.199 404.399 107.26 404.725 107.26H405.702V108.586H404.445C403.729 108.586 403.18 108.419 402.798 108.084C402.416 107.748 402.225 107.204 402.225 106.45V102.191H401.318V100.893H402.225V98.98H403.831V100.893H405.702V102.191H403.831ZM408.619 102.191V106.45C408.619 106.738 408.684 106.948 408.815 107.078C408.954 107.199 409.187 107.26 409.513 107.26H410.49V108.586H409.234C408.517 108.586 407.968 108.419 407.586 108.084C407.204 107.748 407.014 107.204 407.014 106.45V102.191H406.106V100.893H407.014V98.98H408.619V100.893H410.49V102.191H408.619ZM414.887 108.712C414.161 108.712 413.505 108.549 412.919 108.223C412.332 107.888 411.871 107.423 411.536 106.827C411.201 106.222 411.034 105.524 411.034 104.733C411.034 103.951 411.206 103.257 411.55 102.652C411.895 102.047 412.365 101.582 412.961 101.256C413.556 100.93 414.222 100.767 414.957 100.767C415.693 100.767 416.358 100.93 416.954 101.256C417.55 101.582 418.02 102.047 418.364 102.652C418.708 103.257 418.881 103.951 418.881 104.733C418.881 105.514 418.704 106.208 418.35 106.813C417.996 107.418 417.512 107.888 416.898 108.223C416.293 108.549 415.623 108.712 414.887 108.712ZM414.887 107.33C415.297 107.33 415.679 107.232 416.032 107.036C416.395 106.841 416.688 106.548 416.912 106.157C417.135 105.766 417.247 105.291 417.247 104.733C417.247 104.174 417.14 103.704 416.926 103.322C416.712 102.931 416.428 102.638 416.074 102.443C415.72 102.247 415.339 102.149 414.929 102.149C414.52 102.149 414.138 102.247 413.784 102.443C413.44 102.638 413.165 102.931 412.961 103.322C412.756 103.704 412.653 104.174 412.653 104.733C412.653 105.561 412.863 106.203 413.282 106.659C413.71 107.106 414.245 107.33 414.887 107.33ZM294.88 121.767C295.485 121.767 296.025 121.893 296.5 122.144C296.984 122.396 297.361 122.768 297.631 123.261C297.901 123.755 298.036 124.35 298.036 125.048V129.586H296.458V125.286C296.458 124.597 296.286 124.071 295.941 123.708C295.597 123.336 295.127 123.149 294.531 123.149C293.936 123.149 293.461 123.336 293.107 123.708C292.763 124.071 292.59 124.597 292.59 125.286V129.586H290.999V121.893H292.59V122.773C292.851 122.456 293.182 122.209 293.582 122.033C293.991 121.856 294.424 121.767 294.88 121.767ZM306.626 121.893V129.586H305.035V128.679C304.783 128.995 304.453 129.246 304.043 129.433C303.643 129.609 303.215 129.698 302.759 129.698C302.154 129.698 301.609 129.572 301.125 129.321C300.651 129.07 300.274 128.697 299.994 128.204C299.724 127.711 299.589 127.115 299.589 126.417V121.893H301.167V126.179C301.167 126.868 301.339 127.399 301.684 127.771C302.028 128.134 302.498 128.316 303.094 128.316C303.69 128.316 304.16 128.134 304.504 127.771C304.858 127.399 305.035 126.868 305.035 126.179V121.893H306.626ZM317.633 121.767C318.238 121.767 318.778 121.893 319.252 122.144C319.736 122.396 320.113 122.768 320.383 123.261C320.663 123.755 320.802 124.35 320.802 125.048V129.586H319.224V125.286C319.224 124.597 319.052 124.071 318.708 123.708C318.363 123.336 317.893 123.149 317.298 123.149C316.702 123.149 316.227 123.336 315.873 123.708C315.529 124.071 315.357 124.597 315.357 125.286V129.586H313.779V125.286C313.779 124.597 313.607 124.071 313.262 123.708C312.918 123.336 312.448 123.149 311.852 123.149C311.257 123.149 310.782 123.336 310.428 123.708C310.084 124.071 309.911 124.597 309.911 125.286V129.586H308.32V121.893H309.911V122.773C310.172 122.456 310.503 122.209 310.903 122.033C311.303 121.856 311.731 121.767 312.187 121.767C312.802 121.767 313.351 121.898 313.835 122.158C314.319 122.419 314.691 122.796 314.952 123.289C315.185 122.824 315.548 122.456 316.041 122.186C316.534 121.907 317.065 121.767 317.633 121.767ZM324.012 123.038C324.282 122.665 324.65 122.363 325.115 122.13C325.59 121.888 326.116 121.767 326.693 121.767C327.373 121.767 327.987 121.93 328.536 122.256C329.085 122.582 329.518 123.047 329.835 123.652C330.151 124.248 330.309 124.932 330.309 125.705C330.309 126.477 330.151 127.171 329.835 127.785C329.518 128.39 329.081 128.865 328.522 129.209C327.973 129.544 327.363 129.712 326.693 129.712C326.097 129.712 325.567 129.595 325.101 129.363C324.645 129.13 324.282 128.832 324.012 128.469V129.586H322.421V119.254H324.012V123.038ZM328.69 125.705C328.69 125.174 328.578 124.718 328.355 124.336C328.141 123.945 327.852 123.652 327.489 123.457C327.135 123.252 326.754 123.149 326.344 123.149C325.944 123.149 325.562 123.252 325.199 123.457C324.845 123.661 324.557 123.959 324.334 124.35C324.119 124.741 324.012 125.202 324.012 125.733C324.012 126.263 324.119 126.729 324.334 127.129C324.557 127.52 324.845 127.818 325.199 128.022C325.562 128.227 325.944 128.33 326.344 128.33C326.754 128.33 327.135 128.227 327.489 128.022C327.852 127.808 328.141 127.501 328.355 127.101C328.578 126.701 328.69 126.235 328.69 125.705ZM338.528 125.551C338.528 125.84 338.509 126.1 338.472 126.333H332.594C332.64 126.947 332.868 127.441 333.278 127.813C333.687 128.185 334.19 128.371 334.786 128.371C335.642 128.371 336.247 128.013 336.601 127.296H338.318C338.085 128.004 337.662 128.586 337.048 129.042C336.443 129.488 335.689 129.712 334.786 129.712C334.05 129.712 333.389 129.549 332.803 129.223C332.226 128.888 331.77 128.423 331.435 127.827C331.109 127.222 330.946 126.524 330.946 125.733C330.946 124.941 331.104 124.248 331.421 123.652C331.747 123.047 332.198 122.582 332.775 122.256C333.362 121.93 334.032 121.767 334.786 121.767C335.512 121.767 336.159 121.925 336.726 122.242C337.294 122.558 337.736 123.005 338.053 123.582C338.369 124.15 338.528 124.806 338.528 125.551ZM336.866 125.048C336.857 124.462 336.647 123.992 336.238 123.638C335.828 123.284 335.321 123.108 334.716 123.108C334.167 123.108 333.697 123.284 333.306 123.638C332.915 123.983 332.682 124.453 332.608 125.048H336.866ZM341.279 123.01C341.512 122.619 341.819 122.316 342.2 122.102C342.591 121.879 343.052 121.767 343.583 121.767V123.415H343.178C342.554 123.415 342.079 123.573 341.754 123.89C341.437 124.206 341.279 124.755 341.279 125.537V129.586H339.687V121.893H341.279V123.01ZM347.431 129.712C346.826 129.712 346.282 129.605 345.798 129.391C345.323 129.167 344.946 128.869 344.667 128.497C344.388 128.115 344.239 127.692 344.22 127.227H345.868C345.895 127.552 346.049 127.827 346.328 128.05C346.617 128.264 346.975 128.371 347.403 128.371C347.85 128.371 348.195 128.288 348.437 128.12C348.688 127.943 348.814 127.72 348.814 127.45C348.814 127.161 348.674 126.947 348.395 126.808C348.125 126.668 347.692 126.514 347.096 126.347C346.519 126.189 346.049 126.035 345.686 125.886C345.323 125.737 345.007 125.509 344.737 125.202C344.476 124.895 344.346 124.49 344.346 123.987C344.346 123.578 344.467 123.205 344.709 122.87C344.951 122.526 345.295 122.256 345.742 122.06C346.198 121.865 346.719 121.767 347.306 121.767C348.181 121.767 348.883 121.991 349.414 122.437C349.954 122.875 350.242 123.475 350.28 124.239H348.688C348.66 123.894 348.52 123.62 348.269 123.415C348.018 123.21 347.678 123.108 347.25 123.108C346.831 123.108 346.51 123.187 346.286 123.345C346.063 123.503 345.951 123.713 345.951 123.973C345.951 124.178 346.026 124.35 346.175 124.49C346.324 124.63 346.505 124.741 346.719 124.825C346.933 124.899 347.25 124.997 347.669 125.118C348.227 125.267 348.683 125.421 349.037 125.579C349.4 125.728 349.712 125.951 349.973 126.249C350.233 126.547 350.368 126.943 350.377 127.436C350.377 127.873 350.256 128.264 350.014 128.609C349.772 128.953 349.428 129.223 348.981 129.419C348.544 129.614 348.027 129.712 347.431 129.712ZM356.767 123.191V127.45C356.767 127.738 356.833 127.948 356.963 128.078C357.103 128.199 357.335 128.26 357.661 128.26H358.638V129.586H357.382C356.665 129.586 356.116 129.419 355.734 129.084C355.353 128.748 355.162 128.204 355.162 127.45V123.191H354.254V121.893H355.162V119.98H356.767V121.893H358.638V123.191H356.767ZM363.678 121.767C364.264 121.767 364.786 121.893 365.242 122.144C365.707 122.396 366.07 122.768 366.331 123.261C366.601 123.755 366.736 124.35 366.736 125.048V129.586H365.158V125.286C365.158 124.597 364.986 124.071 364.641 123.708C364.297 123.336 363.827 123.149 363.231 123.149C362.635 123.149 362.161 123.336 361.807 123.708C361.462 124.071 361.29 124.597 361.29 125.286V129.586H359.699V119.254H361.29V122.786C361.56 122.461 361.9 122.209 362.31 122.033C362.728 121.856 363.185 121.767 363.678 121.767ZM375.41 125.551C375.41 125.84 375.391 126.1 375.354 126.333H369.476C369.523 126.947 369.751 127.441 370.16 127.813C370.57 128.185 371.072 128.371 371.668 128.371C372.525 128.371 373.13 128.013 373.483 127.296H375.201C374.968 128.004 374.544 128.586 373.93 129.042C373.325 129.488 372.571 129.712 371.668 129.712C370.933 129.712 370.272 129.549 369.685 129.223C369.108 128.888 368.652 128.423 368.317 127.827C367.991 127.222 367.828 126.524 367.828 125.733C367.828 124.941 367.987 124.248 368.303 123.652C368.629 123.047 369.08 122.582 369.658 122.256C370.244 121.93 370.914 121.767 371.668 121.767C372.394 121.767 373.041 121.925 373.609 122.242C374.177 122.558 374.619 123.005 374.935 123.582C375.252 124.15 375.41 124.806 375.41 125.551ZM373.749 125.048C373.739 124.462 373.53 123.992 373.12 123.638C372.711 123.284 372.203 123.108 371.598 123.108C371.049 123.108 370.579 123.284 370.188 123.638C369.797 123.983 369.564 124.453 369.49 125.048H373.749ZM380.451 121.767C381.056 121.767 381.596 121.893 382.071 122.144C382.555 122.396 382.932 122.768 383.202 123.261C383.472 123.755 383.607 124.35 383.607 125.048V129.586H382.029V125.286C382.029 124.597 381.857 124.071 381.512 123.708C381.168 123.336 380.698 123.149 380.102 123.149C379.506 123.149 379.032 123.336 378.678 123.708C378.334 124.071 378.161 124.597 378.161 125.286V129.586H376.57V121.893H378.161V122.773C378.422 122.456 378.752 122.209 379.153 122.033C379.562 121.856 379.995 121.767 380.451 121.767ZM387.227 119.882L387.045 126.654H385.719L385.537 119.882H387.227ZM386.431 129.684C386.142 129.684 385.9 129.586 385.705 129.391C385.509 129.195 385.412 128.953 385.412 128.665C385.412 128.376 385.509 128.134 385.705 127.939C385.9 127.743 386.142 127.645 386.431 127.645C386.71 127.645 386.947 127.743 387.143 127.939C387.338 128.134 387.436 128.376 387.436 128.665C387.436 128.953 387.338 129.195 387.143 129.391C386.947 129.586 386.71 129.684 386.431 129.684ZM391.482 130.564H405.444V116.601H391.482V130.564ZM405.038 130.564H419V116.601H405.038V130.564Z" fill="white"/>
<defs>
<linearGradient id="paint0_linear_658_7797" x1="0" y1="0" x2="314.277" y2="175.591" gradientUnits="userSpaceOnUse">
<stop stop-color="#6834BC"/>
<stop offset="1" stop-color="#49169B"/>
</linearGradient>
<linearGradient id="paint1_linear_658_7797" x1="215.573" y1="84.8498" x2="231.858" y2="172.272" gradientUnits="userSpaceOnUse">
<stop stop-color="#936FFA"/>
<stop offset="1" stop-color="#6661FF"/>
</linearGradient>
</defs>
</svg>
