<svg width="116" height="121" viewBox="0 0 116 121" fill="none" xmlns="http://www.w3.org/2000/svg">
<path d="M69.5264 1.50013C49.9122 -1.10923 29.1839 6.63092 16.0784 21.4662C2.97299 36.3014 -2.12846 57.8213 2.91436 76.9664C5.58236 87.0814 10.9184 96.4634 18.3653 103.822C34.3733 119.625 60.2324 124.433 80.8434 115.462C101.454 106.49 115.557 84.2961 114.912 61.8087C105.882 75.7351 88.8181 84.3547 72.341 82.3318C55.8639 80.2794 41.1752 65.9133 40.7061 49.3189C40.4423 40.1715 44.1657 31.2879 49.4431 23.841C54.7498 16.394 62.7245 7.68638 69.4971 1.52946L69.5264 1.50013Z" stroke="#FFFF63" stroke-width="0.75" stroke-linecap="round" stroke-linejoin="round"/>
<path d="M13.1466 80.3089C7.19488 66.2945 7.45875 49.7881 13.8795 35.979" stroke="#FFFF63" stroke-width="0.75" stroke-linecap="round" stroke-linejoin="round"/>
<path d="M66.9464 89.3682C56.3037 88.5179 46.5406 80.8364 43.1982 70.6921" stroke="#FFFF63" stroke-width="0.75" stroke-linecap="round" stroke-linejoin="round"/>
<path d="M76.0352 108.836C86.0035 108.777 95.4735 101.418 97.9949 91.7725" stroke="#FFFF63" stroke-width="0.75" stroke-linecap="round" stroke-linejoin="round"/>
</svg>
