<svg xmlns="http://www.w3.org/2000/svg" width="519" height="519" viewBox="0 0 519 519" fill="none">
<g clip-path="url(#clip0_30_29708)">
<rect x="1.31604" y="2" width="515.684" height="515.684" rx="257.842" fill="#A67DFF" fill-opacity="0.1"/>
<g filter="url(#filter0_ii_30_29708)">
<rect x="120.451" y="-161.088" width="301.784" height="619.318" rx="45.866" fill="#7091BA"/>
</g>
<rect x="124.927" y="-156.261" width="292.837" height="609.665" rx="42.6907" fill="black" stroke="#454545" stroke-width="0.705631"/>
<g clip-path="url(#clip1_30_29708)">
<rect x="135.157" y="-146.03" width="272.374" height="589.434" rx="31.0478" fill="white"/>
<g clip-path="url(#clip2_30_29708)">
<rect width="271.892" height="588.061" transform="translate(135.73 -144.631)" fill="#190A32"/>
<mask id="mask0_30_29708" style="mask-type:luminance" maskUnits="userSpaceOnUse" x="135" y="-145" width="394" height="470">
<path d="M528.73 -144.631H135.73V324.135H528.73V-144.631Z" fill="white"/>
</mask>
<g mask="url(#mask0_30_29708)">
<path d="M408.101 78.4886C408.101 79.0582 407.719 79.514 407.242 79.514C406.764 79.514 406.382 79.0582 406.382 78.4886C406.382 77.9189 406.764 77.4631 407.242 77.4631C407.719 77.4631 408.101 77.9189 408.101 78.4886Z" fill="#6C46B0"/>
<path d="M400.842 198.561C401.316 198.561 401.701 198.102 401.701 197.535C401.701 196.969 401.316 196.51 400.842 196.51C400.367 196.51 399.982 196.969 399.982 197.535C399.982 198.102 400.367 198.561 400.842 198.561Z" fill="#6C46B0"/>
<path d="M395.574 31.7585C395.574 32.3282 395.178 32.8002 394.701 32.8002C394.223 32.8002 393.827 32.3282 393.827 31.7585C393.827 31.1888 394.223 30.7168 394.701 30.7168C395.178 30.7168 395.574 31.1888 395.574 31.7585Z" fill="#6C46B0"/>
<path d="M389.024 117.65C389.024 117.65 389.01 117.7 388.983 117.7C388.956 117.7 388.942 117.683 388.942 117.65C388.942 117.618 388.956 117.601 388.983 117.601C389.01 117.601 389.024 117.618 389.024 117.65Z" fill="#6C46B0"/>
<path d="M383.102 251.607C383.102 251.997 382.843 252.307 382.515 252.307C382.188 252.307 381.929 251.997 381.929 251.607C381.929 251.216 382.188 250.907 382.515 250.907C382.843 250.907 383.102 251.216 383.102 251.607Z" fill="#6C46B0"/>
<path d="M378.025 278.626C378.025 279.082 377.712 279.456 377.329 279.456C376.947 279.456 376.634 279.082 376.634 278.626C376.634 278.17 376.947 277.796 377.329 277.796C377.712 277.796 378.025 278.17 378.025 278.626Z" fill="#6C46B0"/>
<path d="M371.544 60.9913C371.544 61.5447 371.162 62.0005 370.698 62.0005C370.234 62.0005 369.852 61.5447 369.852 60.9913C369.852 60.4379 370.234 59.9822 370.698 59.9822C371.162 59.9822 371.544 60.4379 371.544 60.9913Z" fill="#6C46B0"/>
<path d="M365.757 107.9C365.757 107.998 365.689 108.063 365.621 108.063C365.553 108.063 365.485 107.982 365.485 107.9C365.485 107.819 365.553 107.738 365.621 107.738C365.689 107.738 365.757 107.819 365.757 107.9Z" fill="#6C46B0"/>
<path d="M358.948 210.036C358.948 210.248 358.798 210.427 358.621 210.427C358.444 210.427 358.293 210.248 358.293 210.036C358.293 209.825 358.444 209.646 358.621 209.646C358.798 209.646 358.948 209.825 358.948 210.036Z" fill="#6C46B0"/>
<path d="M353.012 277.34C353.012 277.568 352.849 277.763 352.658 277.763C352.466 277.763 352.303 277.568 352.303 277.34C352.303 277.112 352.466 276.917 352.658 276.917C352.849 276.917 353.012 277.112 353.012 277.34Z" fill="#6C46B0"/>
<path d="M347.541 161.288C347.541 161.417 347.445 161.531 347.336 161.531C347.227 161.531 347.132 161.417 347.132 161.288C347.132 161.158 347.227 161.044 347.336 161.044C347.445 161.044 347.541 161.158 347.541 161.288Z" fill="#6C46B0"/>
<path d="M342.437 309.747C342.437 310.153 342.164 310.479 341.823 310.479C341.482 310.479 341.209 310.153 341.209 309.747C341.209 309.34 341.482 309.014 341.823 309.014C342.164 309.014 342.437 309.34 342.437 309.747Z" fill="#6C46B0"/>
<path d="M336.215 260.379C336.215 260.754 335.969 261.047 335.655 261.047C335.341 261.047 335.096 260.754 335.096 260.379C335.096 260.005 335.341 259.712 335.655 259.712C335.969 259.712 336.215 260.005 336.215 260.379Z" fill="#6C46B0"/>
<path d="M329.16 68.7712C329.16 69.1781 328.887 69.5199 328.532 69.5199C328.177 69.5199 327.904 69.1944 327.904 68.7712C327.904 68.348 328.177 68.0225 328.532 68.0225C328.887 68.0225 329.16 68.348 329.16 68.7712Z" fill="#6C46B0"/>
<path d="M321.887 160.311C322.324 160.311 322.678 159.888 322.678 159.367C322.678 158.846 322.324 158.423 321.887 158.423C321.45 158.423 321.095 158.846 321.095 159.367C321.095 159.888 321.45 160.311 321.887 160.311Z" fill="#6C46B0"/>
<path d="M318.038 177.402C318.038 177.678 317.847 177.906 317.615 177.906C317.383 177.906 317.192 177.678 317.192 177.402C317.192 177.125 317.383 176.897 317.615 176.897C317.847 176.897 318.038 177.125 318.038 177.402Z" fill="#6C46B0"/>
<path d="M305.266 13.0893C305.394 13.0893 305.498 12.9654 305.498 12.8126C305.498 12.6598 305.394 12.5359 305.266 12.5359C305.138 12.5359 305.034 12.6598 305.034 12.8126C305.034 12.9654 305.138 13.0893 305.266 13.0893Z" fill="#6C46B0"/>
<path d="M292.466 59.5103C292.466 59.966 292.152 60.3404 291.77 60.3404C291.388 60.3404 291.074 59.966 291.074 59.5103C291.074 59.0545 291.388 58.6802 291.77 58.6802C292.152 58.6802 292.466 59.0545 292.466 59.5103Z" fill="#6C46B0"/>
<path d="M286.38 177.727C286.38 178.151 286.093 178.509 285.725 178.509C285.356 178.509 285.07 178.167 285.07 177.727C285.07 177.288 285.356 176.946 285.725 176.946C286.093 176.946 286.38 177.288 286.38 177.727Z" fill="#6C46B0"/>
<path d="M279.912 38.3019C279.912 38.5298 279.762 38.7088 279.571 38.7088C279.38 38.7088 279.23 38.5298 279.23 38.3019C279.23 38.0741 279.38 37.895 279.571 37.895C279.762 37.895 279.912 38.0741 279.912 38.3019Z" fill="#6C46B0"/>
<path d="M273.553 75.0221C273.553 75.3639 273.321 75.6406 273.035 75.6406C272.748 75.6406 272.516 75.3639 272.516 75.0221C272.516 74.6802 272.748 74.4036 273.035 74.4036C273.321 74.4036 273.553 74.6802 273.553 75.0221Z" fill="#6C46B0"/>
<path d="M267.153 277.992C267.153 277.992 267.098 278.123 267.044 278.123C266.99 278.123 266.935 278.058 266.935 277.992C266.935 277.927 266.99 277.861 267.044 277.861C267.098 277.861 267.153 277.927 267.153 277.992Z" fill="#6C46B0"/>
<path d="M261.776 267.167C261.776 267.672 261.435 268.095 260.999 268.095C260.562 268.095 260.221 267.688 260.221 267.167C260.221 266.646 260.562 266.239 260.999 266.239C261.435 266.239 261.776 266.646 261.776 267.167Z" fill="#6C46B0"/>
<path d="M255.759 215.244C255.759 215.7 255.445 216.074 255.063 216.074C254.681 216.074 254.367 215.7 254.367 215.244C254.367 214.788 254.681 214.414 255.063 214.414C255.445 214.414 255.759 214.788 255.759 215.244Z" fill="#6C46B0"/>
<path d="M250.383 296.465C250.518 296.465 250.628 296.334 250.628 296.172C250.628 296.01 250.518 295.879 250.383 295.879C250.247 295.879 250.137 296.01 250.137 296.172C250.137 296.334 250.247 296.465 250.383 296.465Z" fill="#6C46B0"/>
<path d="M232.165 121.036C232.165 121.426 231.906 121.735 231.578 121.735C231.251 121.735 230.992 121.426 230.992 121.036C230.992 120.645 231.251 120.336 231.578 120.336C231.906 120.336 232.165 120.645 232.165 121.036Z" fill="#6C46B0"/>
<path d="M220.497 288.7C220.497 288.814 220.416 288.911 220.321 288.911C220.225 288.911 220.144 288.814 220.144 288.7C220.144 288.587 220.225 288.489 220.321 288.489C220.416 288.489 220.497 288.587 220.497 288.7Z" fill="#6C46B0"/>
<path d="M213.566 170.061C213.814 170.061 214.016 169.82 214.016 169.524C214.016 169.227 213.814 168.987 213.566 168.987C213.317 168.987 213.115 169.227 213.115 169.524C213.115 169.82 213.317 170.061 213.566 170.061Z" fill="#6C46B0"/>
<path d="M208.216 220.176C208.306 220.176 208.379 220.088 208.379 219.981C208.379 219.873 208.306 219.786 208.216 219.786C208.126 219.786 208.053 219.873 208.053 219.981C208.053 220.088 208.126 220.176 208.216 220.176Z" fill="#6C46B0"/>
<path d="M203.386 180.64C203.386 181.177 203.018 181.633 202.554 181.633C202.09 181.633 201.722 181.194 201.722 180.64C201.722 180.087 202.09 179.647 202.554 179.647C203.018 179.647 203.386 180.087 203.386 180.64Z" fill="#6C46B0"/>
<path d="M197.587 229.112C197.587 229.438 197.355 229.714 197.082 229.714C196.809 229.714 196.577 229.438 196.577 229.112C196.577 228.787 196.809 228.51 197.082 228.51C197.355 228.51 197.587 228.787 197.587 229.112Z" fill="#6C46B0"/>
<path d="M185.278 279.602C185.278 280.057 184.964 280.432 184.582 280.432C184.2 280.432 183.886 280.057 183.886 279.602C183.886 279.146 184.2 278.771 184.582 278.771C184.964 278.771 185.278 279.146 185.278 279.602Z" fill="#6C46B0"/>
<path d="M179.082 78.0167C179.082 78.0167 179.055 78.082 179.028 78.082C179.001 78.082 178.973 78.0493 178.973 78.0167C178.973 77.9841 179.001 77.9514 179.028 77.9514C179.055 77.9514 179.082 77.9841 179.082 78.0167Z" fill="#6C46B0"/>
<path d="M173.775 144.051C173.986 144.051 174.157 143.847 174.157 143.595C174.157 143.344 173.986 143.14 173.775 143.14C173.564 143.14 173.392 143.344 173.392 143.595C173.392 143.847 173.564 144.051 173.775 144.051Z" fill="#6C46B0"/>
<path d="M162.652 314.58C162.652 314.694 162.571 314.791 162.476 314.791C162.38 314.791 162.299 314.694 162.299 314.58C162.299 314.466 162.38 314.369 162.476 314.369C162.571 314.369 162.652 314.466 162.652 314.58Z" fill="#6C46B0"/>
<path d="M156.949 212.543C156.949 212.917 156.704 213.21 156.39 213.21C156.076 213.21 155.83 212.917 155.83 212.543C155.83 212.169 156.076 211.876 156.39 211.876C156.704 211.876 156.949 212.169 156.949 212.543Z" fill="#6C46B0"/>
<path d="M150.372 110.83C150.372 111.123 150.181 111.351 149.935 111.351C149.69 111.351 149.499 111.123 149.499 110.83C149.499 110.537 149.69 110.309 149.935 110.309C150.181 110.309 150.372 110.537 150.372 110.83Z" fill="#6C46B0"/>
<path d="M144.559 231.31C144.559 231.505 144.436 231.652 144.273 231.652C144.109 231.652 143.986 231.505 143.986 231.31C143.986 231.115 144.109 230.968 144.273 230.968C144.436 230.968 144.559 231.115 144.559 231.31Z" fill="#6C46B0"/>
<path d="M139.523 226.184C139.523 226.184 139.482 226.282 139.442 226.282C139.401 226.282 139.36 226.233 139.36 226.184C139.36 226.135 139.401 226.085 139.442 226.085C139.482 226.085 139.523 226.135 139.523 226.184Z" fill="#6C46B0"/>
<path d="M148.079 79.3674C148.079 79.4973 147.984 79.611 147.875 79.611C147.765 79.611 147.67 79.4973 147.67 79.3674C147.67 79.2374 147.765 79.1238 147.875 79.1238C147.984 79.1238 148.079 79.2374 148.079 79.3674Z" fill="#6C46B0"/>
<path d="M152.978 14.4728C152.978 14.5865 152.896 14.6839 152.801 14.6839C152.706 14.6839 152.624 14.5865 152.624 14.4728C152.624 14.3592 152.706 14.2617 152.801 14.2617C152.896 14.2617 152.978 14.3592 152.978 14.4728Z" fill="#6C46B0"/>
<path d="M162.953 183.619C163.134 183.619 163.281 183.444 163.281 183.228C163.281 183.013 163.134 182.838 162.953 182.838C162.772 182.838 162.626 183.013 162.626 183.228C162.626 183.444 162.772 183.619 162.953 183.619Z" fill="#6C46B0"/>
<path d="M166.433 187.754C166.433 188.079 166.215 188.34 165.942 188.34C165.669 188.34 165.451 188.079 165.451 187.754C165.451 187.428 165.669 187.168 165.942 187.168C166.215 187.168 166.433 187.428 166.433 187.754Z" fill="#6C46B0"/>
<path d="M175.945 45.9356C175.945 46.3099 175.685 46.6192 175.371 46.6192C175.058 46.6192 174.798 46.3099 174.798 45.9356C174.798 45.5612 175.058 45.252 175.371 45.252C175.685 45.252 175.945 45.5612 175.945 45.9356Z" fill="#6C46B0"/>
<path d="M178.906 182.61C178.906 182.935 178.688 183.196 178.415 183.196C178.142 183.196 177.923 182.935 177.923 182.61C177.923 182.284 178.142 182.024 178.415 182.024C178.688 182.024 178.906 182.284 178.906 182.61Z" fill="#6C46B0"/>
<path d="M185.182 157.772C185.182 158.097 184.964 158.341 184.705 158.341C184.446 158.341 184.227 158.081 184.227 157.772C184.227 157.462 184.446 157.202 184.705 157.202C184.964 157.202 185.182 157.462 185.182 157.772Z" fill="#6C46B0"/>
<path d="M191.637 120.694C191.637 121.231 191.268 121.671 190.818 121.671C190.368 121.671 189.999 121.231 189.999 120.694C189.999 120.157 190.368 119.718 190.818 119.718C191.268 119.718 191.637 120.157 191.637 120.694Z" fill="#6C46B0"/>
<path d="M197.941 25.1834C197.941 25.1834 197.914 25.265 197.873 25.265C197.832 25.265 197.805 25.2324 197.805 25.1834C197.805 25.1344 197.832 25.1018 197.873 25.1018C197.914 25.1018 197.941 25.1344 197.941 25.1834Z" fill="#6C46B0"/>
<path d="M203.877 103.784C203.877 103.784 203.836 103.899 203.782 103.899C203.727 103.899 203.687 103.85 203.687 103.784C203.687 103.718 203.727 103.669 203.782 103.669C203.836 103.669 203.877 103.718 203.877 103.784Z" fill="#6C46B0"/>
<path d="M209.622 196.575C209.704 196.575 209.771 196.495 209.771 196.396C209.771 196.297 209.704 196.217 209.622 196.217C209.539 196.217 209.472 196.297 209.472 196.396C209.472 196.495 209.539 196.575 209.622 196.575Z" fill="#6C46B0"/>
<path d="M215.422 110.782C215.422 110.782 215.408 110.831 215.381 110.831C215.354 110.831 215.34 110.815 215.34 110.782C215.34 110.749 215.354 110.733 215.381 110.733C215.408 110.733 215.422 110.749 215.422 110.782Z" fill="#6C46B0"/>
<path d="M222.108 147.111C222.108 147.42 221.89 147.681 221.631 147.681C221.371 147.681 221.153 147.42 221.153 147.111C221.153 146.802 221.371 146.541 221.631 146.541C221.89 146.541 222.108 146.802 222.108 147.111Z" fill="#6C46B0"/>
<path d="M228.017 136.384C228.017 136.531 227.921 136.661 227.785 136.661C227.648 136.661 227.553 136.547 227.553 136.384C227.553 136.222 227.648 136.108 227.785 136.108C227.921 136.108 228.017 136.222 228.017 136.384Z" fill="#6C46B0"/>
<path d="M233.966 223.041C233.966 223.367 233.748 223.611 233.489 223.611C233.229 223.611 233.011 223.35 233.011 223.041C233.011 222.732 233.229 222.471 233.489 222.471C233.748 222.471 233.966 222.732 233.966 223.041Z" fill="#6C46B0"/>
<path d="M240.094 22.4321C240.094 22.7251 239.889 22.9693 239.643 22.9693C239.398 22.9693 239.193 22.7251 239.193 22.4321C239.193 22.1392 239.398 21.895 239.643 21.895C239.889 21.895 240.094 22.1392 240.094 22.4321Z" fill="#6C46B0"/>
<path d="M246.534 131.517C246.534 131.989 246.207 132.38 245.811 132.38C245.415 132.38 245.088 131.989 245.088 131.517C245.088 131.045 245.415 130.655 245.811 130.655C246.207 130.655 246.534 131.045 246.534 131.517Z" fill="#6C46B0"/>
<path d="M251.269 79.2203C251.352 79.2203 251.419 79.1403 251.419 79.0417C251.419 78.943 251.352 78.863 251.269 78.863C251.186 78.863 251.119 78.943 251.119 79.0417C251.119 79.1403 251.186 79.2203 251.269 79.2203Z" fill="#6C46B0"/>
<path d="M270.633 133.422C270.633 133.731 270.428 133.992 270.155 133.992C269.882 133.992 269.677 133.748 269.677 133.422C269.677 133.096 269.882 132.852 270.155 132.852C270.428 132.852 270.633 133.096 270.633 133.422Z" fill="#6C46B0"/>
<path d="M288.55 230.463C288.55 230.854 288.291 231.163 287.963 231.163C287.636 231.163 287.376 230.854 287.376 230.463C287.376 230.072 287.636 229.763 287.963 229.763C288.291 229.763 288.55 230.072 288.55 230.463Z" fill="#6C46B0"/>
<path d="M294.117 207.481C294.471 207.481 294.759 207.138 294.759 206.716C294.759 206.293 294.471 205.951 294.117 205.951C293.763 205.951 293.476 206.293 293.476 206.716C293.476 207.138 293.763 207.481 294.117 207.481Z" fill="#6C46B0"/>
<path d="M301.309 202.256C301.309 202.5 301.145 202.711 300.927 202.711C300.708 202.711 300.545 202.516 300.545 202.256C300.545 201.995 300.708 201.8 300.927 201.8C301.145 201.8 301.309 201.995 301.309 202.256Z" fill="#6C46B0"/>
<path d="M307.395 233.524C307.395 233.979 307.081 234.354 306.699 234.354C306.317 234.354 306.003 233.979 306.003 233.524C306.003 233.068 306.317 232.694 306.699 232.694C307.081 232.694 307.395 233.068 307.395 233.524Z" fill="#6C46B0"/>
<path d="M314.136 228.478C314.136 229.015 313.781 229.438 313.33 229.438C312.88 229.438 312.525 229.015 312.525 228.478C312.525 227.941 312.88 227.517 313.33 227.517C313.781 227.517 314.136 227.941 314.136 228.478Z" fill="#6C46B0"/>
<path d="M319.117 100.234C319.591 100.234 319.976 99.7753 319.976 99.209C319.976 98.6427 319.591 98.1836 319.117 98.1836C318.642 98.1836 318.257 98.6427 318.257 99.209C318.257 99.7753 318.642 100.234 319.117 100.234Z" fill="#6C46B0"/>
<path d="M331.056 50.3466C331.056 50.6559 330.852 50.9 330.592 50.9C330.333 50.9 330.128 50.6559 330.128 50.3466C330.128 50.0374 330.333 49.7932 330.592 49.7932C330.852 49.7932 331.056 50.0374 331.056 50.3466Z" fill="#6C46B0"/>
<path d="M336.815 9.5247C337.154 9.5247 337.429 9.19678 337.429 8.79226C337.429 8.38774 337.154 8.05981 336.815 8.05981C336.476 8.05981 336.201 8.38774 336.201 8.79226C336.201 9.19678 336.476 9.5247 336.815 9.5247Z" fill="#6C46B0"/>
<path d="M343.229 211.29C343.229 211.501 343.078 211.68 342.901 211.68C342.724 211.68 342.573 211.501 342.573 211.29C342.573 211.078 342.724 210.899 342.901 210.899C343.078 210.899 343.229 211.078 343.229 211.29Z" fill="#6C46B0"/>
<path d="M349.956 13.415C349.956 13.887 349.642 14.2614 349.246 14.2614C348.851 14.2614 348.537 13.887 348.537 13.415C348.537 12.943 348.851 12.5686 349.246 12.5686C349.642 12.5686 349.956 12.943 349.956 13.415Z" fill="#6C46B0"/>
<path d="M360.463 138.614C360.568 138.614 360.654 138.512 360.654 138.386C360.654 138.261 360.568 138.159 360.463 138.159C360.358 138.159 360.272 138.261 360.272 138.386C360.272 138.512 360.358 138.614 360.463 138.614Z" fill="#6C46B0"/>
<path d="M366.986 176.441C366.986 176.718 366.795 176.946 366.563 176.946C366.331 176.946 366.14 176.718 366.14 176.441C366.14 176.165 366.331 175.937 366.563 175.937C366.795 175.937 366.986 176.165 366.986 176.441Z" fill="#6C46B0"/>
<path d="M372.908 67.9086C372.908 68.3481 372.608 68.7062 372.239 68.7062C371.871 68.7062 371.571 68.3481 371.571 67.9086C371.571 67.4692 371.871 67.1111 372.239 67.1111C372.608 67.1111 372.908 67.4692 372.908 67.9086Z" fill="#6C46B0"/>
<path d="M395.41 87.5874C395.719 87.5874 395.97 87.2886 395.97 86.92C395.97 86.5514 395.719 86.2527 395.41 86.2527C395.101 86.2527 394.851 86.5514 394.851 86.92C394.851 87.2886 395.101 87.5874 395.41 87.5874Z" fill="#6C46B0"/>
<path d="M402.411 16.6867C402.411 17.0611 402.152 17.3866 401.824 17.3866C401.497 17.3866 401.237 17.0773 401.237 16.6867C401.237 16.2961 401.497 15.9868 401.824 15.9868C402.152 15.9868 402.411 16.2961 402.411 16.6867Z" fill="#6C46B0"/>
<path d="M404.334 63.8074C404.334 64.1818 404.075 64.491 403.761 64.491C403.447 64.491 403.188 64.1818 403.188 63.8074C403.188 63.433 403.447 63.1238 403.761 63.1238C404.075 63.1238 404.334 63.433 404.334 63.8074Z" fill="#6C46B0"/>
<path d="M397.621 159.774C397.621 160.181 397.348 160.507 397.007 160.507C396.666 160.507 396.393 160.181 396.393 159.774C396.393 159.368 396.666 159.042 397.007 159.042C397.348 159.042 397.621 159.368 397.621 159.774Z" fill="#6C46B0"/>
<path d="M392.053 61.8055C392.053 62.2938 391.726 62.6682 391.33 62.6682C390.934 62.6682 390.607 62.2775 390.607 61.8055C390.607 61.3335 390.934 60.9429 391.33 60.9429C391.726 60.9429 392.053 61.3335 392.053 61.8055Z" fill="#6C46B0"/>
<path d="M373.058 162.655C373.058 162.655 373.031 162.72 373.004 162.72C372.977 162.72 372.949 162.688 372.949 162.655C372.949 162.622 372.977 162.59 373.004 162.59C373.031 162.59 373.058 162.622 373.058 162.655Z" fill="#6C46B0"/>
<path d="M361.241 119.929C361.241 120.482 360.859 120.938 360.395 120.938C359.931 120.938 359.549 120.482 359.549 119.929C359.549 119.375 359.931 118.919 360.395 118.919C360.859 118.919 361.241 119.375 361.241 119.929Z" fill="#6C46B0"/>
<path d="M355.359 70.6756C355.359 70.773 355.291 70.8705 355.195 70.8705C355.1 70.8705 355.032 70.7893 355.032 70.6756C355.032 70.5619 355.1 70.4807 355.195 70.4807C355.291 70.4807 355.359 70.5619 355.359 70.6756Z" fill="#6C46B0"/>
<path d="M349.683 26.0289C349.683 26.2568 349.519 26.4521 349.328 26.4521C349.137 26.4521 348.973 26.2568 348.973 26.0289C348.973 25.801 349.137 25.6057 349.328 25.6057C349.519 25.6057 349.683 25.801 349.683 26.0289Z" fill="#6C46B0"/>
<path d="M338.289 201.279C338.289 201.833 337.92 202.272 337.456 202.272C336.992 202.272 336.624 201.833 336.624 201.279C336.624 200.726 336.992 200.286 337.456 200.286C337.92 200.286 338.289 200.726 338.289 201.279Z" fill="#6C46B0"/>
<path d="M324.807 31.4171C324.844 31.4171 324.875 31.3806 324.875 31.3355C324.875 31.2904 324.844 31.2539 324.807 31.2539C324.769 31.2539 324.739 31.2904 324.739 31.3355C324.739 31.3806 324.769 31.4171 324.807 31.4171Z" fill="#6C46B0"/>
<path d="M318.298 72.3851C318.659 72.3851 318.953 72.0353 318.953 71.6038C318.953 71.1723 318.659 70.8225 318.298 70.8225C317.936 70.8225 317.643 71.1723 317.643 71.6038C317.643 72.0353 317.936 72.3851 318.298 72.3851Z" fill="#6C46B0"/>
<path d="M312.443 102.318C312.511 102.318 312.566 102.252 312.566 102.171C312.566 102.09 312.511 102.025 312.443 102.025C312.376 102.025 312.321 102.09 312.321 102.171C312.321 102.252 312.376 102.318 312.443 102.318Z" fill="#6C46B0"/>
<path d="M307.804 174.83C307.804 175.334 307.463 175.741 307.04 175.741C306.617 175.741 306.275 175.334 306.275 174.83C306.275 174.325 306.617 173.918 307.04 173.918C307.463 173.918 307.804 174.325 307.804 174.83Z" fill="#6C46B0"/>
<path d="M300.968 61.3498C300.968 61.5777 300.818 61.7567 300.627 61.7567C300.436 61.7567 300.285 61.5777 300.285 61.3498C300.285 61.1219 300.436 60.9429 300.627 60.9429C300.818 60.9429 300.968 61.1219 300.968 61.3498Z" fill="#6C46B0"/>
<path d="M290.214 186.663C290.214 187.021 289.969 187.314 289.669 187.314C289.368 187.314 289.123 187.021 289.123 186.663C289.123 186.305 289.368 186.012 289.669 186.012C289.969 186.012 290.214 186.305 290.214 186.663Z" fill="#6C46B0"/>
<path d="M276.582 215.619C276.982 215.619 277.305 215.233 277.305 214.756C277.305 214.28 276.982 213.894 276.582 213.894C276.183 213.894 275.859 214.28 275.859 214.756C275.859 215.233 276.183 215.619 276.582 215.619Z" fill="#6C46B0"/>
<path d="M271.534 47.4001C271.534 47.921 271.179 48.3441 270.742 48.3441C270.305 48.3441 269.951 47.921 269.951 47.4001C269.951 46.8792 270.305 46.4561 270.742 46.4561C271.179 46.4561 271.534 46.8792 271.534 47.4001Z" fill="#6C46B0"/>
<path d="M265.53 12.764C265.914 12.764 266.226 12.3923 266.226 11.9339C266.226 11.4754 265.914 11.1038 265.53 11.1038C265.145 11.1038 264.834 11.4754 264.834 11.9339C264.834 12.3923 265.145 12.764 265.53 12.764Z" fill="#6C46B0"/>
<path d="M259.293 62.4725C259.527 62.4725 259.716 62.2466 259.716 61.968C259.716 61.6893 259.527 61.4634 259.293 61.4634C259.06 61.4634 258.87 61.6893 258.87 61.968C258.87 62.2466 259.06 62.4725 259.293 62.4725Z" fill="#6C46B0"/>
<path d="M249.195 57.573C249.195 57.866 248.991 58.1101 248.745 58.1101C248.499 58.1101 248.295 57.866 248.295 57.573C248.295 57.28 248.499 57.0359 248.745 57.0359C248.991 57.0359 249.195 57.28 249.195 57.573Z" fill="#6C46B0"/>
<path d="M230.76 152.645C230.76 152.922 230.568 153.15 230.336 153.15C230.104 153.15 229.913 152.922 229.913 152.645C229.913 152.368 230.104 152.14 230.336 152.14C230.568 152.14 230.76 152.368 230.76 152.645Z" fill="#6C46B0"/>
<path d="M225.411 17.4674C225.411 17.6135 225.315 17.7272 225.192 17.7272C225.07 17.7272 224.974 17.6135 224.974 17.4674C224.974 17.3212 225.07 17.2075 225.192 17.2075C225.315 17.2075 225.411 17.3212 225.411 17.4674Z" fill="#6C46B0"/>
<path d="M213.566 111.09C213.566 111.513 213.279 111.871 212.911 111.871C212.542 111.871 212.256 111.53 212.256 111.09C212.256 110.651 212.542 110.309 212.911 110.309C213.279 110.309 213.566 110.651 213.566 111.09Z" fill="#6C46B0"/>
<path d="M193.82 132.445C193.82 132.543 193.752 132.624 193.67 132.624C193.588 132.624 193.52 132.543 193.52 132.445C193.52 132.348 193.588 132.267 193.67 132.267C193.752 132.267 193.82 132.348 193.82 132.445Z" fill="#6C46B0"/>
<path d="M182.317 211.729C182.317 212.299 181.921 212.771 181.444 212.771C180.966 212.771 180.571 212.299 180.571 211.729C180.571 211.16 180.966 210.688 181.444 210.688C181.921 210.688 182.317 211.16 182.317 211.729Z" fill="#6C46B0"/>
<path d="M175.303 98.5903C175.303 98.9158 175.085 99.1925 174.798 99.1925C174.512 99.1925 174.293 98.9321 174.293 98.5903C174.293 98.2485 174.512 97.988 174.798 97.988C175.085 97.988 175.303 98.2485 175.303 98.5903Z" fill="#6C46B0"/>
<path d="M164.318 75.3634C164.318 75.8354 163.991 76.226 163.595 76.226C163.199 76.226 162.872 75.8354 162.872 75.3634C162.872 74.8914 163.199 74.5007 163.595 74.5007C163.991 74.5007 164.318 74.8914 164.318 75.3634Z" fill="#6C46B0"/>
<path d="M158.409 207.839C158.409 208.344 158.068 208.75 157.645 208.75C157.222 208.75 156.881 208.344 156.881 207.839C156.881 207.334 157.222 206.927 157.645 206.927C158.068 206.927 158.409 207.334 158.409 207.839Z" fill="#6C46B0"/>
<path d="M151.928 142.244C151.928 142.618 151.669 142.928 151.355 142.928C151.041 142.928 150.782 142.618 150.782 142.244C150.782 141.87 151.041 141.56 151.355 141.56C151.669 141.56 151.928 141.87 151.928 142.244Z" fill="#6C46B0"/>
<path d="M143.959 92.0147C143.959 92.2588 143.795 92.4541 143.59 92.4541C143.385 92.4541 143.222 92.2588 143.222 92.0147C143.222 91.7705 143.385 91.5752 143.59 91.5752C143.795 91.5752 143.959 91.7705 143.959 92.0147Z" fill="#6C46B0"/>
</g>
<mask id="mask1_30_29708" style="mask-type:luminance" maskUnits="userSpaceOnUse" x="135" y="324" width="394" height="469">
<path d="M528.73 324.135H135.73V792.901H528.73V324.135Z" fill="white"/>
</mask>
<g mask="url(#mask1_30_29708)">
<path d="M190.313 436.427C190.313 436.557 190.231 436.654 190.122 436.654C190.013 436.654 189.931 436.557 189.931 436.427C189.931 436.297 190.013 436.199 190.122 436.199C190.231 436.199 190.313 436.297 190.313 436.427Z" fill="#6C46B0"/>
<path d="M168.302 425.571C168.302 426.075 167.961 426.498 167.525 426.498C167.088 426.498 166.747 426.091 166.747 425.571C166.747 425.05 167.088 424.643 167.525 424.643C167.961 424.643 168.302 425.05 168.302 425.571Z" fill="#6C46B0"/>
<path d="M142.881 394.889C143.212 394.889 143.481 394.568 143.481 394.173C143.481 393.777 143.212 393.457 142.881 393.457C142.549 393.457 142.28 393.777 142.28 394.173C142.28 394.568 142.549 394.889 142.881 394.889Z" fill="#6C46B0"/>
<path d="M276.965 413.184C276.965 413.526 276.733 413.803 276.446 413.803C276.159 413.803 275.927 413.526 275.927 413.184C275.927 412.842 276.159 412.566 276.446 412.566C276.733 412.566 276.965 412.842 276.965 413.184Z" fill="#6C46B0"/>
<path d="M325.558 380.208C325.558 380.631 325.271 380.973 324.916 380.973C324.561 380.973 324.275 380.631 324.275 380.208C324.275 379.785 324.561 379.443 324.916 379.443C325.271 379.443 325.558 379.785 325.558 380.208Z" fill="#6C46B0"/>
<path d="M355.06 383.349C355.06 383.642 354.855 383.87 354.623 383.87C354.391 383.87 354.187 383.626 354.187 383.349C354.187 383.073 354.391 382.828 354.623 382.828C354.855 382.828 355.06 383.073 355.06 383.349Z" fill="#6C46B0"/>
<path d="M378.967 373.535C378.967 374.039 378.626 374.446 378.203 374.446C377.78 374.446 377.439 374.039 377.439 373.535C377.439 373.03 377.78 372.623 378.203 372.623C378.626 372.623 378.967 373.03 378.967 373.535Z" fill="#6C46B0"/>
<path d="M384.262 410.971C384.262 411.329 384.016 411.622 383.716 411.622C383.416 411.622 383.17 411.329 383.17 410.971C383.17 410.613 383.416 410.32 383.716 410.32C384.016 410.32 384.262 410.613 384.262 410.971Z" fill="#6C46B0"/>
<path d="M389.856 434.653C389.856 434.832 389.734 434.979 389.583 434.979C389.433 434.979 389.311 434.832 389.311 434.653C389.311 434.474 389.433 434.328 389.583 434.328C389.734 434.328 389.856 434.474 389.856 434.653Z" fill="#6C46B0"/>
<path d="M379.363 386.995C379.363 387.255 379.185 387.451 378.98 387.451C378.776 387.451 378.598 387.239 378.598 386.995C378.598 386.751 378.776 386.539 378.98 386.539C379.185 386.539 379.363 386.751 379.363 386.995Z" fill="#6C46B0"/>
<path d="M368.815 417.383C368.815 417.953 368.433 418.425 367.941 418.425C367.45 418.425 367.068 417.969 367.068 417.383C367.068 416.797 367.45 416.342 367.941 416.342C368.433 416.342 368.815 416.797 368.815 417.383Z" fill="#6C46B0"/>
<path d="M343.829 426.124C344.229 426.124 344.552 425.738 344.552 425.262C344.552 424.785 344.229 424.399 343.829 424.399C343.43 424.399 343.106 424.785 343.106 425.262C343.106 425.738 343.43 426.124 343.829 426.124Z" fill="#6C46B0"/>
<path d="M331.002 407.244C331.002 407.585 330.77 407.862 330.484 407.862C330.197 407.862 329.965 407.585 329.965 407.244C329.965 406.902 330.197 406.625 330.484 406.625C330.77 406.625 331.002 406.902 331.002 407.244Z" fill="#6C46B0"/>
<path d="M296.069 379.784C296.069 380.273 295.741 380.663 295.332 380.663C294.923 380.663 294.595 380.273 294.595 379.784C294.595 379.296 294.923 378.906 295.332 378.906C295.741 378.906 296.069 379.296 296.069 379.784Z" fill="#6C46B0"/>
<path d="M283.078 435.956C283.1 435.956 283.119 435.934 283.119 435.907C283.119 435.88 283.1 435.858 283.078 435.858C283.055 435.858 283.037 435.88 283.037 435.907C283.037 435.934 283.055 435.956 283.078 435.956Z" fill="#6C46B0"/>
<path d="M253.957 386.084C253.987 386.084 254.012 386.055 254.012 386.019C254.012 385.983 253.987 385.953 253.957 385.953C253.927 385.953 253.903 385.983 253.903 386.019C253.903 386.055 253.927 386.084 253.957 386.084Z" fill="#6C46B0"/>
<path d="M242.768 429.834C242.889 429.834 242.986 429.718 242.986 429.574C242.986 429.431 242.889 429.314 242.768 429.314C242.648 429.314 242.55 429.431 242.55 429.574C242.55 429.718 242.648 429.834 242.768 429.834Z" fill="#6C46B0"/>
<path d="M237.324 372.298C237.324 372.688 237.064 372.997 236.737 372.997C236.409 372.997 236.15 372.688 236.15 372.298C236.15 371.907 236.409 371.598 236.737 371.598C237.064 371.598 237.324 371.907 237.324 372.298Z" fill="#6C46B0"/>
<path d="M217.128 383.268C217.316 383.268 217.469 383.086 217.469 382.861C217.469 382.636 217.316 382.454 217.128 382.454C216.939 382.454 216.787 382.636 216.787 382.861C216.787 383.086 216.939 383.268 217.128 383.268Z" fill="#6C46B0"/>
<path d="M204.819 385.97C204.819 385.97 204.806 386.02 204.778 386.02C204.751 386.02 204.738 386.003 204.738 385.97C204.738 385.938 204.751 385.921 204.778 385.921C204.806 385.921 204.819 385.938 204.819 385.97Z" fill="#6C46B0"/>
<path d="M201.203 324.445C201.203 324.819 200.957 325.112 200.643 325.112C200.33 325.112 200.084 324.819 200.084 324.445C200.084 324.071 200.33 323.778 200.643 323.778C200.957 323.778 201.203 324.071 201.203 324.445Z" fill="#6C46B0"/>
<path d="M188.184 403.402C188.184 403.515 188.116 403.597 188.021 403.597C187.925 403.597 187.857 403.515 187.857 403.402C187.857 403.288 187.925 403.207 188.021 403.207C188.116 403.207 188.184 403.288 188.184 403.402Z" fill="#6C46B0"/>
<path d="M139.127 435.45C139.127 435.531 139.073 435.613 138.991 435.613C138.909 435.613 138.855 435.548 138.855 435.45C138.855 435.353 138.909 435.288 138.991 435.288C139.073 435.288 139.127 435.353 139.127 435.45Z" fill="#6C46B0"/>
</g>
<rect x="225.144" y="434.908" width="92.706" height="3.45918" rx="1.72959" fill="white"/>
<rect x="147.145" y="372.517" width="211.702" height="32.5163" rx="16.2581" fill="#532F8D"/>
<rect x="147.145" y="372.517" width="211.702" height="32.5163" rx="16.2581" stroke="#A881D9" stroke-width="0.691836"/>
<path d="M169.802 384.758L167.566 392.473H166.436L164.643 386.263L162.784 392.473L161.666 392.484L159.507 384.758H160.581L162.263 391.3L164.123 384.758H165.252L167.023 391.277L168.717 384.758H169.802ZM171.911 387.392C172.088 387.045 172.339 386.776 172.664 386.584C172.996 386.392 173.398 386.296 173.871 386.296V387.337H173.605C172.476 387.337 171.911 387.949 171.911 389.174V392.473H170.904V386.407H171.911V387.392ZM175.554 385.422C175.362 385.422 175.199 385.355 175.067 385.222C174.934 385.09 174.867 384.927 174.867 384.735C174.867 384.544 174.934 384.381 175.067 384.248C175.199 384.116 175.362 384.049 175.554 384.049C175.738 384.049 175.893 384.116 176.018 384.248C176.151 384.381 176.218 384.544 176.218 384.735C176.218 384.927 176.151 385.09 176.018 385.222C175.893 385.355 175.738 385.422 175.554 385.422ZM176.041 386.407V392.473H175.033V386.407H176.041ZM178.986 387.237V390.812C178.986 391.108 179.049 391.318 179.174 391.443C179.3 391.562 179.517 391.621 179.827 391.621H180.569V392.473H179.661C179.1 392.473 178.68 392.344 178.399 392.085C178.119 391.827 177.979 391.403 177.979 390.812V387.237H177.193V386.407H177.979V384.879H178.986V386.407H180.569V387.237H178.986ZM187.324 389.207C187.324 389.399 187.313 389.602 187.291 389.816H182.443C182.48 390.414 182.682 390.883 183.051 391.222C183.428 391.554 183.882 391.72 184.413 391.72C184.848 391.72 185.21 391.621 185.498 391.421C185.793 391.215 186 390.942 186.118 390.602H187.202C187.04 391.185 186.715 391.661 186.228 392.03C185.741 392.392 185.136 392.573 184.413 392.573C183.837 392.573 183.321 392.443 182.863 392.185C182.413 391.927 182.059 391.562 181.801 391.089C181.542 390.61 181.413 390.056 181.413 389.429C181.413 388.802 181.539 388.252 181.79 387.779C182.04 387.307 182.391 386.946 182.841 386.695C183.299 386.436 183.823 386.307 184.413 386.307C184.989 386.307 185.498 386.433 185.941 386.684C186.383 386.935 186.723 387.281 186.959 387.724C187.202 388.16 187.324 388.654 187.324 389.207ZM186.284 388.997C186.284 388.613 186.199 388.285 186.029 388.012C185.859 387.732 185.627 387.521 185.332 387.381C185.044 387.233 184.723 387.16 184.369 387.16C183.859 387.16 183.424 387.322 183.063 387.647C182.708 387.971 182.505 388.422 182.454 388.997H186.284ZM198.9 386.296C199.372 386.296 199.793 386.396 200.162 386.595C200.531 386.787 200.822 387.078 201.036 387.47C201.25 387.861 201.357 388.337 201.357 388.897V392.473H200.361V389.041C200.361 388.436 200.21 387.975 199.907 387.658C199.612 387.333 199.21 387.171 198.7 387.171C198.176 387.171 197.76 387.34 197.45 387.68C197.14 388.012 196.985 388.495 196.985 389.13V392.473H195.988V389.041C195.988 388.436 195.837 387.975 195.535 387.658C195.239 387.333 194.837 387.171 194.328 387.171C193.804 387.171 193.387 387.34 193.077 387.68C192.767 388.012 192.612 388.495 192.612 389.13V392.473H191.605V386.407H192.612V387.281C192.812 386.964 193.077 386.721 193.409 386.551C193.749 386.381 194.121 386.296 194.527 386.296C195.036 386.296 195.487 386.411 195.878 386.639C196.269 386.868 196.56 387.204 196.752 387.647C196.922 387.219 197.202 386.887 197.593 386.65C197.985 386.414 198.42 386.296 198.9 386.296ZM208.544 389.207C208.544 389.399 208.533 389.602 208.511 389.816H203.663C203.699 390.414 203.902 390.883 204.271 391.222C204.648 391.554 205.102 391.72 205.633 391.72C206.068 391.72 206.43 391.621 206.718 391.421C207.013 391.215 207.219 390.942 207.338 390.602H208.422C208.26 391.185 207.935 391.661 207.448 392.03C206.961 392.392 206.356 392.573 205.633 392.573C205.057 392.573 204.541 392.443 204.083 392.185C203.633 391.927 203.279 391.562 203.021 391.089C202.762 390.61 202.633 390.056 202.633 389.429C202.633 388.802 202.759 388.252 203.009 387.779C203.26 387.307 203.611 386.946 204.061 386.695C204.519 386.436 205.043 386.307 205.633 386.307C206.208 386.307 206.718 386.433 207.16 386.684C207.603 386.935 207.943 387.281 208.179 387.724C208.422 388.16 208.544 388.654 208.544 389.207ZM207.504 388.997C207.504 388.613 207.419 388.285 207.249 388.012C207.079 387.732 206.847 387.521 206.552 387.381C206.264 387.233 205.943 387.16 205.589 387.16C205.079 387.16 204.644 387.322 204.282 387.647C203.928 387.971 203.725 388.422 203.674 388.997H207.504ZM212.021 392.573C211.556 392.573 211.139 392.495 210.77 392.34C210.401 392.178 210.11 391.956 209.896 391.676C209.682 391.388 209.564 391.06 209.542 390.691H210.582C210.612 390.993 210.752 391.241 211.003 391.432C211.261 391.624 211.597 391.72 212.01 391.72C212.394 391.72 212.696 391.635 212.918 391.466C213.139 391.296 213.25 391.082 213.25 390.824C213.25 390.558 213.132 390.362 212.896 390.237C212.66 390.104 212.294 389.975 211.8 389.849C211.35 389.731 210.981 389.613 210.693 389.495C210.412 389.37 210.169 389.189 209.962 388.953C209.763 388.709 209.663 388.392 209.663 388.001C209.663 387.691 209.756 387.407 209.94 387.149C210.125 386.89 210.387 386.687 210.726 386.54C211.066 386.385 211.453 386.307 211.888 386.307C212.56 386.307 213.102 386.477 213.516 386.816C213.929 387.156 214.15 387.621 214.18 388.211H213.172C213.15 387.894 213.021 387.639 212.785 387.447C212.556 387.256 212.246 387.16 211.855 387.16C211.494 387.16 211.206 387.237 210.992 387.392C210.778 387.547 210.671 387.75 210.671 388.001C210.671 388.2 210.733 388.366 210.859 388.499C210.992 388.624 211.154 388.728 211.346 388.809C211.545 388.883 211.818 388.968 212.165 389.064C212.6 389.182 212.955 389.3 213.228 389.418C213.501 389.528 213.733 389.698 213.925 389.927C214.124 390.156 214.228 390.455 214.235 390.824C214.235 391.156 214.143 391.455 213.958 391.72C213.774 391.986 213.512 392.196 213.172 392.351C212.84 392.499 212.457 392.573 212.021 392.573ZM217.805 392.573C217.34 392.573 216.923 392.495 216.554 392.34C216.185 392.178 215.893 391.956 215.679 391.676C215.465 391.388 215.347 391.06 215.325 390.691H216.366C216.395 390.993 216.535 391.241 216.786 391.432C217.044 391.624 217.38 391.72 217.793 391.72C218.177 391.72 218.48 391.635 218.701 391.466C218.923 391.296 219.033 391.082 219.033 390.824C219.033 390.558 218.915 390.362 218.679 390.237C218.443 390.104 218.078 389.975 217.583 389.849C217.133 389.731 216.764 389.613 216.476 389.495C216.196 389.37 215.952 389.189 215.746 388.953C215.546 388.709 215.447 388.392 215.447 388.001C215.447 387.691 215.539 387.407 215.723 387.149C215.908 386.89 216.17 386.687 216.509 386.54C216.849 386.385 217.236 386.307 217.672 386.307C218.343 386.307 218.886 386.477 219.299 386.816C219.712 387.156 219.934 387.621 219.963 388.211H218.956C218.934 387.894 218.804 387.639 218.568 387.447C218.34 387.256 218.03 387.16 217.638 387.16C217.277 387.16 216.989 387.237 216.775 387.392C216.561 387.547 216.454 387.75 216.454 388.001C216.454 388.2 216.517 388.366 216.642 388.499C216.775 388.624 216.937 388.728 217.129 388.809C217.329 388.883 217.602 388.968 217.948 389.064C218.384 389.182 218.738 389.3 219.011 389.418C219.284 389.528 219.517 389.698 219.708 389.927C219.908 390.156 220.011 390.455 220.018 390.824C220.018 391.156 219.926 391.455 219.742 391.72C219.557 391.986 219.295 392.196 218.956 392.351C218.624 392.499 218.24 392.573 217.805 392.573ZM221.064 389.418C221.064 388.798 221.189 388.255 221.44 387.791C221.691 387.318 222.034 386.953 222.47 386.695C222.913 386.436 223.403 386.307 223.942 386.307C224.473 386.307 224.935 386.422 225.326 386.65C225.717 386.879 226.008 387.167 226.2 387.514V386.407H227.219V392.473H226.2V391.344C226.001 391.698 225.702 391.993 225.304 392.229C224.912 392.458 224.455 392.573 223.931 392.573C223.392 392.573 222.905 392.44 222.47 392.174C222.034 391.908 221.691 391.536 221.44 391.056C221.189 390.576 221.064 390.03 221.064 389.418ZM226.2 389.429C226.2 388.971 226.108 388.573 225.923 388.233C225.739 387.894 225.488 387.636 225.171 387.458C224.861 387.274 224.518 387.182 224.141 387.182C223.765 387.182 223.422 387.27 223.112 387.447C222.802 387.625 222.555 387.883 222.37 388.222C222.186 388.562 222.093 388.96 222.093 389.418C222.093 389.883 222.186 390.289 222.37 390.635C222.555 390.975 222.802 391.237 223.112 391.421C223.422 391.598 223.765 391.687 224.141 391.687C224.518 391.687 224.861 391.598 225.171 391.421C225.488 391.237 225.739 390.975 225.923 390.635C226.108 390.289 226.2 389.886 226.2 389.429ZM231.423 386.307C231.946 386.307 232.404 386.422 232.795 386.65C233.194 386.879 233.489 387.167 233.681 387.514V386.407H234.699V392.606C234.699 393.159 234.581 393.65 234.345 394.078C234.109 394.513 233.769 394.853 233.326 395.096C232.891 395.34 232.382 395.462 231.799 395.462C231.002 395.462 230.338 395.273 229.806 394.897C229.275 394.521 228.961 394.008 228.866 393.358H229.862C229.972 393.727 230.201 394.023 230.548 394.244C230.895 394.473 231.312 394.587 231.799 394.587C232.352 394.587 232.803 394.414 233.149 394.067C233.504 393.72 233.681 393.233 233.681 392.606V391.333C233.481 391.687 233.186 391.982 232.795 392.218C232.404 392.454 231.946 392.573 231.423 392.573C230.884 392.573 230.393 392.44 229.95 392.174C229.515 391.908 229.172 391.536 228.921 391.056C228.67 390.576 228.544 390.03 228.544 389.418C228.544 388.798 228.67 388.255 228.921 387.791C229.172 387.318 229.515 386.953 229.95 386.695C230.393 386.436 230.884 386.307 231.423 386.307ZM233.681 389.429C233.681 388.971 233.588 388.573 233.404 388.233C233.219 387.894 232.969 387.636 232.651 387.458C232.341 387.274 231.998 387.182 231.622 387.182C231.245 387.182 230.902 387.27 230.592 387.447C230.282 387.625 230.035 387.883 229.851 388.222C229.666 388.562 229.574 388.96 229.574 389.418C229.574 389.883 229.666 390.289 229.851 390.635C230.035 390.975 230.282 391.237 230.592 391.421C230.902 391.598 231.245 391.687 231.622 391.687C231.998 391.687 232.341 391.598 232.651 391.421C232.969 391.237 233.219 390.975 233.404 390.635C233.588 390.289 233.681 389.886 233.681 389.429ZM241.936 389.207C241.936 389.399 241.925 389.602 241.903 389.816H237.054C237.091 390.414 237.294 390.883 237.663 391.222C238.04 391.554 238.493 391.72 239.025 391.72C239.46 391.72 239.822 391.621 240.11 391.421C240.405 391.215 240.611 390.942 240.729 390.602H241.814C241.652 391.185 241.327 391.661 240.84 392.03C240.353 392.392 239.748 392.573 239.025 392.573C238.449 392.573 237.933 392.443 237.475 392.185C237.025 391.927 236.671 391.562 236.412 391.089C236.154 390.61 236.025 390.056 236.025 389.429C236.025 388.802 236.15 388.252 236.401 387.779C236.652 387.307 237.003 386.946 237.453 386.695C237.91 386.436 238.434 386.307 239.025 386.307C239.6 386.307 240.11 386.433 240.552 386.684C240.995 386.935 241.335 387.281 241.571 387.724C241.814 388.16 241.936 388.654 241.936 389.207ZM240.896 388.997C240.896 388.613 240.811 388.285 240.641 388.012C240.471 387.732 240.239 387.521 239.944 387.381C239.656 387.233 239.335 387.16 238.981 387.16C238.471 387.16 238.036 387.322 237.674 387.647C237.32 387.971 237.117 388.422 237.066 388.997H240.896ZM246.538 392.539C246.346 392.539 246.184 392.473 246.051 392.34C245.918 392.207 245.851 392.045 245.851 391.853C245.851 391.661 245.918 391.499 246.051 391.366C246.184 391.233 246.346 391.167 246.538 391.167C246.722 391.167 246.877 391.233 247.003 391.366C247.136 391.499 247.202 391.661 247.202 391.853C247.202 392.045 247.136 392.207 247.003 392.34C246.877 392.473 246.722 392.539 246.538 392.539ZM248.862 392.539C248.67 392.539 248.508 392.473 248.375 392.34C248.242 392.207 248.176 392.045 248.176 391.853C248.176 391.661 248.242 391.499 248.375 391.366C248.508 391.233 248.67 391.167 248.862 391.167C249.046 391.167 249.201 391.233 249.327 391.366C249.46 391.499 249.526 391.661 249.526 391.853C249.526 392.045 249.46 392.207 249.327 392.34C249.201 392.473 249.046 392.539 248.862 392.539ZM251.186 392.539C250.994 392.539 250.832 392.473 250.699 392.34C250.566 392.207 250.5 392.045 250.5 391.853C250.5 391.661 250.566 391.499 250.699 391.366C250.832 391.233 250.994 391.167 251.186 391.167C251.371 391.167 251.526 391.233 251.651 391.366C251.784 391.499 251.85 391.661 251.85 391.853C251.85 392.045 251.784 392.207 251.651 392.34C251.526 392.473 251.371 392.539 251.186 392.539Z" fill="#A881D9"/>
<rect x="363.69" y="372.517" width="32.5163" height="32.5163" rx="16.2581" fill="#532F8D"/>
<rect x="363.69" y="372.517" width="32.5163" height="32.5163" rx="16.2581" stroke="#2B164E" stroke-width="0.691836"/>
<g clip-path="url(#clip3_30_29708)">
<path d="M386.595 383.679C386.944 382.714 386.009 381.78 385.044 382.129L373.256 386.392C372.288 386.743 372.171 388.063 373.062 388.579L376.825 390.757L380.185 387.397C380.337 387.25 380.541 387.169 380.752 387.171C380.964 387.173 381.167 387.257 381.316 387.407C381.466 387.557 381.551 387.759 381.553 387.971C381.554 388.182 381.473 388.386 381.326 388.539L377.966 391.899L380.145 395.662C380.66 396.552 381.981 396.434 382.331 395.467L386.595 383.679Z" fill="#59B7FF"/>
</g>


<path d="M396.988 131.661C396.988 113.623 382.365 99 364.327 99H218.494C209.385 99 202 106.385 202 115.494C202 124.603 209.385 131.988 218.494 131.988H396.661C396.842 131.988 396.988 131.842 396.988 131.661Z" fill="url(#paint1_linear_30_29708)"/>
<path d="M216.743 117.619H213.924L213.44 118.994H212.287L214.699 112.253H215.978L218.389 118.994H217.227L216.743 117.619ZM216.433 116.718L215.338 113.589L214.234 116.718H216.433ZM221.375 119.081C220.955 119.081 220.578 119.007 220.242 118.858C219.913 118.703 219.651 118.497 219.457 118.238C219.264 117.974 219.16 117.68 219.147 117.357H220.29C220.31 117.583 220.416 117.773 220.61 117.928C220.81 118.077 221.059 118.151 221.356 118.151C221.666 118.151 221.905 118.093 222.073 117.977C222.247 117.854 222.334 117.699 222.334 117.512C222.334 117.312 222.237 117.163 222.043 117.066C221.856 116.97 221.556 116.863 221.143 116.747C220.742 116.637 220.416 116.53 220.164 116.427C219.913 116.324 219.693 116.166 219.506 115.953C219.325 115.739 219.235 115.459 219.235 115.11C219.235 114.826 219.319 114.568 219.486 114.335C219.654 114.096 219.893 113.909 220.203 113.773C220.52 113.638 220.881 113.57 221.288 113.57C221.895 113.57 222.382 113.725 222.751 114.035C223.125 114.338 223.325 114.755 223.351 115.284H222.247C222.228 115.045 222.131 114.855 221.956 114.713C221.782 114.571 221.546 114.5 221.249 114.5C220.959 114.5 220.736 114.555 220.581 114.664C220.426 114.774 220.348 114.919 220.348 115.1C220.348 115.242 220.4 115.362 220.503 115.459C220.607 115.555 220.733 115.633 220.881 115.691C221.03 115.743 221.249 115.811 221.54 115.894C221.927 115.998 222.244 116.104 222.489 116.214C222.741 116.317 222.957 116.472 223.138 116.679C223.319 116.886 223.412 117.16 223.419 117.502C223.419 117.806 223.335 118.077 223.167 118.316C222.999 118.555 222.76 118.742 222.45 118.878C222.147 119.013 221.788 119.081 221.375 119.081ZM225.9 114.558V117.512C225.9 117.712 225.945 117.857 226.036 117.948C226.133 118.032 226.294 118.074 226.52 118.074H227.198V118.994H226.326C225.829 118.994 225.448 118.878 225.183 118.645C224.919 118.413 224.786 118.035 224.786 117.512V114.558H224.157V113.657H224.786V112.33H225.9V113.657H227.198V114.558H225.9ZM229.32 114.432C229.481 114.161 229.694 113.951 229.959 113.802C230.23 113.647 230.55 113.57 230.918 113.57V114.713H230.637C230.205 114.713 229.875 114.823 229.649 115.042C229.43 115.262 229.32 115.643 229.32 116.185V118.994H228.216V113.657H229.32V114.432ZM234.248 119.081C233.744 119.081 233.289 118.968 232.882 118.742C232.475 118.51 232.156 118.187 231.923 117.773C231.691 117.354 231.575 116.869 231.575 116.321C231.575 115.778 231.694 115.297 231.933 114.877C232.172 114.458 232.498 114.135 232.911 113.909C233.324 113.683 233.786 113.57 234.296 113.57C234.806 113.57 235.268 113.683 235.681 113.909C236.095 114.135 236.421 114.458 236.66 114.877C236.899 115.297 237.018 115.778 237.018 116.321C237.018 116.863 236.895 117.344 236.65 117.764C236.405 118.184 236.069 118.51 235.643 118.742C235.223 118.968 234.758 119.081 234.248 119.081ZM234.248 118.122C234.532 118.122 234.797 118.054 235.042 117.919C235.294 117.783 235.497 117.58 235.652 117.309C235.807 117.037 235.885 116.708 235.885 116.321C235.885 115.933 235.81 115.607 235.662 115.342C235.513 115.071 235.317 114.868 235.071 114.732C234.826 114.597 234.561 114.529 234.277 114.529C233.993 114.529 233.728 114.597 233.483 114.732C233.244 114.868 233.053 115.071 232.911 115.342C232.769 115.607 232.698 115.933 232.698 116.321C232.698 116.895 232.843 117.341 233.134 117.657C233.431 117.967 233.802 118.122 234.248 118.122ZM239.214 111.826V118.994H238.11V111.826H239.214ZM242.978 119.081C242.475 119.081 242.019 118.968 241.613 118.742C241.206 118.51 240.886 118.187 240.654 117.773C240.421 117.354 240.305 116.869 240.305 116.321C240.305 115.778 240.424 115.297 240.663 114.877C240.902 114.458 241.228 114.135 241.642 113.909C242.055 113.683 242.517 113.57 243.027 113.57C243.537 113.57 243.998 113.683 244.412 113.909C244.825 114.135 245.151 114.458 245.39 114.877C245.629 115.297 245.748 115.778 245.748 116.321C245.748 116.863 245.626 117.344 245.38 117.764C245.135 118.184 244.799 118.51 244.373 118.742C243.953 118.968 243.488 119.081 242.978 119.081ZM242.978 118.122C243.262 118.122 243.527 118.054 243.772 117.919C244.024 117.783 244.228 117.58 244.383 117.309C244.538 117.037 244.615 116.708 244.615 116.321C244.615 115.933 244.541 115.607 244.392 115.342C244.244 115.071 244.047 114.868 243.802 114.732C243.556 114.597 243.291 114.529 243.007 114.529C242.723 114.529 242.458 114.597 242.213 114.732C241.974 114.868 241.784 115.071 241.642 115.342C241.5 115.607 241.429 115.933 241.429 116.321C241.429 116.895 241.574 117.341 241.864 117.657C242.161 117.967 242.533 118.122 242.978 118.122ZM248.99 113.57C249.403 113.57 249.768 113.654 250.085 113.822C250.407 113.983 250.659 114.187 250.84 114.432V113.657H251.954V119.081C251.954 119.572 251.851 120.008 251.644 120.389C251.437 120.776 251.137 121.08 250.743 121.299C250.356 121.519 249.891 121.628 249.348 121.628C248.625 121.628 248.025 121.457 247.547 121.115C247.069 120.779 246.798 120.321 246.733 119.74H247.828C247.912 120.017 248.089 120.24 248.361 120.408C248.638 120.582 248.968 120.67 249.348 120.67C249.794 120.67 250.152 120.534 250.424 120.263C250.701 119.992 250.84 119.598 250.84 119.081V118.19C250.653 118.442 250.398 118.655 250.075 118.829C249.759 118.997 249.397 119.081 248.99 119.081C248.525 119.081 248.099 118.965 247.712 118.732C247.331 118.493 247.027 118.164 246.801 117.744C246.582 117.318 246.472 116.837 246.472 116.301C246.472 115.765 246.582 115.291 246.801 114.877C247.027 114.464 247.331 114.145 247.712 113.919C248.099 113.686 248.525 113.57 248.99 113.57ZM250.84 116.321C250.84 115.953 250.763 115.633 250.608 115.362C250.459 115.091 250.262 114.884 250.017 114.742C249.771 114.6 249.507 114.529 249.223 114.529C248.938 114.529 248.674 114.6 248.428 114.742C248.183 114.877 247.983 115.081 247.828 115.352C247.679 115.617 247.605 115.933 247.605 116.301C247.605 116.669 247.679 116.992 247.828 117.27C247.983 117.547 248.183 117.761 248.428 117.909C248.68 118.051 248.945 118.122 249.223 118.122C249.507 118.122 249.771 118.051 250.017 117.909C250.262 117.767 250.459 117.56 250.608 117.289C250.763 117.012 250.84 116.689 250.84 116.321ZM258.208 113.657L254.935 121.502H253.792L254.876 118.907L252.775 113.657H254.005L255.506 117.725L257.065 113.657H258.208ZM263.495 119.081C263.075 119.081 262.697 119.007 262.362 118.858C262.032 118.703 261.771 118.497 261.577 118.238C261.383 117.974 261.28 117.68 261.267 117.357H262.41C262.429 117.583 262.536 117.773 262.73 117.928C262.93 118.077 263.178 118.151 263.475 118.151C263.785 118.151 264.024 118.093 264.192 117.977C264.366 117.854 264.454 117.699 264.454 117.512C264.454 117.312 264.357 117.163 264.163 117.066C263.976 116.97 263.676 116.863 263.262 116.747C262.862 116.637 262.536 116.53 262.284 116.427C262.032 116.324 261.813 116.166 261.625 115.953C261.445 115.739 261.354 115.459 261.354 115.11C261.354 114.826 261.438 114.568 261.606 114.335C261.774 114.096 262.013 113.909 262.323 113.773C262.639 113.638 263.001 113.57 263.408 113.57C264.015 113.57 264.502 113.725 264.87 114.035C265.245 114.338 265.445 114.755 265.471 115.284H264.366C264.347 115.045 264.25 114.855 264.076 114.713C263.902 114.571 263.666 114.5 263.369 114.5C263.078 114.5 262.855 114.555 262.701 114.664C262.546 114.774 262.468 114.919 262.468 115.1C262.468 115.242 262.52 115.362 262.623 115.459C262.726 115.555 262.852 115.633 263.001 115.691C263.149 115.743 263.369 115.811 263.659 115.894C264.047 115.998 264.363 116.104 264.609 116.214C264.86 116.317 265.077 116.472 265.258 116.679C265.438 116.886 265.532 117.16 265.538 117.502C265.538 117.806 265.454 118.077 265.287 118.316C265.119 118.555 264.88 118.742 264.57 118.878C264.266 119.013 263.908 119.081 263.495 119.081ZM266.363 116.301C266.363 115.765 266.473 115.291 266.693 114.877C266.919 114.464 267.222 114.145 267.603 113.919C267.991 113.686 268.417 113.57 268.882 113.57C269.301 113.57 269.666 113.654 269.976 113.822C270.293 113.983 270.544 114.187 270.732 114.432V113.657H271.846V118.994H270.732V118.2C270.544 118.451 270.289 118.661 269.967 118.829C269.644 118.997 269.276 119.081 268.862 119.081C268.404 119.081 267.984 118.965 267.603 118.732C267.222 118.493 266.919 118.164 266.693 117.744C266.473 117.318 266.363 116.837 266.363 116.301ZM270.732 116.321C270.732 115.953 270.654 115.633 270.499 115.362C270.351 115.091 270.154 114.884 269.908 114.742C269.663 114.6 269.398 114.529 269.114 114.529C268.83 114.529 268.565 114.6 268.32 114.742C268.075 114.877 267.874 115.081 267.719 115.352C267.571 115.617 267.497 115.933 267.497 116.301C267.497 116.669 267.571 116.992 267.719 117.27C267.874 117.547 268.075 117.761 268.32 117.909C268.572 118.051 268.837 118.122 269.114 118.122C269.398 118.122 269.663 118.051 269.908 117.909C270.154 117.767 270.351 117.56 270.499 117.289C270.654 117.012 270.732 116.689 270.732 116.321ZM278.1 113.657L274.826 121.502H273.683L274.768 118.907L272.666 113.657H273.896L275.398 117.725L276.957 113.657H278.1ZM280.87 119.081C280.451 119.081 280.073 119.007 279.737 118.858C279.408 118.703 279.146 118.497 278.953 118.238C278.759 117.974 278.656 117.68 278.643 117.357H279.786C279.805 117.583 279.911 117.773 280.105 117.928C280.305 118.077 280.554 118.151 280.851 118.151C281.161 118.151 281.4 118.093 281.568 117.977C281.742 117.854 281.829 117.699 281.829 117.512C281.829 117.312 281.732 117.163 281.539 117.066C281.351 116.97 281.051 116.863 280.638 116.747C280.238 116.637 279.911 116.53 279.66 116.427C279.408 116.324 279.188 116.166 279.001 115.953C278.82 115.739 278.73 115.459 278.73 115.11C278.73 114.826 278.814 114.568 278.982 114.335C279.15 114.096 279.388 113.909 279.698 113.773C280.015 113.638 280.376 113.57 280.783 113.57C281.39 113.57 281.878 113.725 282.246 114.035C282.62 114.338 282.82 114.755 282.846 115.284H281.742C281.723 115.045 281.626 114.855 281.452 114.713C281.277 114.571 281.041 114.5 280.744 114.5C280.454 114.5 280.231 114.555 280.076 114.664C279.921 114.774 279.844 114.919 279.844 115.1C279.844 115.242 279.895 115.362 279.999 115.459C280.102 115.555 280.228 115.633 280.376 115.691C280.525 115.743 280.744 115.811 281.035 115.894C281.422 115.998 281.739 116.104 281.984 116.214C282.236 116.317 282.452 116.472 282.633 116.679C282.814 116.886 282.908 117.16 282.914 117.502C282.914 117.806 282.83 118.077 282.662 118.316C282.494 118.555 282.255 118.742 281.945 118.878C281.642 119.013 281.284 119.081 280.87 119.081ZM287.911 114.558V117.512C287.911 117.712 287.957 117.857 288.047 117.948C288.144 118.032 288.305 118.074 288.531 118.074H289.209V118.994H288.338C287.84 118.994 287.459 118.878 287.195 118.645C286.93 118.413 286.797 118.035 286.797 117.512V114.558H286.168V113.657H286.797V112.33H287.911V113.657H289.209V114.558H287.911ZM292.542 119.081C292.038 119.081 291.583 118.968 291.176 118.742C290.769 118.51 290.45 118.187 290.217 117.773C289.985 117.354 289.869 116.869 289.869 116.321C289.869 115.778 289.988 115.297 290.227 114.877C290.466 114.458 290.792 114.135 291.205 113.909C291.618 113.683 292.08 113.57 292.59 113.57C293.1 113.57 293.562 113.683 293.975 113.909C294.389 114.135 294.715 114.458 294.954 114.877C295.192 115.297 295.312 115.778 295.312 116.321C295.312 116.863 295.189 117.344 294.944 117.764C294.698 118.184 294.363 118.51 293.937 118.742C293.517 118.968 293.052 119.081 292.542 119.081ZM292.542 118.122C292.826 118.122 293.091 118.054 293.336 117.919C293.588 117.783 293.791 117.58 293.946 117.309C294.101 117.037 294.179 116.708 294.179 116.321C294.179 115.933 294.104 115.607 293.956 115.342C293.807 115.071 293.61 114.868 293.365 114.732C293.12 114.597 292.855 114.529 292.571 114.529C292.287 114.529 292.022 114.597 291.777 114.732C291.538 114.868 291.347 115.071 291.205 115.342C291.063 115.607 290.992 115.933 290.992 116.321C290.992 116.895 291.137 117.341 291.428 117.657C291.725 117.967 292.096 118.122 292.542 118.122ZM301.157 114.558H300.169V118.994H299.055V114.558H298.425V113.657H299.055V113.279C299.055 112.666 299.216 112.22 299.539 111.943C299.869 111.659 300.382 111.517 301.079 111.517V112.437C300.744 112.437 300.508 112.501 300.372 112.63C300.237 112.753 300.169 112.969 300.169 113.279V113.657H301.157V114.558ZM304.45 119.081C303.947 119.081 303.491 118.968 303.085 118.742C302.678 118.51 302.358 118.187 302.126 117.773C301.893 117.354 301.777 116.869 301.777 116.321C301.777 115.778 301.897 115.297 302.135 114.877C302.374 114.458 302.7 114.135 303.114 113.909C303.527 113.683 303.989 113.57 304.499 113.57C305.009 113.57 305.471 113.683 305.884 113.909C306.297 114.135 306.623 114.458 306.862 114.877C307.101 115.297 307.22 115.778 307.22 116.321C307.22 116.863 307.098 117.344 306.852 117.764C306.607 118.184 306.271 118.51 305.845 118.742C305.425 118.968 304.96 119.081 304.45 119.081ZM304.45 118.122C304.734 118.122 304.999 118.054 305.245 117.919C305.496 117.783 305.7 117.58 305.855 117.309C306.01 117.037 306.087 116.708 306.087 116.321C306.087 115.933 306.013 115.607 305.864 115.342C305.716 115.071 305.519 114.868 305.274 114.732C305.028 114.597 304.763 114.529 304.479 114.529C304.195 114.529 303.931 114.597 303.685 114.732C303.446 114.868 303.256 115.071 303.114 115.342C302.972 115.607 302.901 115.933 302.901 116.321C302.901 116.895 303.046 117.341 303.336 117.657C303.633 117.967 304.005 118.122 304.45 118.122ZM309.416 111.826V118.994H308.312V111.826H309.416ZM311.97 111.826V118.994H310.866V111.826H311.97ZM315.735 119.081C315.231 119.081 314.776 118.968 314.369 118.742C313.962 118.51 313.642 118.187 313.41 117.773C313.177 117.354 313.061 116.869 313.061 116.321C313.061 115.778 313.181 115.297 313.42 114.877C313.659 114.458 313.985 114.135 314.398 113.909C314.811 113.683 315.273 113.57 315.783 113.57C316.293 113.57 316.755 113.683 317.168 113.909C317.581 114.135 317.907 114.458 318.146 114.877C318.385 115.297 318.505 115.778 318.505 116.321C318.505 116.863 318.382 117.344 318.137 117.764C317.891 118.184 317.555 118.51 317.129 118.742C316.71 118.968 316.245 119.081 315.735 119.081ZM315.735 118.122C316.019 118.122 316.283 118.054 316.529 117.919C316.781 117.783 316.984 117.58 317.139 117.309C317.294 117.037 317.371 116.708 317.371 116.321C317.371 115.933 317.297 115.607 317.149 115.342C317 115.071 316.803 114.868 316.558 114.732C316.312 114.597 316.048 114.529 315.764 114.529C315.479 114.529 315.215 114.597 314.969 114.732C314.73 114.868 314.54 115.071 314.398 115.342C314.256 115.607 314.185 115.933 314.185 116.321C314.185 116.895 314.33 117.341 314.621 117.657C314.918 117.967 315.289 118.122 315.735 118.122ZM326.764 113.657L325.107 118.994H323.945L322.87 115.052L321.795 118.994H320.633L318.967 113.657H320.09L321.204 117.948L322.337 113.657H323.49L324.575 117.928L325.679 113.657H326.764ZM336.565 113.57C336.985 113.57 337.359 113.657 337.689 113.831C338.024 114.006 338.286 114.264 338.473 114.606C338.667 114.949 338.764 115.362 338.764 115.846V118.994H337.669V116.011C337.669 115.533 337.55 115.168 337.311 114.916C337.072 114.658 336.746 114.529 336.333 114.529C335.919 114.529 335.59 114.658 335.345 114.916C335.106 115.168 334.986 115.533 334.986 116.011V118.994H333.892V116.011C333.892 115.533 333.772 115.168 333.534 114.916C333.295 114.658 332.969 114.529 332.555 114.529C332.142 114.529 331.813 114.658 331.567 114.916C331.328 115.168 331.209 115.533 331.209 116.011V118.994H330.105V113.657H331.209V114.267C331.39 114.048 331.619 113.877 331.897 113.754C332.174 113.631 332.471 113.57 332.788 113.57C333.214 113.57 333.595 113.66 333.931 113.841C334.266 114.022 334.525 114.283 334.705 114.626C334.867 114.303 335.119 114.048 335.461 113.86C335.803 113.667 336.171 113.57 336.565 113.57ZM344.973 113.657L341.699 121.502H340.556L341.641 118.907L339.539 113.657H340.769L342.271 117.725L343.83 113.657H344.973ZM347.954 116.301C347.954 115.765 348.064 115.291 348.283 114.877C348.509 114.464 348.813 114.145 349.194 113.919C349.581 113.686 350.011 113.57 350.482 113.57C350.831 113.57 351.173 113.647 351.509 113.802C351.851 113.951 352.122 114.151 352.322 114.403V111.826H353.436V118.994H352.322V118.19C352.142 118.448 351.89 118.661 351.567 118.829C351.251 118.997 350.886 119.081 350.472 119.081C350.008 119.081 349.581 118.965 349.194 118.732C348.813 118.493 348.509 118.164 348.283 117.744C348.064 117.318 347.954 116.837 347.954 116.301ZM352.322 116.321C352.322 115.953 352.245 115.633 352.09 115.362C351.941 115.091 351.745 114.884 351.499 114.742C351.254 114.6 350.989 114.529 350.705 114.529C350.421 114.529 350.156 114.6 349.911 114.742C349.665 114.877 349.465 115.081 349.31 115.352C349.162 115.617 349.087 115.933 349.087 116.301C349.087 116.669 349.162 116.992 349.31 117.27C349.465 117.547 349.665 117.761 349.911 117.909C350.163 118.051 350.427 118.122 350.705 118.122C350.989 118.122 351.254 118.051 351.499 117.909C351.745 117.767 351.941 117.56 352.09 117.289C352.245 117.012 352.322 116.689 352.322 116.321ZM355.991 114.432C356.152 114.161 356.365 113.951 356.63 113.802C356.901 113.647 357.221 113.57 357.589 113.57V114.713H357.308C356.875 114.713 356.546 114.823 356.32 115.042C356.101 115.262 355.991 115.643 355.991 116.185V118.994H354.887V113.657H355.991V114.432ZM363.495 116.195C363.495 116.395 363.482 116.576 363.456 116.737H359.379C359.411 117.163 359.569 117.506 359.853 117.764C360.137 118.022 360.486 118.151 360.899 118.151C361.493 118.151 361.913 117.903 362.158 117.405H363.35C363.188 117.896 362.895 118.3 362.468 118.616C362.049 118.926 361.526 119.081 360.899 119.081C360.389 119.081 359.931 118.968 359.524 118.742C359.124 118.51 358.807 118.187 358.575 117.773C358.349 117.354 358.236 116.869 358.236 116.321C358.236 115.772 358.346 115.291 358.565 114.877C358.791 114.458 359.104 114.135 359.505 113.909C359.911 113.683 360.376 113.57 360.899 113.57C361.403 113.57 361.852 113.68 362.246 113.899C362.64 114.119 362.946 114.429 363.166 114.829C363.385 115.223 363.495 115.678 363.495 116.195ZM362.343 115.846C362.336 115.439 362.191 115.113 361.907 114.868C361.623 114.622 361.271 114.5 360.851 114.5C360.47 114.5 360.144 114.622 359.873 114.868C359.601 115.107 359.44 115.433 359.388 115.846H362.343ZM364.214 116.301C364.214 115.765 364.323 115.291 364.543 114.877C364.769 114.464 365.072 114.145 365.453 113.919C365.841 113.686 366.267 113.57 366.732 113.57C367.152 113.57 367.516 113.654 367.826 113.822C368.143 113.983 368.395 114.187 368.582 114.432V113.657H369.696V118.994H368.582V118.2C368.395 118.451 368.14 118.661 367.817 118.829C367.494 118.997 367.126 119.081 366.713 119.081C366.254 119.081 365.834 118.965 365.453 118.732C365.072 118.493 364.769 118.164 364.543 117.744C364.323 117.318 364.214 116.837 364.214 116.301ZM368.582 116.321C368.582 115.953 368.504 115.633 368.349 115.362C368.201 115.091 368.004 114.884 367.759 114.742C367.513 114.6 367.249 114.529 366.964 114.529C366.68 114.529 366.416 114.6 366.17 114.742C365.925 114.877 365.725 115.081 365.57 115.352C365.421 115.617 365.347 115.933 365.347 116.301C365.347 116.669 365.421 116.992 365.57 117.27C365.725 117.547 365.925 117.761 366.17 117.909C366.422 118.051 366.687 118.122 366.964 118.122C367.249 118.122 367.513 118.051 367.759 117.909C368.004 117.767 368.201 117.56 368.349 117.289C368.504 117.012 368.582 116.689 368.582 116.321ZM377.606 113.57C378.026 113.57 378.401 113.657 378.73 113.831C379.066 114.006 379.327 114.264 379.515 114.606C379.708 114.949 379.805 115.362 379.805 115.846V118.994H378.711V116.011C378.711 115.533 378.591 115.168 378.352 114.916C378.113 114.658 377.787 114.529 377.374 114.529C376.961 114.529 376.631 114.658 376.386 114.916C376.147 115.168 376.028 115.533 376.028 116.011V118.994H374.933V116.011C374.933 115.533 374.814 115.168 374.575 114.916C374.336 114.658 374.01 114.529 373.597 114.529C373.183 114.529 372.854 114.658 372.609 114.916C372.37 115.168 372.25 115.533 372.25 116.011V118.994H371.146V113.657H372.25V114.267C372.431 114.048 372.66 113.877 372.938 113.754C373.216 113.631 373.513 113.57 373.829 113.57C374.255 113.57 374.636 113.66 374.972 113.841C375.308 114.022 375.566 114.283 375.747 114.626C375.908 114.303 376.16 114.048 376.502 113.86C376.844 113.667 377.213 113.57 377.606 113.57ZM383.147 119.081C382.728 119.081 382.35 119.007 382.014 118.858C381.685 118.703 381.423 118.497 381.229 118.238C381.036 117.974 380.932 117.68 380.92 117.357H382.062C382.082 117.583 382.188 117.773 382.382 117.928C382.582 118.077 382.831 118.151 383.128 118.151C383.438 118.151 383.677 118.093 383.845 117.977C384.019 117.854 384.106 117.699 384.106 117.512C384.106 117.312 384.009 117.163 383.816 117.066C383.628 116.97 383.328 116.863 382.915 116.747C382.514 116.637 382.188 116.53 381.937 116.427C381.685 116.324 381.465 116.166 381.278 115.953C381.097 115.739 381.007 115.459 381.007 115.11C381.007 114.826 381.091 114.568 381.259 114.335C381.426 114.096 381.665 113.909 381.975 113.773C382.292 113.638 382.653 113.57 383.06 113.57C383.667 113.57 384.155 113.725 384.523 114.035C384.897 114.338 385.097 114.755 385.123 115.284H384.019C384 115.045 383.903 114.855 383.728 114.713C383.554 114.571 383.318 114.5 383.021 114.5C382.731 114.5 382.508 114.555 382.353 114.664C382.198 114.774 382.121 114.919 382.121 115.1C382.121 115.242 382.172 115.362 382.276 115.459C382.379 115.555 382.505 115.633 382.653 115.691C382.802 115.743 383.021 115.811 383.312 115.894C383.699 115.998 384.016 116.104 384.261 116.214C384.513 116.317 384.729 116.472 384.91 116.679C385.091 116.886 385.184 117.16 385.191 117.502C385.191 117.806 385.107 118.077 384.939 118.316C384.771 118.555 384.532 118.742 384.222 118.878C383.919 119.013 383.561 119.081 383.147 119.081ZM386.83 119.062C386.629 119.062 386.462 118.994 386.326 118.858C386.19 118.723 386.123 118.555 386.123 118.355C386.123 118.154 386.19 117.987 386.326 117.851C386.462 117.715 386.629 117.648 386.83 117.648C387.023 117.648 387.188 117.715 387.324 117.851C387.459 117.987 387.527 118.154 387.527 118.355C387.527 118.555 387.459 118.723 387.324 118.858C387.188 118.994 387.023 119.062 386.83 119.062Z" fill="white"/>
</g>
</g>
<rect x="418.175" y="392.185" width="4.06444" height="4.57249" fill="#7B87A1"/>
<rect x="185.261" y="453.758" width="4.23379" height="4.23379" transform="rotate(90 185.261 453.758)" fill="#7B87A1"/>
<rect x="124.687" y="392.184" width="4.23379" height="4.23379" transform="rotate(90 124.687 392.184)" fill="#7B87A1"/>
<g filter="url(#filter1_i_30_29708)">
<path d="M424.355 4.97589C424.355 4.58618 424.039 4.27026 423.649 4.27026H422.238V70.5996H423.649C424.039 70.5996 424.355 70.2837 424.355 69.894V4.97589Z" fill="#BCCCE3"/>
<path d="M424.355 4.97589C424.355 4.58618 424.039 4.27026 423.649 4.27026H422.238V70.5996H423.649C424.039 70.5996 424.355 70.2837 424.355 69.894V4.97589Z" fill="url(#paint2_linear_30_29708)" fill-opacity="0.8"/>
</g>
<path d="M424.355 4.97589C424.355 4.58618 424.039 4.27026 423.649 4.27026H422.238V70.5996H423.649C424.039 70.5996 424.355 70.2837 424.355 69.894V4.97589Z" stroke="#305183" stroke-width="0.352816"/>
<g filter="url(#filter2_i_30_29708)">
<path d="M118.419 -9.84222C118.419 -10.2319 118.735 -10.5479 119.125 -10.5479H120.536V31.79H119.125C118.735 31.79 118.419 31.4741 118.419 31.0844V-9.84222Z" fill="#BCCCE3"/>
<path d="M118.419 -9.84222C118.419 -10.2319 118.735 -10.5479 119.125 -10.5479H120.536V31.79H119.125C118.735 31.79 118.419 31.4741 118.419 31.0844V-9.84222Z" fill="url(#paint3_linear_30_29708)" fill-opacity="0.8"/>
</g>
<path d="M118.419 -9.84222C118.419 -10.2319 118.735 -10.5479 119.125 -10.5479H120.536V31.79H119.125C118.735 31.79 118.419 31.4741 118.419 31.0844V-9.84222Z" stroke="#305183" stroke-width="0.352816"/>
<g filter="url(#filter3_i_30_29708)">
<path d="M118.42 44.4908C118.42 44.1011 118.736 43.7852 119.125 43.7852H120.537V86.123H119.125C118.736 86.123 118.42 85.8071 118.42 85.4174V44.4908Z" fill="#BCCCE3"/>
<path d="M118.42 44.4908C118.42 44.1011 118.736 43.7852 119.125 43.7852H120.537V86.123H119.125C118.736 86.123 118.42 85.8071 118.42 85.4174V44.4908Z" fill="url(#paint4_linear_30_29708)" fill-opacity="0.8"/>
</g>
<path d="M118.42 44.4908C118.42 44.1011 118.736 43.7852 119.125 43.7852H120.537V86.123H119.125C118.736 86.123 118.42 85.8071 118.42 85.4174V44.4908Z" stroke="#305183" stroke-width="0.352816"/>




</g>
<rect x="1.31604" y="2" width="515.684" height="515.684" rx="257.842" stroke="url(#paint7_linear_30_29708)" stroke-width="2.43868"/>
<defs>
<filter id="filter0_ii_30_29708" x="120.451" y="-161.088" width="301.784" height="619.318" filterUnits="userSpaceOnUse" color-interpolation-filters="sRGB">
<feFlood flood-opacity="0" result="BackgroundImageFix"/>
<feBlend mode="normal" in="SourceGraphic" in2="BackgroundImageFix" result="shape"/>
<feColorMatrix in="SourceAlpha" type="matrix" values="0 0 0 0 0 0 0 0 0 0 0 0 0 0 0 0 0 0 127 0" result="hardAlpha"/>
<feMorphology radius="2.11689" operator="erode" in="SourceAlpha" result="effect1_innerShadow_30_29708"/>
<feOffset/>
<feComposite in2="hardAlpha" operator="arithmetic" k2="-1" k3="1"/>
<feColorMatrix type="matrix" values="0 0 0 0 1 0 0 0 0 1 0 0 0 0 1 0 0 0 1 0"/>
<feBlend mode="normal" in2="shape" result="effect1_innerShadow_30_29708"/>
<feColorMatrix in="SourceAlpha" type="matrix" values="0 0 0 0 0 0 0 0 0 0 0 0 0 0 0 0 0 0 127 0" result="hardAlpha"/>
<feMorphology radius="0.705631" operator="erode" in="SourceAlpha" result="effect2_innerShadow_30_29708"/>
<feOffset/>
<feGaussianBlur stdDeviation="0.352816"/>
<feComposite in2="hardAlpha" operator="arithmetic" k2="-1" k3="1"/>
<feColorMatrix type="matrix" values="0 0 0 0 0.0583333 0 0 0 0 0.21 0 0 0 0 0.4375 0 0 0 1 0"/>
<feBlend mode="normal" in2="effect1_innerShadow_30_29708" result="effect2_innerShadow_30_29708"/>
</filter>
<filter id="filter1_i_30_29708" x="422.062" y="3.38812" width="3.17536" height="67.388" filterUnits="userSpaceOnUse" color-interpolation-filters="sRGB">
<feFlood flood-opacity="0" result="BackgroundImageFix"/>
<feBlend mode="normal" in="SourceGraphic" in2="BackgroundImageFix" result="shape"/>
<feColorMatrix in="SourceAlpha" type="matrix" values="0 0 0 0 0 0 0 0 0 0 0 0 0 0 0 0 0 0 127 0" result="hardAlpha"/>
<feOffset dx="0.705631" dy="-0.705631"/>
<feGaussianBlur stdDeviation="0.352816"/>
<feComposite in2="hardAlpha" operator="arithmetic" k2="-1" k3="1"/>
<feColorMatrix type="matrix" values="0 0 0 0 1 0 0 0 0 1 0 0 0 0 1 0 0 0 1 0"/>
<feBlend mode="normal" in2="shape" result="effect1_innerShadow_30_29708"/>
</filter>
<filter id="filter2_i_30_29708" x="118.243" y="-11.43" width="3.17536" height="43.3965" filterUnits="userSpaceOnUse" color-interpolation-filters="sRGB">
<feFlood flood-opacity="0" result="BackgroundImageFix"/>
<feBlend mode="normal" in="SourceGraphic" in2="BackgroundImageFix" result="shape"/>
<feColorMatrix in="SourceAlpha" type="matrix" values="0 0 0 0 0 0 0 0 0 0 0 0 0 0 0 0 0 0 127 0" result="hardAlpha"/>
<feOffset dx="0.705631" dy="-0.705631"/>
<feGaussianBlur stdDeviation="0.352816"/>
<feComposite in2="hardAlpha" operator="arithmetic" k2="-1" k3="1"/>
<feColorMatrix type="matrix" values="0 0 0 0 1 0 0 0 0 1 0 0 0 0 1 0 0 0 1 0"/>
<feBlend mode="normal" in2="shape" result="effect1_innerShadow_30_29708"/>
</filter>
<filter id="filter3_i_30_29708" x="118.243" y="42.903" width="3.17536" height="43.3965" filterUnits="userSpaceOnUse" color-interpolation-filters="sRGB">
<feFlood flood-opacity="0" result="BackgroundImageFix"/>
<feBlend mode="normal" in="SourceGraphic" in2="BackgroundImageFix" result="shape"/>
<feColorMatrix in="SourceAlpha" type="matrix" values="0 0 0 0 0 0 0 0 0 0 0 0 0 0 0 0 0 0 127 0" result="hardAlpha"/>
<feOffset dx="0.705631" dy="-0.705631"/>
<feGaussianBlur stdDeviation="0.352816"/>
<feComposite in2="hardAlpha" operator="arithmetic" k2="-1" k3="1"/>
<feColorMatrix type="matrix" values="0 0 0 0 1 0 0 0 0 1 0 0 0 0 1 0 0 0 1 0"/>
<feBlend mode="normal" in2="shape" result="effect1_innerShadow_30_29708"/>
</filter>
<linearGradient id="paint0_linear_30_29708" x1="146.799" y1="158.394" x2="262.009" y2="190.587" gradientUnits="userSpaceOnUse">
<stop stop-color="#6834BC"/>
<stop offset="1" stop-color="#49169B"/>
</linearGradient>
<linearGradient id="paint1_linear_30_29708" x1="360.649" y1="101.099" x2="355.163" y2="144.949" gradientUnits="userSpaceOnUse">
<stop stop-color="#936FFA"/>
<stop offset="1" stop-color="#6661FF"/>
</linearGradient>
<linearGradient id="paint2_linear_30_29708" x1="423.296" y1="4.27026" x2="423.296" y2="70.5996" gradientUnits="userSpaceOnUse">
<stop offset="0.00311524" stop-color="#CCDAEB"/>
<stop offset="0.09375" stop-color="#162231"/>
<stop offset="0.182292" stop-color="#BDCDE3"/>
<stop offset="0.838542" stop-color="#BECEE3"/>
<stop offset="0.916667" stop-color="#293848"/>
<stop offset="1" stop-color="#B5C4D5"/>
</linearGradient>
<linearGradient id="paint3_linear_30_29708" x1="119.478" y1="-10.5479" x2="119.478" y2="31.79" gradientUnits="userSpaceOnUse">
<stop offset="0.00311524" stop-color="#CCDAEB"/>
<stop offset="0.09375" stop-color="#162231"/>
<stop offset="0.182292" stop-color="#BDCDE3"/>
<stop offset="0.838542" stop-color="#BECEE3"/>
<stop offset="0.916667" stop-color="#293848"/>
<stop offset="1" stop-color="#B5C4D5"/>
</linearGradient>
<linearGradient id="paint4_linear_30_29708" x1="119.478" y1="43.7852" x2="119.478" y2="86.123" gradientUnits="userSpaceOnUse">
<stop offset="0.00311524" stop-color="#CCDAEB"/>
<stop offset="0.09375" stop-color="#162231"/>
<stop offset="0.182292" stop-color="#BDCDE3"/>
<stop offset="0.838542" stop-color="#BECEE3"/>
<stop offset="0.916667" stop-color="#293848"/>
<stop offset="1" stop-color="#B5C4D5"/>
</linearGradient>
<linearGradient id="paint5_linear_30_29708" x1="36" y1="156" x2="350.277" y2="331.591" gradientUnits="userSpaceOnUse">
<stop stop-color="#6834BC"/>
<stop offset="1" stop-color="#49169B"/>
</linearGradient>
<linearGradient id="paint6_linear_30_29708" x1="251.573" y1="240.85" x2="267.858" y2="328.272" gradientUnits="userSpaceOnUse">
<stop stop-color="#936FFA"/>
<stop offset="1" stop-color="#6661FF"/>
</linearGradient>
<linearGradient id="paint7_linear_30_29708" x1="8.62309" y1="1.99996" x2="576.14" y2="78.4284" gradientUnits="userSpaceOnUse">
<stop stop-color="#4D14A0"/>
<stop offset="0.166667" stop-color="#6F2ABB"/>
<stop offset="0.317699" stop-color="#8A33D8"/>
<stop offset="0.708333" stop-color="#7D1CC3"/>
<stop offset="1" stop-color="#680F9B"/>
</linearGradient>
<clipPath id="clip0_30_29708">
<rect x="1.31604" y="2" width="515.684" height="515.684" rx="257.842" fill="white"/>
</clipPath>
<clipPath id="clip1_30_29708">
<rect x="135.157" y="-146.03" width="272.374" height="589.434" rx="31.0478" fill="white"/>
</clipPath>
<clipPath id="clip2_30_29708">
<rect width="271.892" height="588.061" fill="white" transform="translate(135.73 -144.631)"/>
</clipPath>
<clipPath id="clip3_30_29708">
<rect width="19.3714" height="19.3714" fill="white" transform="translate(370.262 379.089)"/>
</clipPath>
</defs>
</svg>