<svg width="333" height="637" viewBox="0 0 333 637" fill="none" xmlns="http://www.w3.org/2000/svg">
<rect x="1" y="1.02539" width="331.214" height="331.214" rx="165.607" fill="#A67DFF" fill-opacity="0.1"/>
<rect x="1" y="1.02539" width="331.214" height="331.214" rx="165.607" stroke="url(#paint0_linear_890_11096)" stroke-width="1.56632"/>
<g clip-path="url(#clip0_890_11096)">
<rect x="41.4917" y="386.556" width="248.884" height="248.884" rx="124.442" fill="#1F0F3B"/>
<g clip-path="url(#clip1_890_11096)">
<rect width="430.943" height="932.064" transform="translate(-51.0532 -341.653)" fill="#3B206C"/>
<mask id="mask0_890_11096" style="mask-type:luminance" maskUnits="userSpaceOnUse" x="-52" y="172" width="432" height="515">
<path d="M379.888 172.369H-51.0542V686.392H379.888V172.369Z" fill="white"/>
</mask>
<g mask="url(#mask0_890_11096)">
<path d="M282.327 471.236C282.327 471.593 282.088 471.896 281.774 471.896C281.46 471.896 281.22 471.61 281.22 471.236C281.22 470.861 281.46 470.575 281.774 470.575C282.088 470.575 282.327 470.861 282.327 471.236Z" fill="#6C46B0"/>
<path d="M274.952 560.314C274.952 560.671 274.712 560.957 274.413 560.957C274.114 560.957 273.875 560.671 273.875 560.314C273.875 559.957 274.114 559.672 274.413 559.672C274.712 559.672 274.952 559.957 274.952 560.314Z" fill="#6C46B0"/>
<path d="M269.116 558.638C269.116 558.816 268.996 558.959 268.846 558.959C268.697 558.959 268.577 558.816 268.577 558.638C268.577 558.459 268.697 558.316 268.846 558.316C268.996 558.316 269.116 558.459 269.116 558.638Z" fill="#6C46B0"/>
<path d="M261.679 552.64C261.679 553.015 261.424 553.318 261.11 553.318C260.796 553.318 260.542 553.015 260.542 552.64C260.542 552.265 260.796 551.962 261.11 551.962C261.424 551.962 261.679 552.265 261.679 552.64Z" fill="#6C46B0"/>
<path d="M254.406 562.528C254.406 562.938 254.122 563.278 253.778 563.278C253.434 563.278 253.149 562.938 253.149 562.528C253.149 562.117 253.434 561.778 253.778 561.778C254.122 561.778 254.406 562.117 254.406 562.528Z" fill="#6C46B0"/>
<path d="M247.613 417.031C247.613 417.655 247.194 418.155 246.671 418.155C246.147 418.155 245.728 417.655 245.728 417.031C245.728 416.406 246.147 415.906 246.671 415.906C247.194 415.906 247.613 416.406 247.613 417.031Z" fill="#6C46B0"/>
<path d="M239.653 548.695C240.174 548.695 240.596 548.192 240.596 547.571C240.596 546.95 240.174 546.446 239.653 546.446C239.133 546.446 238.71 546.95 238.71 547.571C238.71 548.192 239.133 548.695 239.653 548.695Z" fill="#6C46B0"/>
<path d="M226.693 459.974C226.693 459.974 226.679 460.027 226.649 460.027C226.619 460.027 226.604 460.009 226.604 459.974C226.604 459.938 226.619 459.92 226.649 459.92C226.679 459.92 226.693 459.938 226.693 459.974Z" fill="#6C46B0"/>
<path d="M207.527 397.844C207.527 398.451 207.108 398.95 206.599 398.95C206.09 398.95 205.671 398.451 205.671 397.844C205.671 397.237 206.09 396.737 206.599 396.737C207.108 396.737 207.527 397.237 207.527 397.844Z" fill="#6C46B0"/>
<path d="M201.181 449.282C201.181 449.388 201.106 449.46 201.032 449.46C200.957 449.46 200.882 449.371 200.882 449.282C200.882 449.193 200.957 449.104 201.032 449.104C201.106 449.104 201.181 449.193 201.181 449.282Z" fill="#6C46B0"/>
<path d="M193.715 561.279C193.715 561.511 193.551 561.707 193.356 561.707C193.162 561.707 192.997 561.511 192.997 561.279C192.997 561.047 193.162 560.851 193.356 560.851C193.551 560.851 193.715 561.047 193.715 561.279Z" fill="#6C46B0"/>
<path d="M181.206 507.824C181.206 507.966 181.101 508.091 180.982 508.091C180.862 508.091 180.757 507.966 180.757 507.824C180.757 507.681 180.862 507.557 180.982 507.557C181.101 507.557 181.206 507.681 181.206 507.824Z" fill="#6C46B0"/>
<path d="M161.05 406.376C161.05 406.822 160.751 407.197 160.362 407.197C159.973 407.197 159.674 406.84 159.674 406.376C159.674 405.912 159.973 405.555 160.362 405.555C160.751 405.555 161.05 405.912 161.05 406.376Z" fill="#6C46B0"/>
<path d="M153.075 506.753C153.554 506.753 153.943 506.29 153.943 505.718C153.943 505.146 153.554 504.683 153.075 504.683C152.596 504.683 152.207 505.146 152.207 505.718C152.207 506.29 152.596 506.753 153.075 506.753Z" fill="#6C46B0"/>
<path d="M148.855 525.494C148.855 525.797 148.645 526.047 148.391 526.047C148.137 526.047 147.927 525.797 147.927 525.494C147.927 525.19 148.137 524.94 148.391 524.94C148.645 524.94 148.855 525.19 148.855 525.494Z" fill="#6C46B0"/>
<path d="M120.814 396.22C120.814 396.72 120.47 397.13 120.051 397.13C119.632 397.13 119.288 396.72 119.288 396.22C119.288 395.72 119.632 395.31 120.051 395.31C120.47 395.31 120.814 395.72 120.814 396.22Z" fill="#6C46B0"/>
<path d="M114.14 525.851C114.14 526.315 113.826 526.708 113.422 526.708C113.018 526.708 112.704 526.333 112.704 525.851C112.704 525.369 113.018 524.994 113.422 524.994C113.826 524.994 114.14 525.369 114.14 525.851Z" fill="#6C46B0"/>
<path d="M100.075 413.23C100.075 413.605 99.8203 413.908 99.5061 413.908C99.1919 413.908 98.9375 413.605 98.9375 413.23C98.9375 412.855 99.1919 412.552 99.5061 412.552C99.8203 412.552 100.075 412.855 100.075 413.23Z" fill="#6C46B0"/>
<path d="M80.5624 566.99C80.5624 567.49 80.2182 567.901 79.7993 567.901C79.3803 567.901 79.0361 567.49 79.0361 566.99C79.0361 566.491 79.3803 566.08 79.7993 566.08C80.2182 566.08 80.5624 566.491 80.5624 566.99Z" fill="#6C46B0"/>
<path d="M54.6911 463.685C54.6911 464.114 54.4068 464.453 54.0477 464.453C53.6886 464.453 53.4043 464.114 53.4043 463.685C53.4043 463.257 53.6886 462.918 54.0477 462.918C54.4068 462.918 54.6911 463.257 54.6911 463.685Z" fill="#6C46B0"/>
<path d="M43.6636 492.278C43.6636 492.617 43.4242 492.903 43.1399 492.903C42.8556 492.903 42.6162 492.617 42.6162 492.278C42.6162 491.939 42.8556 491.653 43.1399 491.653C43.4242 491.653 43.6636 491.939 43.6636 492.278Z" fill="#6C46B0"/>
<path d="M50.1425 480.516C50.1425 480.677 50.0378 480.82 49.8882 480.82C49.7385 480.82 49.6338 480.695 49.6338 480.516C49.6338 480.338 49.7385 480.213 49.8882 480.213C50.0378 480.213 50.1425 480.338 50.1425 480.516Z" fill="#6C46B0"/>
<path d="M56.6666 575.54C56.6666 575.897 56.4272 576.164 56.1429 576.164C55.8586 576.164 55.6191 575.879 55.6191 575.54C55.6191 575.201 55.8586 574.915 56.1429 574.915C56.4272 574.915 56.6666 575.201 56.6666 575.54Z" fill="#6C46B0"/>
<path d="M70.4479 475.18C70.4479 475.698 70.0888 476.126 69.6549 476.126C69.2209 476.126 68.8618 475.698 68.8618 475.18C68.8618 474.663 69.2209 474.234 69.6549 474.234C70.0888 474.234 70.4479 474.663 70.4479 475.18Z" fill="#6C46B0"/>
<path d="M75.6393 417.833C75.7299 417.833 75.8035 417.745 75.8035 417.637C75.8035 417.529 75.7299 417.441 75.6393 417.441C75.5486 417.441 75.4751 417.529 75.4751 417.637C75.4751 417.745 75.5486 417.833 75.6393 417.833Z" fill="#6C46B0"/>
<path d="M96.8731 477.268C96.8731 477.607 96.6487 477.893 96.3494 477.893C96.0501 477.893 95.8257 477.625 95.8257 477.268C95.8257 476.911 96.0501 476.644 96.3494 476.644C96.6487 476.644 96.8731 476.911 96.8731 477.268Z" fill="#6C46B0"/>
<path d="M116.52 583.679C116.52 584.107 116.236 584.446 115.877 584.446C115.518 584.446 115.233 584.107 115.233 583.679C115.233 583.25 115.518 582.911 115.877 582.911C116.236 582.911 116.52 583.25 116.52 583.679Z" fill="#6C46B0"/>
<path d="M122.625 558.478C123.013 558.478 123.328 558.102 123.328 557.639C123.328 557.175 123.013 556.8 122.625 556.8C122.236 556.8 121.921 557.175 121.921 557.639C121.921 558.102 122.236 558.478 122.625 558.478Z" fill="#6C46B0"/>
<path d="M130.511 552.748C130.511 553.016 130.331 553.248 130.092 553.248C129.852 553.248 129.673 553.033 129.673 552.748C129.673 552.462 129.852 552.248 130.092 552.248C130.331 552.248 130.511 552.462 130.511 552.748Z" fill="#6C46B0"/>
<path d="M137.184 587.033C137.184 587.533 136.84 587.944 136.421 587.944C136.002 587.944 135.658 587.533 135.658 587.033C135.658 586.534 136.002 586.123 136.421 586.123C136.84 586.123 137.184 586.534 137.184 587.033Z" fill="#6C46B0"/>
<path d="M144.576 581.501C144.576 582.09 144.187 582.554 143.693 582.554C143.199 582.554 142.81 582.09 142.81 581.501C142.81 580.912 143.199 580.448 143.693 580.448C144.187 580.448 144.576 580.912 144.576 581.501Z" fill="#6C46B0"/>
<path d="M150.038 440.877C150.559 440.877 150.981 440.373 150.981 439.752C150.981 439.131 150.559 438.628 150.038 438.628C149.517 438.628 149.095 439.131 149.095 439.752C149.095 440.373 149.517 440.877 150.038 440.877Z" fill="#6C46B0"/>
<path d="M163.13 386.171C163.13 386.51 162.905 386.778 162.621 386.778C162.337 386.778 162.112 386.51 162.112 386.171C162.112 385.832 162.337 385.564 162.621 385.564C162.905 385.564 163.13 385.832 163.13 386.171Z" fill="#6C46B0"/>
<path d="M176.478 562.653C176.478 562.885 176.313 563.081 176.118 563.081C175.924 563.081 175.759 562.885 175.759 562.653C175.759 562.421 175.924 562.225 176.118 562.225C176.313 562.225 176.478 562.421 176.478 562.653Z" fill="#6C46B0"/>
<path d="M195.376 482.961C195.491 482.961 195.585 482.849 195.585 482.711C195.585 482.574 195.491 482.462 195.376 482.462C195.261 482.462 195.167 482.574 195.167 482.711C195.167 482.849 195.261 482.961 195.376 482.961Z" fill="#6C46B0"/>
<path d="M202.529 524.441C202.529 524.744 202.319 524.994 202.065 524.994C201.811 524.994 201.601 524.744 201.601 524.441C201.601 524.138 201.811 523.888 202.065 523.888C202.319 523.888 202.529 524.138 202.529 524.441Z" fill="#6C46B0"/>
<path d="M209.023 405.429C209.023 405.911 208.693 406.304 208.289 406.304C207.885 406.304 207.556 405.911 207.556 405.429C207.556 404.947 207.885 404.555 208.289 404.555C208.693 404.555 209.023 404.947 209.023 405.429Z" fill="#6C46B0"/>
<path d="M233.697 427.008C234.036 427.008 234.31 426.681 234.31 426.277C234.31 425.873 234.036 425.545 233.697 425.545C233.358 425.545 233.083 425.873 233.083 426.277C233.083 426.681 233.358 427.008 233.697 427.008Z" fill="#6C46B0"/>
<path d="M260.616 489.332C260.616 489.957 260.197 490.457 259.674 490.457C259.15 490.457 258.731 489.957 258.731 489.332C258.731 488.708 259.15 488.208 259.674 488.208C260.197 488.208 260.616 488.708 260.616 489.332Z" fill="#6C46B0"/>
<path d="M278.752 509.091C278.752 509.305 278.602 509.484 278.422 509.484C278.243 509.484 278.093 509.305 278.093 509.091C278.093 508.877 278.243 508.698 278.422 508.698C278.602 508.698 278.752 508.877 278.752 509.091Z" fill="#6C46B0"/>
<path d="M285.859 392.792C285.859 393.149 285.604 393.453 285.305 393.453C285.006 393.453 284.751 393.167 284.751 392.792C284.751 392.417 284.991 392.132 285.305 392.132C285.619 392.132 285.859 392.435 285.859 392.792Z" fill="#6C46B0"/>
<path d="M287.625 564.813C287.625 565.152 287.385 565.438 287.101 565.438C286.817 565.438 286.577 565.152 286.577 564.813C286.577 564.474 286.817 564.188 287.101 564.188C287.385 564.188 287.625 564.474 287.625 564.813Z" fill="#6C46B0"/>
<path d="M273.425 448.889C273.706 448.889 273.934 448.618 273.934 448.283C273.934 447.947 273.706 447.676 273.425 447.676C273.144 447.676 272.916 447.947 272.916 448.283C272.916 448.618 273.144 448.889 273.425 448.889Z" fill="#6C46B0"/>
<path d="M261.665 515.231C261.665 515.41 261.545 515.535 261.41 515.535C261.275 515.535 261.156 515.392 261.156 515.231C261.156 515.071 261.275 514.928 261.41 514.928C261.545 514.928 261.665 515.071 261.665 515.231Z" fill="#6C46B0"/>
<path d="M250.426 539.576C250.426 540.2 250.007 540.7 249.483 540.7C248.96 540.7 248.541 540.2 248.541 539.576C248.541 538.951 248.96 538.451 249.483 538.451C250.007 538.451 250.426 538.951 250.426 539.576Z" fill="#6C46B0"/>
<path d="M243.483 400.932C243.483 401.343 243.199 401.682 242.855 401.682C242.51 401.682 242.226 401.343 242.226 400.932C242.226 400.522 242.51 400.183 242.855 400.183C243.199 400.183 243.483 400.522 243.483 400.932Z" fill="#6C46B0"/>
<path d="M236.121 506.164C236.121 506.611 235.822 506.968 235.448 506.968C235.074 506.968 234.774 506.611 234.774 506.164C234.774 505.718 235.074 505.361 235.448 505.361C235.822 505.361 236.121 505.718 236.121 506.164Z" fill="#6C46B0"/>
<path d="M230.016 398.737C230.016 399.272 229.657 399.683 229.223 399.683C228.789 399.683 228.43 399.255 228.43 398.737C228.43 398.219 228.789 397.791 229.223 397.791C229.657 397.791 230.016 398.219 230.016 398.737Z" fill="#6C46B0"/>
<path d="M209.185 509.322C209.185 509.322 209.156 509.393 209.127 509.393C209.097 509.393 209.068 509.357 209.068 509.322C209.068 509.287 209.097 509.252 209.127 509.252C209.156 509.252 209.185 509.287 209.185 509.322Z" fill="#6C46B0"/>
<path d="M196.229 462.472C196.229 463.079 195.81 463.578 195.301 463.578C194.793 463.578 194.374 463.079 194.374 462.472C194.374 461.865 194.793 461.365 195.301 461.365C195.81 461.365 196.229 461.865 196.229 462.472Z" fill="#6C46B0"/>
<path d="M189.779 408.464C189.779 408.571 189.704 408.677 189.6 408.677C189.495 408.677 189.42 408.588 189.42 408.464C189.42 408.339 189.495 408.25 189.6 408.25C189.704 408.25 189.779 408.339 189.779 408.464Z" fill="#6C46B0"/>
<path d="M171.061 551.677C171.061 552.283 170.657 552.765 170.148 552.765C169.639 552.765 169.235 552.283 169.235 551.677C169.235 551.07 169.639 550.588 170.148 550.588C170.657 550.588 171.061 551.07 171.061 551.677Z" fill="#6C46B0"/>
<path d="M149.14 410.338C149.536 410.338 149.858 409.955 149.858 409.482C149.858 409.009 149.536 408.625 149.14 408.625C148.743 408.625 148.421 409.009 148.421 409.482C148.421 409.955 148.743 410.338 149.14 410.338Z" fill="#6C46B0"/>
<path d="M142.72 443.162C142.794 443.162 142.854 443.09 142.854 443.001C142.854 442.912 142.794 442.84 142.72 442.84C142.646 442.84 142.585 442.912 142.585 443.001C142.585 443.09 142.646 443.162 142.72 443.162Z" fill="#6C46B0"/>
<path d="M137.632 522.673C137.632 523.227 137.258 523.673 136.794 523.673C136.331 523.673 135.957 523.227 135.957 522.673C135.957 522.12 136.331 521.674 136.794 521.674C137.258 521.674 137.632 522.12 137.632 522.673Z" fill="#6C46B0"/>
<path d="M130.137 398.237C130.137 398.487 129.972 398.683 129.763 398.683C129.553 398.683 129.389 398.487 129.389 398.237C129.389 397.987 129.553 397.791 129.763 397.791C129.972 397.791 130.137 397.987 130.137 398.237Z" fill="#6C46B0"/>
<path d="M118.345 535.649C118.345 536.042 118.076 536.363 117.746 536.363C117.417 536.363 117.148 536.042 117.148 535.649C117.148 535.257 117.417 534.936 117.746 534.936C118.076 534.936 118.345 535.257 118.345 535.649Z" fill="#6C46B0"/>
<path d="M103.397 567.401C103.835 567.401 104.19 566.977 104.19 566.455C104.19 565.932 103.835 565.509 103.397 565.509C102.959 565.509 102.604 565.932 102.604 566.455C102.604 566.977 102.959 567.401 103.397 567.401Z" fill="#6C46B0"/>
<path d="M84.439 399.469C84.6951 399.469 84.9028 399.221 84.9028 398.916C84.9028 398.61 84.6951 398.362 84.439 398.362C84.1828 398.362 83.9751 398.61 83.9751 398.916C83.9751 399.221 84.1828 399.469 84.439 399.469Z" fill="#6C46B0"/>
<path d="M73.366 394.096C73.366 394.417 73.1415 394.685 72.8722 394.685C72.6029 394.685 72.3784 394.417 72.3784 394.096C72.3784 393.775 72.6029 393.507 72.8722 393.507C73.1415 393.507 73.366 393.775 73.366 394.096Z" fill="#6C46B0"/>
<path d="M53.1499 498.347C53.1499 498.651 52.9404 498.901 52.686 498.901C52.4317 498.901 52.2222 498.651 52.2222 498.347C52.2222 498.044 52.4317 497.794 52.686 497.794C52.9404 497.794 53.1499 498.044 53.1499 498.347Z" fill="#6C46B0"/>
</g>
<g clip-path="url(#clip2_890_11096)">
<g filter="url(#filter0_d_890_11096)">
<path d="M166.063 550.936C188.97 550.936 208.148 534.972 213.08 513.563C214.44 507.662 219.22 502.688 225.276 502.688H368.924C374.98 502.688 379.889 507.597 379.889 513.653V579.446C379.889 585.502 374.98 590.411 368.924 590.411H-40.0878C-46.1438 590.411 -51.0532 585.502 -51.0532 579.446V513.653C-51.0532 507.597 -46.1438 502.688 -40.0878 502.688H106.849C112.905 502.688 117.686 507.662 119.046 513.563C123.978 534.972 143.156 550.936 166.063 550.936Z" fill="#432376"/>
</g>
<path d="M78.2298 558.404C77.4731 558.404 76.7604 558.02 76.256 557.352L74.6112 555.158C74.5783 555.115 74.4467 555.06 74.3919 555.049H73.8436C69.271 555.049 66.4419 553.81 66.4419 547.647V542.164C66.4419 537.318 68.9968 534.763 73.8436 534.763H82.616C87.4627 534.763 90.0176 537.318 90.0176 542.164V547.647C90.0176 552.494 87.4627 555.049 82.616 555.049H82.0677C81.98 555.049 81.9032 555.093 81.8484 555.158L80.2035 557.352C79.6991 558.02 78.9864 558.404 78.2298 558.404ZM73.8436 536.408C69.9179 536.408 68.0867 538.239 68.0867 542.164V547.647C68.0867 552.604 69.7864 553.404 73.8436 553.404H74.3919C74.9511 553.404 75.5871 553.722 75.927 554.172L77.5718 556.365C77.9556 556.869 78.5039 556.869 78.8877 556.365L80.5325 554.172C80.8944 553.689 81.4646 553.404 82.0677 553.404H82.616C86.5416 553.404 88.3728 551.573 88.3728 547.647V542.164C88.3728 538.239 86.5416 536.408 82.616 536.408H73.8436Z" fill="white"/>
<path d="M83.7127 542.987H72.7472C72.2976 542.987 71.9248 542.614 71.9248 542.164C71.9248 541.715 72.2976 541.342 72.7472 541.342H83.7127C84.1623 541.342 84.5351 541.715 84.5351 542.164C84.5351 542.614 84.1623 542.987 83.7127 542.987Z" fill="white"/>
<path d="M79.3265 548.469H72.7472C72.2976 548.469 71.9248 548.096 71.9248 547.647C71.9248 547.197 72.2976 546.824 72.7472 546.824H79.3265C79.7761 546.824 80.1489 547.197 80.1489 547.647C80.1489 548.096 79.7761 548.469 79.3265 548.469Z" fill="white"/>
<g clip-path="url(#clip3_890_11096)">
<path d="M255.246 537.027C254.908 537.708 254.123 539.52 252.435 541.797C251.409 543.181 250.242 544.47 248.965 545.628C248.786 545.791 248.772 546.069 248.935 546.248C249.098 546.427 249.375 546.441 249.555 546.278C252.129 543.943 254.265 541.11 255.811 537.887C256.47 538.387 257.084 538.98 257.633 539.678C254.776 543.48 248.884 549.437 244.765 552.769C242.403 554.679 241.649 554.906 241.487 554.932C241.319 554.835 241.1 554.858 240.956 555.002C240.785 555.173 240.785 555.451 240.956 555.622C241.374 556.04 242.084 555.69 242.606 555.394C246.512 553.182 257.09 542.719 259.453 538.55C259.789 537.957 260.079 537.298 259.681 536.9C259.51 536.729 259.232 536.729 259.061 536.9C258.917 537.044 258.894 537.263 258.991 537.431C258.973 537.542 258.86 537.935 258.166 538.94C257.498 538.13 256.726 537.431 255.885 536.86C255.669 536.713 255.366 536.786 255.246 537.028L255.246 537.027Z" fill="#A881D9"/>
<path d="M241.687 552.577C242.047 552.577 242.26 552.159 242.033 551.868C241.205 550.808 240.626 549.626 240.29 548.394C243.627 546.347 246.545 543.754 248.989 540.694C249.14 540.505 249.109 540.229 248.92 540.077C248.731 539.926 248.454 539.957 248.303 540.146C246.008 543.02 243.261 545.499 240.089 547.485C239.555 544.402 240.495 541.13 242.842 538.784C245.631 535.995 249.805 535.127 253.475 536.573C253.7 536.662 253.955 536.551 254.044 536.326C254.133 536.1 254.022 535.846 253.797 535.757C249.801 534.183 245.258 535.128 242.221 538.164C238.376 542.008 237.998 548.131 241.341 552.408C241.427 552.519 241.557 552.577 241.687 552.577H241.687Z" fill="#A881D9"/>
<path d="M263.388 533.774C262.536 532.922 260.569 533.491 257.542 535.467C257.339 535.6 257.282 535.872 257.415 536.075C257.547 536.278 257.819 536.335 258.022 536.202C261.152 534.16 262.478 534.105 262.768 534.395C263.066 534.693 262.998 536.059 260.86 539.293C257.015 545.109 249.17 552.953 243.351 556.799C240.116 558.937 238.749 559.004 238.452 558.707C238.257 558.512 238.279 557.998 238.51 557.295C238.786 556.456 239.339 555.39 240.154 554.124C240.285 553.921 240.227 553.649 240.023 553.518C239.819 553.387 239.547 553.445 239.416 553.649C237.529 556.581 236.996 558.492 237.831 559.327C239.389 560.885 244.353 557.246 246.123 555.899C250.048 557.339 254.478 556.384 257.462 553.402C259.921 550.943 261.045 547.425 260.468 543.99C260.428 543.751 260.203 543.59 259.963 543.63C259.724 543.67 259.563 543.896 259.603 544.135C260.132 547.29 259.1 550.522 256.84 552.781C254.247 555.374 250.443 556.313 246.955 555.252C255.359 548.595 265.899 536.285 263.388 533.774Z" fill="#A881D9"/>
<path d="M245.435 549.944C245.537 549.944 245.638 549.909 245.721 549.838C246.329 549.317 246.942 548.781 247.541 548.248C247.722 548.087 247.739 547.809 247.577 547.629C247.416 547.448 247.139 547.431 246.958 547.593C246.363 548.123 245.754 548.654 245.149 549.172C244.839 549.438 245.031 549.944 245.435 549.944Z" fill="#A881D9"/>
<path d="M254.955 550.909C253.802 552.117 252.562 553.266 251.271 554.322C251.084 554.476 251.056 554.753 251.209 554.94C251.363 555.127 251.64 555.154 251.827 555.001C253.146 553.922 254.412 552.749 255.59 551.515C255.758 551.34 255.751 551.062 255.576 550.895C255.4 550.727 255.123 550.734 254.955 550.909Z" fill="#A881D9"/>
<path d="M256.738 549.126L256.499 549.365C256.328 549.537 256.328 549.815 256.499 549.986C256.671 550.157 256.948 550.157 257.12 549.986L257.359 549.747C257.53 549.576 257.53 549.298 257.359 549.126C257.187 548.955 256.909 548.955 256.738 549.126Z" fill="#A881D9"/>
</g>
<rect x="125.568" y="464.309" width="78.9513" height="78.9513" rx="39.4757" fill="#A881D9"/>
<path fill-rule="evenodd" clip-rule="evenodd" d="M178.796 500.353C178.796 496.098 176.9 492.922 173.947 491.767C171.216 490.696 167.937 491.497 165.044 494.206C162.15 491.497 158.871 490.696 156.14 491.767C153.187 492.922 151.291 496.098 151.291 500.351C151.291 503.062 152.737 505.728 154.537 508.023C156.356 510.343 158.643 512.419 160.552 513.968L160.723 514.109C162.258 515.356 163.369 516.258 165.044 516.258C166.719 516.258 167.827 515.356 169.364 514.109L169.535 513.968C171.444 512.42 173.731 510.343 175.55 508.023C177.35 505.728 178.796 503.062 178.796 500.353ZM165.745 496.219C168.446 493.329 171.247 492.77 173.249 493.553C175.255 494.339 176.877 496.636 176.877 500.353C176.877 502.414 175.751 504.656 174.04 506.839C172.346 509.001 170.181 510.973 168.326 512.479C166.544 513.925 165.968 514.338 165.044 514.338C164.119 514.338 163.543 513.925 161.761 512.478C159.906 510.973 157.741 508.999 156.047 506.84C154.334 504.656 153.21 502.414 153.21 500.353C153.21 496.636 154.832 494.34 156.838 493.553C158.84 492.77 161.641 493.329 164.342 496.219C164.432 496.315 164.541 496.392 164.661 496.444C164.782 496.497 164.912 496.524 165.044 496.524C165.175 496.524 165.305 496.497 165.426 496.444C165.546 496.392 165.655 496.315 165.745 496.219Z" fill="white"/>
</g>
</g>
</g>
<rect x="41.4917" y="386.556" width="248.884" height="248.884" rx="124.442" stroke="url(#paint1_linear_890_11096)" stroke-width="1.17698"/>
<defs>
<filter id="filter0_d_890_11096" x="-70.7911" y="467.598" width="470.419" height="127.199" filterUnits="userSpaceOnUse" color-interpolation-filters="sRGB">
<feFlood flood-opacity="0" result="BackgroundImageFix"/>
<feColorMatrix in="SourceAlpha" type="matrix" values="0 0 0 0 0 0 0 0 0 0 0 0 0 0 0 0 0 0 127 0" result="hardAlpha"/>
<feOffset dy="-15.3516"/>
<feGaussianBlur stdDeviation="9.86892"/>
<feComposite in2="hardAlpha" operator="out"/>
<feColorMatrix type="matrix" values="0 0 0 0 0 0 0 0 0 0 0 0 0 0 0 0 0 0 0.22 0"/>
<feBlend mode="normal" in2="BackgroundImageFix" result="effect1_dropShadow_890_11096"/>
<feBlend mode="normal" in="SourceGraphic" in2="effect1_dropShadow_890_11096" result="shape"/>
</filter>
<linearGradient id="paint0_linear_890_11096" x1="5.69318" y1="1.02536" x2="370.199" y2="50.114" gradientUnits="userSpaceOnUse">
<stop stop-color="#4D14A0"/>
<stop offset="0.166667" stop-color="#6F2ABB"/>
<stop offset="0.317699" stop-color="#8A33D8"/>
<stop offset="0.708333" stop-color="#7D1CC3"/>
<stop offset="1" stop-color="#680F9B"/>
</linearGradient>
<linearGradient id="paint1_linear_890_11096" x1="45.0183" y1="386.556" x2="318.918" y2="423.442" gradientUnits="userSpaceOnUse">
<stop stop-color="#4D14A0"/>
<stop offset="0.166667" stop-color="#6F2ABB"/>
<stop offset="0.317699" stop-color="#8A33D8"/>
<stop offset="0.708333" stop-color="#7D1CC3"/>
<stop offset="1" stop-color="#680F9B"/>
</linearGradient>
<clipPath id="clip0_890_11096">
<rect x="41.4917" y="386.556" width="248.884" height="248.884" rx="124.442" fill="white"/>
</clipPath>
<clipPath id="clip1_890_11096">
<rect width="430.943" height="932.064" fill="white" transform="translate(-51.0532 -341.653)"/>
</clipPath>
<clipPath id="clip2_890_11096">
<rect width="430.943" height="127.199" fill="white" transform="translate(-51.0532 463.212)"/>
</clipPath>
<clipPath id="clip3_890_11096">
<rect width="26.3171" height="26.3171" fill="white" transform="translate(237.448 533.391)"/>
</clipPath>
</defs>
</svg>
