<svg width="42" height="42" viewBox="0 0 42 42" fill="none" xmlns="http://www.w3.org/2000/svg">
<path d="M19.2952 20.0581L1.91028 38.5103C1.91093 38.5141 1.91224 38.5173 1.91289 38.5211C2.44604 40.5246 4.27606 42 6.44802 42C7.31625 42 8.13141 41.7653 8.83046 41.3532L8.88598 41.3207L28.455 30.0286L19.2952 20.0581Z" fill="#34A853"/>
<path d="M36.8838 16.9161L36.8671 16.9047L28.4187 12.007L18.9005 20.4767L28.4518 30.0267L36.8557 25.1778C38.3291 24.3824 39.3293 22.8291 39.3293 21.038C39.3293 19.2597 38.3425 17.7141 36.8838 16.9161Z" fill="#FBBC04"/>
<path d="M1.90944 3.48898C1.80493 3.87436 1.75 4.27801 1.75 4.69719L1.75 37.3028C1.75 37.7212 1.80428 38.1263 1.91009 38.5103L19.8934 20.5302L1.90944 3.48898Z" fill="#4285F4"/>
<path d="M19.4233 20.9998L28.4217 12.004L8.87487 0.67111C8.16438 0.245569 7.33518 -2.09808e-05 6.44785 -2.09808e-05C4.27589 -2.09808e-05 2.44342 1.47794 1.91011 3.48399C1.90945 3.48595 1.90945 3.48726 1.90945 3.48906L19.4233 20.9998Z" fill="#34A853"/>
</svg>
