<svg width="20" height="20" viewBox="0 0 20 20" fill="none" xmlns="http://www.w3.org/2000/svg">
<path d="M10.0002 10.625C7.3585 10.625 5.2085 8.475 5.2085 5.83333C5.2085 3.19167 7.3585 1.04167 10.0002 1.04167C12.6418 1.04167 14.7918 3.19167 14.7918 5.83333C14.7918 8.475 12.6418 10.625 10.0002 10.625ZM10.0002 2.29167C8.05016 2.29167 6.4585 3.88333 6.4585 5.83333C6.4585 7.78333 8.05016 9.375 10.0002 9.375C11.9502 9.375 13.5418 7.78333 13.5418 5.83333C13.5418 3.88333 11.9502 2.29167 10.0002 2.29167Z" fill="#DDCDFF"/>
<path d="M17.1585 18.9583C16.8168 18.9583 16.5335 18.675 16.5335 18.3333C16.5335 15.4583 13.6001 13.125 10.0001 13.125C6.40013 13.125 3.4668 15.4583 3.4668 18.3333C3.4668 18.675 3.18346 18.9583 2.8418 18.9583C2.50013 18.9583 2.2168 18.675 2.2168 18.3333C2.2168 14.775 5.70846 11.875 10.0001 11.875C14.2918 11.875 17.7835 14.775 17.7835 18.3333C17.7835 18.675 17.5001 18.9583 17.1585 18.9583Z" fill="#DDCDFF"/>
</svg>
